<?xml version="1.0" encoding="utf-8"?>
<!-- Generator: Adobe Illustrator 17.1.0, SVG Export Plug-In . SVG Version: 6.00 Build 0)  -->
<!DOCTYPE svg PUBLIC "-//W3C//DTD SVG 1.1//EN" "http://www.w3.org/Graphics/SVG/1.1/DTD/svg11.dtd">
<svg version="1.1" id="Layer_1" xmlns="http://www.w3.org/2000/svg" xmlns:xlink="http://www.w3.org/1999/xlink" x="0px" y="0px"
	 viewBox="0 0 48 48.24" enable-background="new 0 0 48 48.24" xml:space="preserve">
<g>
	<path fill="#00ACC8" d="M39.805,6.762V4.18c0-2.542-1.604-4.06-4.291-4.06c-2.686,0-4.291,1.518-4.291,4.06v2.582h-2.907V4.18
		c0-2.542-1.604-4.06-4.291-4.06c-2.686,0-4.291,1.518-4.291,4.06v2.582h-2.907V4.18c0-2.542-1.604-4.06-4.291-4.06
		c-2.686,0-4.29,1.518-4.29,4.06v2.582H3.321V48.12h41.358V6.762H39.805z M33.521,4.18c0-1.254,0.575-1.763,1.993-1.763
		s1.993,0.509,1.993,1.763v6.906c0,1.254-0.575,1.763-1.993,1.763s-1.993-0.509-1.993-1.763V4.18z M22.033,4.18
		c0-1.254,0.575-1.763,1.993-1.763c1.418,0,1.993,0.509,1.993,1.763v6.906c0,1.254-0.576,1.763-1.993,1.763
		c-1.418,0-1.993-0.509-1.993-1.763V4.18z M10.545,4.18c0-1.254,0.575-1.763,1.993-1.763c1.419,0,1.993,0.509,1.993,1.763v6.906
		c0,1.254-0.575,1.763-1.993,1.763c-1.418,0-1.993-0.509-1.993-1.763V4.18z M41.232,44.674H6.768V15.953h34.465V44.674z"/>
	<path fill="#00ACC8" d="M18.011,38.667c0.399,0.401,1.189,0.729,1.755,0.729h1.199c0.565,0,1.356-0.328,1.756-0.729l13.884-13.916
		c0.399-0.4,0.398-1.054-0.004-1.454l-2.56-2.541c-0.401-0.399-1.057-0.397-1.456,0.003L21.136,32.236
		c-0.4,0.4-1.054,0.401-1.455,0.001l-4.177-4.169c-0.401-0.4-1.056-0.4-1.457,0.001l-2.572,2.573
		c-0.4,0.401-0.401,1.056-0.002,1.456L18.011,38.667z"/>
</g>
</svg>
