<?xml version="1.0" encoding="utf-8"?>
<!-- Generator: Adobe Illustrator 17.0.1, SVG Export Plug-In . SVG Version: 6.00 Build 0)  -->
<!DOCTYPE svg PUBLIC "-//W3C//DTD SVG 1.1//EN" "http://www.w3.org/Graphics/SVG/1.1/DTD/svg11.dtd">
<svg version="1.1" id="Layer_1" xmlns="http://www.w3.org/2000/svg" xmlns:xlink="http://www.w3.org/1999/xlink" x="0px" y="0px"
	 width="50px" height="74px" viewBox="0 0 50 74" enable-background="new 0 0 50 74" xml:space="preserve">
<polygon fill="#E63C2F" points="50,74 24.954,59 0,74 0,0 50,0 "/>
<g>
	<path fill="#FFFFFF" d="M32.022,40.788c-0.014-0.011-0.027-0.022-0.041-0.033c-0.446-0.305-0.869-0.647-1.313-0.954
		c-0.765-0.24-1.613-0.402-2.342-0.459c-1.022-0.082-2.137,0.012-3.181-0.136c-0.615-0.088-1.216-0.206-1.733-0.636
		c-1.188-0.992-2.225-1.891-3.232-3.067c-0.078-0.088-0.123-0.138-0.124-0.139c-0.348-0.387-0.282-0.968,0.096-1.286
		c0.008-0.009,0.013-0.017,0.021-0.025c0.396-0.354,1.041-0.278,1.44,0.169l0.048,0.053l2.684,2.613h1.361
		c0.495,0,0.379,0.001,0.874,0c0.505,0,1.012,0.001,1.518,0.001c0.446-0.001,0.892,0.002,1.337,0
		c0.183-0.001,0.364-0.002,0.545-0.001c0.215,0.002,0.434,0.023,0.649,0.008c0.102-0.008,0.224-0.032,0.277-0.132
		c0.046-0.089,0.013-0.194-0.058-0.258c-0.158-0.143-1.063-0.385-1.309-0.451c-0.647-0.178-0.777-0.197-1.406-0.425
		c-0.567-0.207-0.933-0.84-0.604-1.412c0.476-0.824,1.746-0.369,2.438-0.231c0.78,0.157,0.962,0.308,1.741,0.397
		c0.265,0.03,0.532,0.053,0.803,0.066c1.291,0.063,2.398,0.652,3.03,1.802c0.018,0.033,0.04,0.087,0.065,0.153
		c0.035,0.047,0.074,0.091,0.108,0.14c0.048,0.07,0.064,0.137,0.088,0.206c0.022,0.029,0.029,0.075,0.048,0.108
		c0.05,0.059,0.101,0.113,0.138,0.199c0.241,0.568,0.515,1.146,0.813,1.701C38.833,36.199,40,32.96,40,29.473v-0.082
		c0-8.073-6.147-14.754-14.959-14.754S10,21.399,10,29.473v0.082c0,8.073,6.147,14.753,14.959,14.753
		c3.102,0,5.874-0.851,8.176-2.29C32.734,41.639,32.346,41.247,32.022,40.788z"/>
	<path fill="#E63C2F" d="M28.606,21.123c-1.5,0-2.776,0.936-3.286,2.257c-0.565-1.191-1.775-2.017-3.181-2.017
		c-1.946,0-3.525,1.579-3.525,3.527c0,1.114,0.518,2.105,1.324,2.75l5.328,5.33l5.817-5.818c0.646-0.64,1.047-1.526,1.047-2.506
		C32.131,22.699,30.553,21.123,28.606,21.123z"/>
</g>
</svg>
