<?xml version="1.0" encoding="utf-8"?>
<!-- Generator: Adobe Illustrator 17.1.0, SVG Export Plug-In . SVG Version: 6.00 Build 0)  -->
<!DOCTYPE svg PUBLIC "-//W3C//DTD SVG 1.1//EN" "http://www.w3.org/Graphics/SVG/1.1/DTD/svg11.dtd">
<svg version="1.1" id="Layer_1" xmlns="http://www.w3.org/2000/svg" xmlns:xlink="http://www.w3.org/1999/xlink" x="0px" y="0px"
	 viewBox="0 0 48 48.24" enable-background="new 0 0 48 48.24" xml:space="preserve">
<g>
	<path fill="#00ACC8" d="M26.525,2.645c-11.86,0-21.475,9.615-21.475,21.475c0,0.029,0.001,0.079,0.003,0.121H0l8.035,8.019
		l8.05-8.019h-5.068c0-0.001,0-0.004,0-0.005h-0.001c-0.001-0.04-0.002-0.088-0.002-0.116c0-8.553,6.957-15.509,15.51-15.509
		c8.553,0,15.51,6.956,15.51,15.509c0,8.553-6.957,15.51-15.51,15.51c-5.191,0-9.791-2.566-12.607-6.493l-2.514,2.504L9.647,37.39
		c3.933,4.995,10.028,8.205,16.878,8.205C38.385,45.595,48,35.981,48,24.12C48,12.26,38.385,2.645,26.525,2.645z"/>
	<polygon fill="#00ACC8" points="25.156,13.335 25.156,25.031 25.173,25.031 34.988,31.166 36.378,28.94 27.782,23.566 
		27.782,13.335 	"/>
</g>
</svg>
