<?xml version="1.0" encoding="utf-8"?>
<!-- Generator: Adobe Illustrator 17.1.0, SVG Export Plug-In . SVG Version: 6.00 Build 0)  -->
<!DOCTYPE svg PUBLIC "-//W3C//DTD SVG 1.1//EN" "http://www.w3.org/Graphics/SVG/1.1/DTD/svg11.dtd">
<svg version="1.1" id="Layer_1" xmlns="http://www.w3.org/2000/svg" xmlns:xlink="http://www.w3.org/1999/xlink" x="0px" y="0px"
	 viewBox="0 0 48 48.24" enable-background="new 0 0 48 48.24" xml:space="preserve">
<path fill="#00ACC8" d="M24,0C10.745,0,0,10.745,0,24s10.745,24,24,24s24-10.745,24-24S37.255,0,24,0z M41.598,23.879
	c0.643,0,1.164,0.521,1.164,1.164c0,0.642-0.521,1.164-1.164,1.164s-1.164-0.522-1.164-1.164
	C40.434,24.4,40.955,23.879,41.598,23.879z M31.833,8.288c1.532,0,2.771,1.241,2.771,2.771s-1.239,2.771-2.771,2.771
	c-1.532,0-2.771-1.241-2.771-2.771S30.301,8.288,31.833,8.288z M18.853,8.288c1.532,0,2.771,1.241,2.771,2.771
	s-1.239,2.771-2.771,2.771s-2.771-1.241-2.771-2.771S17.321,8.288,18.853,8.288z M7.769,15.677c1.021,0,1.847,0.828,1.847,1.848
	c0,1.019-0.826,1.847-1.847,1.847s-1.847-0.828-1.847-1.847C5.922,16.505,6.748,15.677,7.769,15.677z M11.463,30.456H9.616v7.39
	H5.921v-7.39H4.074v-7.39c0-1.015,0.832-1.847,1.847-1.847h3.695c1.016,0,1.847,0.832,1.847,1.847V30.456z M24.395,26.761h-1.848
	v11.085h-7.389V26.761H13.31v-7.389c0-2.033,1.664-3.695,3.695-3.695H20.7c2.031,0,3.695,1.662,3.695,3.695V26.761z M37.375,26.761
	h-1.848v11.085h-7.389V26.761H26.29v-7.389c0-2.033,1.664-3.695,3.695-3.695h3.695c2.031,0,3.695,1.662,3.695,3.695V26.761z
	 M42.762,33.19v4.656h-2.328V33.19H39.27v-4.655c0-0.64,0.524-1.164,1.164-1.164h2.328c0.64,0,1.164,0.524,1.164,1.164v4.655H42.762
	z"/>
</svg>
