<?xml version="1.0" encoding="utf-8"?>
<!-- Generator: Adobe Illustrator 17.0.1, SVG Export Plug-In . SVG Version: 6.00 Build 0)  -->
<!DOCTYPE svg PUBLIC "-//W3C//DTD SVG 1.1//EN" "http://www.w3.org/Graphics/SVG/1.1/DTD/svg11.dtd">
<svg version="1.1" id="Layer_1" xmlns="http://www.w3.org/2000/svg" xmlns:xlink="http://www.w3.org/1999/xlink" x="0px" y="0px"
	 width="150px" height="70px" viewBox="0 0 150 70" enable-background="new 0 0 150 70" xml:space="preserve">
<g>
	<g>
		<path fill="#00ACC8" d="M17.388,4.062h3.644v8.622h9.897V4.062h3.644v20.741h-3.644v-8.741h-9.897v8.741h-3.644V4.062z"/>
		<path fill="#00ACC8" d="M36.299,14.386v-0.059c0-5.838,4.504-10.726,10.874-10.726s10.815,4.83,10.815,10.667v0.059
			c0,5.837-4.504,10.725-10.874,10.725S36.299,20.223,36.299,14.386z M54.166,14.386v-0.059c0-4.03-2.933-7.378-7.052-7.378
			s-6.993,3.289-6.993,7.319v0.059c0,4.03,2.934,7.378,7.053,7.378C51.292,21.705,54.166,18.415,54.166,14.386z"/>
		<path fill="#00ACC8" d="M60.065,3.956h3.378l11.111,14.341V3.956h3.585v20.741h-3.053L63.65,9.941v14.756h-3.585V3.956z"/>
		<path fill="#00ACC8" d="M80.366,3.956h15.378v3.259H84.01v5.392h10.4v3.259h-10.4v5.571h11.882v3.259H80.366V3.956z"/>
		<path fill="#00ACC8" d="M98.088,21.675l2.192-2.607c1.986,1.718,3.971,2.696,6.549,2.696c2.251,0,3.674-1.037,3.674-2.607v-0.059
			c0-1.482-0.829-2.282-4.681-3.171c-4.415-1.066-6.904-2.37-6.904-6.193V9.674c0-3.556,2.963-6.014,7.082-6.014
			c3.023,0,5.422,0.918,7.526,2.607l-1.955,2.755c-1.867-1.393-3.734-2.133-5.63-2.133c-2.133,0-3.377,1.096-3.377,2.46v0.059
			c0,1.601,0.948,2.312,4.918,3.26c4.386,1.066,6.667,2.637,6.667,6.074v0.059c0,3.881-3.052,6.193-7.408,6.193
			C103.568,24.994,100.576,23.897,98.088,21.675z"/>
		<path fill="#00ACC8" d="M122.36,7.439h-6.578V4.062h16.83v3.377h-6.578v17.363h-3.675V7.439z"/>
	</g>
	<path fill="#FFFFFF" d="M75.118,65.554c-0.545,0-0.545,0.846,0,0.846C75.663,66.4,75.663,65.554,75.118,65.554z"/>
	<path fill="#00ACC8" d="M0,49.689v-0.059c0-5.808,4.444-10.726,10.696-10.726c3.615,0,5.838,1.008,7.971,2.815l-2.311,2.756
		c-1.601-1.364-3.171-2.223-5.808-2.223c-3.822,0-6.726,3.348-6.726,7.319v0.059c0,4.267,2.815,7.407,7.052,7.407
		c1.956,0,3.733-0.622,5.008-1.57v-3.881h-5.304v-3.171h8.83v8.711c-2.045,1.748-4.978,3.229-8.652,3.229
		C4.267,60.355,0,55.733,0,49.689z"/>
	<path fill="#00ACC8" d="M20.801,49.689v-0.059c0-5.838,4.504-10.726,10.874-10.726S42.49,43.733,42.49,49.57v0.059
		c0,5.837-4.504,10.725-10.874,10.725S20.801,55.526,20.801,49.689z M38.667,49.689v-0.059c0-4.03-2.933-7.378-7.052-7.378
		s-6.993,3.289-6.993,7.319v0.059c0,4.03,2.934,7.378,7.053,7.378C35.793,57.007,38.667,53.718,38.667,49.689z"/>
	<path fill="#00ACC8" d="M79.777,39.259h3.378L94.266,53.6V39.259h3.585V60h-3.053L83.362,45.244V60h-3.585V39.259z"/>
	<path fill="#00ACC8" d="M99.871,39.259h15.378v3.259h-11.734v5.392h10.4v3.259h-10.4v5.571h11.882V60H99.871V39.259z"/>
	<path fill="#00ACC8" d="M117.036,56.978l2.192-2.607c1.986,1.718,3.971,2.696,6.549,2.696c2.251,0,3.674-1.037,3.674-2.607V54.4
		c0-1.482-0.829-2.282-4.681-3.171c-4.415-1.066-6.904-2.37-6.904-6.193v-0.059c0-3.556,2.963-6.014,7.082-6.014
		c3.023,0,5.422,0.918,7.526,2.607l-1.955,2.755c-1.867-1.393-3.734-2.133-5.63-2.133c-2.133,0-3.377,1.096-3.377,2.46v0.059
		c0,1.601,0.948,2.312,4.918,3.26c4.386,1.066,6.667,2.637,6.667,6.074v0.059c0,3.881-3.052,6.193-7.408,6.193
		C122.516,60.296,119.524,59.199,117.036,56.978z"/>
	<path fill="#00ACC8" d="M133.941,56.978l2.192-2.607c1.986,1.718,3.971,2.696,6.549,2.696c2.251,0,3.674-1.037,3.674-2.607V54.4
		c0-1.482-0.829-2.282-4.681-3.171c-4.415-1.066-6.904-2.37-6.904-6.193v-0.059c0-3.556,2.963-6.014,7.081-6.014
		c3.022,0,5.422,0.918,7.527,2.607l-1.956,2.755c-1.867-1.393-3.733-2.133-5.63-2.133c-2.134,0-3.378,1.096-3.378,2.46v0.059
		c0,1.601,0.948,2.312,4.918,3.26c4.385,1.066,6.667,2.637,6.667,6.074v0.059c0,3.881-3.052,6.193-7.408,6.193
		C139.422,60.296,136.429,59.199,133.941,56.978z"/>
	<path fill="#FFFFFF" d="M66.934,42.578h-4.089v14.104h4.089c4.356,0,7.2-2.934,7.2-6.992v-0.059
		C74.135,45.57,71.29,42.578,66.934,42.578z"/>
	<path fill="#00ACC8" d="M66.934,39.259h-7.733v17.159c0.065,0.118,0.122,0.243,0.193,0.356c0.322,0.512,0.731,0.96,1.085,1.45
		c0.024,0.034,0.036,0.066,0.051,0.099c0.449,0.563,0.85,1.166,1.353,1.678h5.052c6.519,0,11.023-4.534,11.023-10.37V49.57
		C77.957,43.733,73.453,39.259,66.934,39.259z M74.135,49.689c0,4.059-2.844,6.992-7.2,6.992h-4.089V42.578h4.089
		c4.356,0,7.2,2.992,7.2,7.052V49.689z"/>
	<path fill="#E63C2F" d="M55.708,57.809c-0.01-0.008-0.02-0.016-0.029-0.024c-0.322-0.221-0.628-0.468-0.949-0.689
		c-0.553-0.174-1.166-0.291-1.694-0.332c-0.739-0.059-1.545,0.009-2.3-0.098c-0.445-0.064-0.879-0.149-1.253-0.46
		c-0.859-0.717-1.608-1.367-2.337-2.217c-0.056-0.064-0.089-0.1-0.089-0.101c-0.252-0.28-0.204-0.7,0.069-0.929
		c0.006-0.006,0.009-0.013,0.015-0.018c0.286-0.256,0.753-0.201,1.041,0.122l0.035,0.039l1.941,1.889h0.984
		c0.358,0,0.274,0.001,0.632,0c0.365,0,0.732,0.001,1.097,0.001c0.322-0.001,0.645,0.002,0.966,0
		c0.132-0.001,0.263-0.002,0.394-0.001c0.155,0.002,0.314,0.017,0.469,0.006c0.074-0.006,0.162-0.023,0.2-0.095
		c0.033-0.065,0.009-0.14-0.042-0.187c-0.114-0.103-0.769-0.278-0.946-0.326c-0.468-0.128-0.562-0.143-1.016-0.307
		c-0.41-0.15-0.674-0.607-0.436-1.021c0.344-0.595,1.263-0.267,1.763-0.167c0.564,0.113,0.696,0.223,1.259,0.287
		c0.191,0.022,0.384,0.039,0.581,0.048c0.933,0.046,1.734,0.471,2.191,1.303c0.013,0.024,0.029,0.063,0.047,0.111
		c0.025,0.034,0.054,0.066,0.078,0.101c0.035,0.05,0.046,0.099,0.064,0.149c0.016,0.021,0.021,0.054,0.034,0.078
		c0.036,0.042,0.073,0.082,0.1,0.144c0.174,0.411,0.372,0.829,0.588,1.23c1.468-1.85,2.311-4.191,2.311-6.712V49.57
		c0-5.837-4.444-10.667-10.815-10.667s-10.874,4.889-10.874,10.726v0.059c0,5.837,4.444,10.666,10.815,10.666
		c2.243,0,4.246-0.615,5.911-1.655C56.223,58.425,55.942,58.141,55.708,57.809z"/>
	<path fill="#FFFFFF" d="M53.239,43.593c-1.085,0-2.007,0.677-2.376,1.632c-0.409-0.861-1.283-1.458-2.3-1.458
		c-1.407,0-2.549,1.141-2.549,2.55c0,0.805,0.374,1.522,0.957,1.988l3.852,3.853l4.205-4.206c0.467-0.462,0.757-1.104,0.757-1.812
		C55.787,44.732,54.646,43.593,53.239,43.593z"/>
	<g>
		<g>
			<rect x="17.388" y="31.683" fill="#00ACC8" width="46.723" height="0.846"/>
		</g>
		<g>
			<rect x="85.89" y="31.683" fill="#00ACC8" width="46.722" height="0.846"/>
		</g>
		<g>
			<path fill="#00ACC8" d="M70.118,29.128h-2.384v-0.74h5.579v0.74H70.93v6.36h-0.812V29.128z"/>
			<path fill="#00ACC8" d="M74.015,31.958v-0.02c0-1.957,1.471-3.672,3.632-3.672c2.16,0,3.611,1.694,3.611,3.651
				c0.01,0.01,0.01,0.01,0,0.02c0,1.958-1.471,3.672-3.632,3.672S74.015,33.916,74.015,31.958z M80.426,31.958v-0.02
				c0-1.613-1.177-2.931-2.8-2.931s-2.779,1.298-2.779,2.911v0.02c0,1.613,1.177,2.932,2.8,2.932
				C79.27,34.87,80.426,33.572,80.426,31.958z"/>
		</g>
	</g>
</g>
</svg>
