<?xml version="1.0" encoding="utf-8"?>
<!-- Generator: Adobe Illustrator 17.0.0, SVG Export Plug-In . SVG Version: 6.00 Build 0)  -->
<!DOCTYPE svg PUBLIC "-//W3C//DTD SVG 1.1//EN" "http://www.w3.org/Graphics/SVG/1.1/DTD/svg11.dtd">
<svg version="1.1" id="Layer_1" xmlns="http://www.w3.org/2000/svg" xmlns:xlink="http://www.w3.org/1999/xlink" x="0px" y="0px"
	 width="48px" height="48px" viewBox="0 0 48 48" style="enable-background:new 0 0 48 48;" xml:space="preserve">
<g>
	<g>
		<g>
			<g>
				<g>
					<polygon style="fill:#00ACC8;" points="25.5,24.3 25.5,24.3 25.5,24.3 					"/>
					<path style="fill:#00ACC8;" d="M33,17.6c-4.5,0-7.2,2.4-7.5,6c0.2-0.3,0.5-0.6,0.7-0.9c0.4-0.5,0.8-0.9,1.3-1.3
						c0.5-0.4,0.9-0.8,1.4-1.1c0.5-0.3,1.1-0.6,1.7-0.7c-0.6,0.2-1.1,0.5-1.5,0.9c-0.5,0.4-0.9,0.8-1.3,1.2
						c-0.4,0.4-0.7,0.9-1.1,1.4c-0.3,0.4-0.5,0.9-0.8,1.3H28C33.2,24.3,33,21.1,33,17.6z"/>
				</g>
				<g>
					<path style="fill:#00ACC8;" d="M20.2,21.6c-0.4-0.4-0.8-0.9-1.3-1.2c-0.5-0.4-1-0.7-1.5-0.9c0.6,0.1,1.1,0.4,1.7,0.7
						c0.5,0.3,1,0.7,1.4,1.1c0.5,0.4,0.9,0.9,1.3,1.3c0.3,0.3,0.5,0.6,0.7,0.9c-0.3-3.6-3-6-7.5-6c0,3.5-0.2,6.7,5,6.7H22
						c-0.2-0.4-0.5-0.9-0.8-1.3C20.9,22.5,20.6,22.1,20.2,21.6z"/>
				</g>
				<g>
					<path style="fill:#00ACC8;" d="M31.3,30.4c0-2.7-0.3-4.8-3.9-4.8h-1.6c0.2,0.3,0.4,0.5,0.6,0.8c0.3,0.3,0.6,0.6,0.9,0.9
						c0.6,0.6,1.3,1.1,2.1,1.3c-0.8-0.2-1.6-0.6-2.3-1.1c-0.4-0.2-0.7-0.5-1-0.8c-0.2-0.2-0.4-0.4-0.7-0.6
						C25.6,28.4,26.7,30.4,31.3,30.4z"/>
				</g>
				<g>
					<path style="fill:#00ACC8;" d="M21.8,26.7c-0.3,0.3-0.7,0.6-1,0.8c-0.7,0.5-1.5,0.9-2.3,1.1c0.8-0.3,1.5-0.8,2.1-1.3
						c0.3-0.3,0.6-0.6,0.9-0.9c0.2-0.3,0.4-0.5,0.6-0.8h-1.6c-3.6,0-3.9,2.1-3.9,4.8c4.6,0,5.7-1.9,5.8-4.3
						C22.3,26.3,22.1,26.5,21.8,26.7z"/>
				</g>
				<path style="fill:#00ACC8;" d="M25.4,19.5c0.1-0.1,0-0.3-0.1-0.4c-0.1-0.1-0.3,0-0.4,0.1L24,21l-0.9-1.7
					c-0.1-0.1-0.2-0.2-0.4-0.1c-0.1,0.1-0.2,0.2-0.1,0.4c0,0,1.2,2.2,1.2,2.3c-0.1,0.5-0.2,1-0.3,1.5c-0.1,0.7-0.1,1.5-0.1,2.2
					c0,0.7,0,1.5,0.1,2.2c0.1,0.7,0.2,1.5,0.5,2.2c0.3-0.7,0.4-1.5,0.5-2.2c0.1-0.7,0.1-1.5,0.1-2.2c0-0.7,0-1.5-0.1-2.2
					c-0.1-0.5-0.2-1-0.3-1.5C24.2,21.8,25.4,19.5,25.4,19.5z"/>
			</g>
		</g>
		<path style="fill:#00ACC8;" d="M24,48C10.8,48,0,37.2,0,24C0,10.8,10.8,0,24,0c13.2,0,24,10.8,24,24C48,37.2,37.2,48,24,48z M24,1
			C11.3,1,1,11.3,1,24c0,12.7,10.3,23,23,23c12.7,0,23-10.3,23-23C47,11.3,36.7,1,24,1z"/>
		<path style="fill:#00ACC8;" d="M24,38c-7.7,0-14-6.3-14-14s6.3-14,14-14c7.7,0,14,6.3,14,14S31.7,38,24,38z M24,11.1
			c-7.1,0-12.9,5.8-12.9,12.9c0,7.1,5.8,12.9,12.9,12.9S36.9,31.1,36.9,24C36.9,16.9,31.1,11.1,24,11.1z"/>
		<g>
			<g>
				<g>
					<g>
						<path style="fill:#00ACC8;" d="M18.4,4.5c-0.9,0.3-1.7,1.1-1.3,2.5c0.4,1.3,1.5,1.7,2.4,1.4c0.9-0.3,1.7-1.1,1.3-2.5
							C20.4,4.6,19.3,4.3,18.4,4.5z M19.4,7.8c-0.6,0.2-1.3-0.1-1.5-1c-0.3-0.9,0.2-1.5,0.8-1.7c0.6-0.2,1.3,0.1,1.5,1
							C20.4,7.1,20,7.6,19.4,7.8z"/>
						<path style="fill:#00ACC8;" d="M22.2,7.5c0,0.2,0.1,0.3,0.4,0.3c0.1,0,0.2,0,0.3-0.1l0.1,0l0-0.8l0-1.8l1.7,2.5
							c0.1,0.1,0.3,0.3,0.5,0.3l0.1,0c0.2,0,0.3-0.2,0.3-0.4l0-2.8l0-0.5c0-0.2-0.1-0.3-0.4-0.3c-0.1,0-0.2,0-0.3,0.1l-0.1,0l0,2.6
							l-1.7-2.5c-0.1-0.2-0.3-0.3-0.4-0.3l-0.1,0c-0.2,0-0.3,0.1-0.3,0.4l0,2.7L22.2,7.5z"/>
						<path style="fill:#00ACC8;" d="M29.2,8.6L29.2,8.6c0.1-0.1,0.2-0.1,0.2-0.3c0.1-0.2-0.1-0.4-0.2-0.4l-1.7-0.4l0.3-1.1l0.9,0.2
							c0.2,0,0.3,0,0.4-0.2c0-0.2,0-0.3-0.2-0.4L28,5.8l0.2-0.9l1.7,0.4c0.1,0,0.3,0,0.4-0.3c0-0.1,0-0.2,0-0.3l0,0l-1.9-0.5L28,4.2
							c-0.2,0-0.3,0-0.4,0.2l-0.8,3.2c0,0.2,0,0.3,0.2,0.4L29.2,8.6z"/>
						<path style="fill:#00ACC8;" d="M12.3,12.6L12.3,12.6c0-0.1-0.1-0.2-0.1-0.3c-0.2-0.2-0.4-0.1-0.5,0l-1.1,1.3L9.8,13l0.6-0.7
							c0.1-0.2,0.1-0.3,0-0.4c-0.2-0.1-0.3-0.1-0.4,0l-0.6,0.7L8.5,12l1.1-1.3c0.1-0.1,0.1-0.3-0.1-0.4c-0.1-0.1-0.2-0.1-0.3-0.1
							l-0.1,0L8,11.7l-0.2,0.2c-0.1,0.2-0.1,0.3,0,0.5l2.6,2.1c0.2,0.1,0.3,0.1,0.5-0.1L12.3,12.6z"/>
						<path style="fill:#00ACC8;" d="M3.9,21.1c0,0.2,0.1,0.4,0.2,0.4c0.1,0,0.2,0,0.3,0l0.1,0l0.3-1.2l2.9,0.6c0.2,0,0.3,0,0.4-0.3
							l0,0c0-0.2,0-0.3-0.2-0.4l-2.9-0.6l0.2-1c0.1-0.2-0.1-0.4-0.2-0.4c-0.1,0-0.2,0-0.3,0l-0.1,0L3.9,21.1z"/>
						<path style="fill:#00ACC8;" d="M14.3,6.4L14.3,6.4c0.1-0.2,0.2-0.2,0.3-0.3C14.7,6,14.9,6,15,6.2l0,0l1.9,3l0,0.1
							c-0.1,0.1-0.2,0.2-0.2,0.2c-0.2,0.1-0.4,0.1-0.5-0.1l-0.7-1.2l-1.6,1l0.9,1.4l0,0.1c-0.1,0.1-0.2,0.2-0.2,0.2
							c-0.2,0.1-0.4,0.1-0.5-0.1l-1.9-3l0-0.1c0.1-0.1,0.2-0.2,0.2-0.2c0.2-0.1,0.4-0.1,0.5,0.1l0,0l0.7,1.1l1.6-1L14.3,6.4z"/>
						<path style="fill:#00ACC8;" d="M6.2,14.5L6.2,14.5c0-0.2,0-0.3,0.1-0.4C6.4,14,6.5,13.9,6.7,14l0,0l3.2,1.5l0,0.1
							c0,0.1,0,0.2-0.1,0.3c-0.1,0.2-0.3,0.3-0.4,0.2l-1.3-0.6l-0.8,1.7l1.5,0.7l0,0.1c0,0.1,0,0.2-0.1,0.3
							c-0.1,0.2-0.3,0.3-0.4,0.2l-3.2-1.5l0-0.1c0-0.1,0-0.2,0.1-0.3c0.1-0.2,0.3-0.3,0.4-0.2l0,0l1.2,0.5l0.8-1.7L6.2,14.5z"/>
						<path style="fill:#00ACC8;" d="M43.3,17.8c-0.2-0.9-1.1-1.7-2.5-1.3c-1.4,0.4-1.7,1.5-1.5,2.4c0.2,0.9,1.1,1.7,2.5,1.3
							C43.2,19.8,43.5,18.7,43.3,17.8z M40,18.7c-0.2-0.6,0.1-1.3,1-1.5c0.9-0.2,1.5,0.2,1.7,0.8c0.2,0.6-0.1,1.3-1,1.5
							C40.7,19.8,40.2,19.3,40,18.7z"/>
						<path style="fill:#00ACC8;" d="M32.5,7.4c-0.4-0.4-0.5-0.6-0.4-0.8c0.1-0.3,0.5-0.3,0.9-0.1c0.5,0.2,0.5,0.5,0.5,0.6l0,0.1
							l0.1,0c0.2,0.1,0.4,0,0.5-0.2c0.2-0.3-0.2-0.7-0.8-1.1c-0.8-0.4-1.5-0.2-1.8,0.4C31.1,7,31.6,7.5,32,7.9
							c0.5,0.4,0.7,0.7,0.6,1c-0.1,0.2-0.5,0.3-1,0.1C31.2,8.8,31,8.5,31,8.3l0-0.1l-0.1,0c-0.3-0.1-0.4,0.1-0.5,0.2
							c-0.2,0.3,0.2,0.8,0.9,1.2c0.8,0.4,1.6,0.3,2-0.4C33.6,8.5,33.1,7.9,32.5,7.4z"/>
						<path style="fill:#00ACC8;" d="M35.8,7.6c-0.2-0.1-0.4-0.1-0.5,0c-0.1,0.1-0.1,0.1-0.1,0.2l0,0.1l0.9,0.8L34.2,11
							c-0.1,0.2-0.1,0.3,0,0.5l0,0c0.2,0.1,0.3,0.1,0.5,0l1.9-2.3l0.8,0.6c0.2,0.1,0.4,0.1,0.5,0C38,9.7,38,9.6,38,9.5l0-0.1
							L35.8,7.6z"/>
						<path style="fill:#00ACC8;" d="M39.3,15.6L39.3,15.6l-0.1,0c-0.4,0.1-0.7-0.1-1-0.5c-0.3-0.5-0.3-1.2,0.5-1.8
							c0.8-0.5,1.5-0.2,1.8,0.3c0.3,0.4,0.3,0.8,0.1,1l-0.1,0.1l0,0.1c0.1,0.2,0.4,0.3,0.6,0.2c0.3-0.2,0.4-0.9-0.1-1.7
							c-0.5-0.8-1.5-1.3-2.8-0.5c-1.2,0.8-1.2,1.9-0.7,2.7c0.5,0.7,1.2,1,1.5,0.8C39.4,16,39.5,15.8,39.3,15.6z"/>
						<path style="fill:#00ACC8;" d="M41,21.7c0-0.3-0.2-0.5-0.5-0.5c-0.3,0-0.5,0.2-0.5,0.5c0,0.3,0.2,0.5,0.5,0.5
							C40.8,22.1,41,22,41,21.7z"/>
					</g>
					<g>
						<path style="fill:#00ACC8;" d="M29.6,43.5c0.9-0.3,1.7-1.1,1.3-2.5c-0.4-1.3-1.5-1.7-2.4-1.4c-0.9,0.3-1.7,1.1-1.3,2.5
							C27.6,43.4,28.7,43.7,29.6,43.5z M28.6,40.2c0.6-0.2,1.3,0.1,1.5,1c0.3,0.9-0.2,1.5-0.8,1.7c-0.6,0.2-1.3-0.1-1.5-1
							C27.6,40.9,28,40.4,28.6,40.2z"/>
						<path style="fill:#00ACC8;" d="M25.8,40.5c0-0.2-0.1-0.3-0.4-0.3c-0.1,0-0.2,0-0.3,0.1l-0.1,0l0,0.8l0,1.8l-1.7-2.5
							c-0.1-0.1-0.3-0.3-0.5-0.3l-0.1,0c-0.2,0-0.3,0.2-0.3,0.4l0,2.8l0,0.5c0,0.2,0.1,0.3,0.4,0.3c0.1,0,0.2,0,0.3-0.1l0.1,0l0-2.6
							l1.7,2.5c0.1,0.2,0.3,0.3,0.4,0.3h0.1c0.2,0,0.3-0.1,0.3-0.4l0-2.7V40.5z"/>
						<path style="fill:#00ACC8;" d="M18.8,39.4L18.8,39.4c-0.1,0.1-0.2,0.1-0.2,0.3c-0.1,0.2,0.1,0.4,0.2,0.4l1.7,0.4l-0.3,1.1
							l-0.9-0.2c-0.2,0-0.3,0-0.4,0.2c0,0.2,0,0.3,0.2,0.4l0.9,0.2l-0.2,0.9l-1.7-0.4c-0.1,0-0.3,0-0.4,0.3c0,0.1,0,0.2,0,0.3l0,0
							l1.9,0.5l0.3,0.1c0.2,0,0.3,0,0.4-0.2l0.8-3.2c0-0.2,0-0.3-0.2-0.4L18.8,39.4z"/>
						<path style="fill:#00ACC8;" d="M35.7,35.4L35.7,35.4c0,0.1,0.1,0.2,0.1,0.3c0.2,0.2,0.4,0.1,0.5,0l1.1-1.3l0.9,0.7l-0.6,0.7
							c-0.1,0.2-0.1,0.3,0,0.4c0.2,0.1,0.3,0.1,0.4,0l0.6-0.7l0.7,0.6l-1.1,1.3c-0.1,0.1-0.1,0.3,0.1,0.4c0.1,0.1,0.2,0.1,0.3,0.1
							l0.1,0l1.3-1.5l0.2-0.2c0.1-0.2,0.1-0.3,0-0.5l-2.6-2.1c-0.2-0.1-0.3-0.1-0.5,0.1L35.7,35.4z"/>
						<path style="fill:#00ACC8;" d="M44.1,26.9c0-0.2-0.1-0.4-0.2-0.4c-0.1,0-0.2,0-0.3,0l-0.1,0l-0.3,1.2l-2.9-0.6
							c-0.2,0-0.3,0-0.4,0.3l0,0c0,0.2,0,0.3,0.2,0.4l2.9,0.6l-0.2,1c-0.1,0.2,0.1,0.4,0.2,0.4c0.1,0,0.2,0,0.3,0l0.1,0L44.1,26.9z"
							/>
						<path style="fill:#00ACC8;" d="M33.7,41.6L33.7,41.6c-0.1,0.2-0.2,0.2-0.3,0.3C33.3,42,33.1,42,33,41.8l0,0l-1.9-3l0-0.1
							c0.1-0.1,0.2-0.2,0.2-0.2c0.2-0.1,0.4-0.1,0.5,0.1l0.7,1.2l1.6-1l-0.9-1.4l0-0.1c0.1-0.1,0.2-0.2,0.2-0.2
							c0.2-0.1,0.4-0.1,0.5,0.1l1.9,3l0,0.1c-0.1,0.1-0.2,0.2-0.2,0.2c-0.2,0.1-0.4,0.1-0.5-0.1l0,0l-0.7-1.1l-1.6,1L33.7,41.6z"/>
						<path style="fill:#00ACC8;" d="M41.8,33.5L41.8,33.5c0,0.2,0,0.3-0.1,0.4c-0.1,0.2-0.3,0.3-0.4,0.2l0,0l-3.2-1.5l0-0.1
							c0-0.1,0-0.2,0.1-0.3c0.1-0.2,0.3-0.3,0.4-0.2l1.3,0.6l0.8-1.7l-1.5-0.7l0-0.1c0-0.1,0-0.2,0.1-0.3c0.1-0.2,0.3-0.3,0.4-0.2
							l3.2,1.5l0,0.1c0,0.1,0,0.2-0.1,0.3c-0.1,0.2-0.3,0.3-0.4,0.2l0,0l-1.2-0.5l-0.8,1.7L41.8,33.5z"/>
						<path style="fill:#00ACC8;" d="M4.7,30.2c0.2,0.9,1.1,1.7,2.5,1.3c1.4-0.4,1.7-1.5,1.5-2.4c-0.2-0.9-1.1-1.7-2.5-1.3
							C4.8,28.2,4.5,29.3,4.7,30.2z M8,29.3c0.2,0.6-0.1,1.3-1,1.5c-0.9,0.2-1.5-0.2-1.7-0.8c-0.2-0.6,0.1-1.3,1-1.5
							C7.3,28.2,7.8,28.7,8,29.3z"/>
						<path style="fill:#00ACC8;" d="M15.5,40.6c0.4,0.4,0.5,0.6,0.4,0.8c-0.1,0.3-0.5,0.3-0.9,0.1c-0.5-0.2-0.5-0.5-0.6-0.6l0-0.1
							l-0.1,0c-0.2-0.1-0.4,0-0.5,0.2c-0.2,0.3,0.2,0.7,0.8,1.1c0.8,0.4,1.5,0.2,1.8-0.4c0.3-0.6-0.1-1.2-0.6-1.5
							c-0.5-0.4-0.7-0.7-0.6-1c0.1-0.2,0.5-0.3,1-0.1c0.4,0.2,0.6,0.4,0.6,0.7l0,0.1l0.1,0c0.3,0.1,0.4-0.1,0.5-0.2
							c0.2-0.3-0.2-0.8-0.9-1.2c-0.8-0.4-1.6-0.3-2,0.4C14.4,39.5,14.9,40.1,15.5,40.6z"/>
						<path style="fill:#00ACC8;" d="M12.2,40.4c0.2,0.1,0.4,0.1,0.5,0c0.1-0.1,0.1-0.1,0.1-0.2l0-0.1l-0.9-0.8l1.9-2.3
							c0.1-0.2,0.1-0.3,0-0.5l0,0c-0.2-0.1-0.3-0.1-0.5,0l-1.9,2.3l-0.8-0.6c-0.2-0.1-0.4-0.1-0.5,0C10,38.3,10,38.4,10,38.5l0,0.1
							L12.2,40.4z"/>
						<path style="fill:#00ACC8;" d="M8.7,32.4L8.7,32.4l0.1,0c0.4-0.1,0.7,0.1,1,0.5c0.3,0.5,0.3,1.2-0.5,1.8
							c-0.8,0.5-1.5,0.2-1.8-0.3c-0.3-0.4-0.3-0.8-0.1-1l0.1-0.1l0-0.1c-0.1-0.2-0.4-0.3-0.6-0.2c-0.3,0.2-0.4,0.9,0.1,1.7
							c0.5,0.8,1.5,1.3,2.8,0.5c1.2-0.8,1.2-1.9,0.7-2.7c-0.5-0.7-1.2-1-1.5-0.8C8.6,32,8.5,32.2,8.7,32.4z"/>
						<path style="fill:#00ACC8;" d="M7,26.3c0,0.3,0.2,0.5,0.5,0.5c0.3,0,0.5-0.2,0.5-0.5c0-0.3-0.2-0.5-0.5-0.5
							C7.2,25.9,7,26,7,26.3z"/>
					</g>
				</g>
			</g>
		</g>
	</g>
</g>
</svg>
