<?xml version="1.0" encoding="utf-8"?>
<!-- Generator: Adobe Illustrator 17.0.0, SVG Export Plug-In . SVG Version: 6.00 Build 0)  -->
<!DOCTYPE svg PUBLIC "-//W3C//DTD SVG 1.1//EN" "http://www.w3.org/Graphics/SVG/1.1/DTD/svg11.dtd">
<svg version="1.1" id="Layer_1" xmlns="http://www.w3.org/2000/svg" xmlns:xlink="http://www.w3.org/1999/xlink" x="0px" y="0px"
	 width="48px" height="48px" viewBox="0 0 48 48" enable-background="new 0 0 48 48" xml:space="preserve">
<g>
	<path fill="#FFFFFF" d="M24,0.491C11.037,0.491,0.491,11.037,0.491,24c0,12.963,10.546,23.51,23.509,23.51
		c12.963,0,23.509-10.546,23.509-23.51C47.509,11.037,36.963,0.491,24,0.491z"/>
	<g>
		<g>
			<g>
				<g>
					<polygon fill="#00ACC8" points="25.491,24.312 25.491,24.312 25.491,24.311 					"/>
					<path fill="#00ACC8" d="M33.04,17.609c-4.545,0-7.195,2.39-7.516,5.955c0.237-0.315,0.481-0.622,0.737-0.921
						c0.399-0.462,0.822-0.903,1.272-1.314c0.451-0.41,0.93-0.79,1.448-1.11c0.516-0.319,1.075-0.577,1.663-0.701
						c-0.569,0.191-1.082,0.506-1.544,0.872c-0.464,0.367-0.884,0.786-1.27,1.231c-0.387,0.445-0.744,0.917-1.074,1.403
						c-0.284,0.417-0.548,0.853-0.787,1.287h2.079C33.222,24.312,33.04,21.107,33.04,17.609z"/>
				</g>
				<g>
					<path fill="#00ACC8" d="M20.168,21.621c-0.387-0.444-0.806-0.863-1.27-1.231c-0.464-0.365-0.975-0.681-1.545-0.872
						c0.589,0.124,1.148,0.383,1.665,0.701c0.517,0.319,0.997,0.7,1.447,1.11c0.45,0.411,0.872,0.852,1.272,1.314
						c0.257,0.298,0.5,0.605,0.737,0.92c-0.32-3.565-2.971-5.954-7.516-5.954c0,3.498-0.181,6.702,4.992,6.702h2.08
						c-0.24-0.434-0.506-0.87-0.788-1.287C20.911,22.538,20.555,22.066,20.168,21.621z"/>
				</g>
				<g>
					<path fill="#00ACC8" d="M31.342,30.391c0-2.711-0.301-4.778-3.869-4.778h-1.583c0.192,0.265,0.398,0.528,0.615,0.779
						c0.272,0.314,0.562,0.614,0.869,0.896c0.615,0.559,1.307,1.058,2.112,1.335c-0.835-0.172-1.61-0.59-2.313-1.082
						c-0.352-0.249-0.691-0.519-1.013-0.808c-0.228-0.204-0.445-0.417-0.659-0.64C25.619,28.447,26.702,30.391,31.342,30.391z"/>
				</g>
				<g>
					<path fill="#00ACC8" d="M21.837,26.732c-0.322,0.289-0.66,0.559-1.011,0.808c-0.704,0.493-1.479,0.911-2.314,1.083
						c0.805-0.277,1.496-0.776,2.112-1.335c0.307-0.282,0.597-0.582,0.869-0.896c0.217-0.251,0.423-0.514,0.615-0.779h-1.582
						c-3.568,0-3.87,2.067-3.87,4.778c4.64,0,5.722-1.943,5.84-4.299C22.282,26.314,22.064,26.528,21.837,26.732z"/>
				</g>
				<path fill="#00ACC8" d="M25.381,19.529c0.071-0.138,0.016-0.306-0.121-0.377c-0.138-0.07-0.306-0.016-0.377,0.122L24,20.999
					l-0.883-1.726c-0.071-0.138-0.241-0.192-0.377-0.122c-0.138,0.071-0.192,0.239-0.121,0.377c0,0,1.154,2.245,1.159,2.253
					c-0.133,0.506-0.222,1.012-0.293,1.519c-0.096,0.746-0.141,1.491-0.141,2.237c0.001,0.745,0.047,1.491,0.143,2.236
					c0.104,0.746,0.241,1.491,0.513,2.237c0.272-0.746,0.409-1.491,0.514-2.237c0.096-0.745,0.14-1.491,0.14-2.236
					c0.001-0.746-0.043-1.491-0.139-2.237c-0.071-0.506-0.16-1.012-0.295-1.518C24.226,21.774,25.381,19.529,25.381,19.529z"/>
			</g>
		</g>
		<path fill="#00ACC8" d="M24,48C10.766,48,0,37.234,0,24C0,10.766,10.766,0,24,0c13.234,0,24,10.766,24,24
			C48,37.234,37.234,48,24,48z M24,1.038C11.338,1.038,1.038,11.338,1.038,24c0,12.662,10.3,22.962,22.961,22.962
			c12.662,0,22.962-10.301,22.962-22.962C46.962,11.338,36.661,1.038,24,1.038z"/>
		<path fill="#00ACC8" d="M24,37.991c-7.714,0-13.99-6.277-13.99-13.991S16.286,10.01,24,10.01S37.99,16.286,37.99,24
			S31.714,37.991,24,37.991z M24,11.066c-7.132,0-12.934,5.802-12.934,12.934c0,7.132,5.802,12.935,12.934,12.935
			S36.934,31.132,36.934,24C36.934,16.868,31.132,11.066,24,11.066z"/>
		<g>
			<g>
				<g>
					<g>
						<path fill="#00ACC8" d="M18.414,4.53c-0.914,0.269-1.658,1.144-1.262,2.497c0.393,1.342,1.492,1.672,2.406,1.404
							c0.915-0.268,1.661-1.14,1.267-2.481C20.429,4.597,19.329,4.262,18.414,4.53z M19.376,7.807
							c-0.577,0.169-1.28-0.07-1.548-0.984c-0.269-0.918,0.193-1.5,0.77-1.669c0.577-0.169,1.279,0.071,1.549,0.989
							C20.414,7.057,19.953,7.637,19.376,7.807z"/>
						<path fill="#00ACC8" d="M22.228,7.479c0,0.185,0.145,0.309,0.36,0.309c0.115,0,0.207-0.027,0.28-0.081l0.06-0.046l0.001-0.813
							l0.001-1.849l1.688,2.46c0.098,0.142,0.255,0.331,0.496,0.331l0.072,0c0.196,0,0.328-0.152,0.328-0.378l0.002-2.833l0-0.457
							c0-0.185-0.144-0.309-0.36-0.309c-0.115,0-0.207,0.027-0.28,0.081l-0.06,0.045l-0.002,2.619l-1.691-2.462
							c-0.122-0.194-0.264-0.285-0.449-0.285l-0.11,0c-0.205,0-0.333,0.147-0.334,0.383l-0.002,2.653L22.228,7.479z"/>
						<path fill="#00ACC8" d="M29.248,8.577l0.05-0.03c0.069-0.043,0.115-0.116,0.142-0.228c0.059-0.247-0.074-0.371-0.207-0.403
							L27.56,7.515l0.257-1.071l0.879,0.211c0.198,0.047,0.334-0.036,0.381-0.235c0.049-0.202-0.034-0.34-0.232-0.387l-0.879-0.211
							l0.223-0.931l1.673,0.401c0.133,0.032,0.308-0.019,0.367-0.265c0.027-0.111,0.019-0.198-0.023-0.267l-0.031-0.05l-1.94-0.465
							l-0.264-0.063c-0.206-0.049-0.346,0.035-0.394,0.237L26.8,7.658c-0.049,0.202,0.038,0.341,0.244,0.39L29.248,8.577z"/>
						<path fill="#00ACC8" d="M12.31,12.626l-0.005-0.059c-0.008-0.08-0.056-0.154-0.144-0.226
							c-0.197-0.161-0.366-0.094-0.453,0.011l-1.089,1.333l-0.852-0.697l0.571-0.7c0.128-0.158,0.112-0.317-0.046-0.445
							c-0.161-0.131-0.321-0.117-0.45,0.041l-0.571,0.7L8.53,11.979l1.088-1.333c0.086-0.105,0.117-0.285-0.079-0.446
							c-0.089-0.072-0.17-0.103-0.251-0.095l-0.058,0.006l-1.262,1.546l-0.172,0.21c-0.134,0.164-0.119,0.326,0.042,0.458
							l2.581,2.107c0.161,0.132,0.324,0.114,0.457-0.051L12.31,12.626z"/>
						<path fill="#00ACC8" d="M3.927,21.1c-0.05,0.228,0.082,0.365,0.235,0.398c0.086,0.019,0.168,0.017,0.254-0.005l0.084-0.021
							l0.26-1.188l2.945,0.643c0.2,0.044,0.341-0.047,0.385-0.251l0.011-0.049c0.045-0.206-0.041-0.345-0.245-0.389l-2.945-0.643
							l0.209-0.958c0.05-0.228-0.082-0.365-0.235-0.398C4.8,18.22,4.716,18.222,4.632,18.243l-0.085,0.022L3.927,21.1z"/>
						<path fill="#00ACC8" d="M14.281,6.39l0.043-0.077c0.055-0.097,0.166-0.173,0.212-0.201c0.177-0.109,0.356-0.075,0.454,0.086
							l0.009,0.014l1.859,3.018l-0.043,0.077c-0.055,0.098-0.166,0.173-0.211,0.201c-0.178,0.109-0.355,0.075-0.455-0.085
							l-0.747-1.212L13.796,9.2l0.855,1.389l-0.043,0.078c-0.055,0.098-0.166,0.173-0.211,0.201
							c-0.177,0.11-0.356,0.076-0.455-0.085l-1.868-3.032l0.043-0.078c0.055-0.097,0.166-0.173,0.211-0.2
							c0.177-0.11,0.356-0.076,0.455,0.085l0.009,0.015l0.668,1.085l1.606-0.989L14.281,6.39z"/>
						<path fill="#00ACC8" d="M6.228,14.521l-0.006-0.089c-0.007-0.111,0.045-0.235,0.068-0.283c0.09-0.188,0.258-0.257,0.428-0.176
							l0.015,0.007l3.203,1.52l0.006,0.088c0.007,0.112-0.045,0.236-0.068,0.284c-0.089,0.188-0.258,0.257-0.428,0.177l-1.286-0.611
							L7.35,17.141l1.474,0.7l0.005,0.089c0.007,0.112-0.045,0.235-0.068,0.284c-0.089,0.188-0.257,0.256-0.428,0.176l-3.217-1.527
							l-0.006-0.089c-0.007-0.112,0.045-0.236,0.068-0.283c0.089-0.188,0.257-0.257,0.428-0.176l0.015,0.007l1.151,0.546
							l0.809-1.703L6.228,14.521z"/>
						<path fill="#00ACC8" d="M43.293,17.823c-0.247-0.92-1.106-1.684-2.467-1.318c-1.351,0.362-1.706,1.453-1.458,2.373
							c0.247,0.92,1.101,1.685,2.451,1.322C43.181,19.834,43.541,18.742,43.293,17.823z M39.996,18.709
							c-0.156-0.58,0.098-1.278,1.018-1.525c0.924-0.248,1.495,0.226,1.651,0.807c0.156,0.581-0.1,1.278-1.024,1.527
							C40.721,19.765,40.152,19.29,39.996,18.709z"/>
						<path fill="#00ACC8" d="M32.529,7.449c-0.431-0.381-0.541-0.579-0.436-0.787c0.133-0.263,0.497-0.31,0.886-0.113
							c0.463,0.234,0.539,0.481,0.55,0.576L33.538,7.2l0.073,0.021c0.202,0.056,0.378-0.01,0.459-0.17
							c0.157-0.311-0.168-0.737-0.808-1.062c-0.755-0.383-1.522-0.229-1.823,0.366c-0.323,0.637,0.137,1.151,0.573,1.527
							c0.504,0.435,0.716,0.697,0.558,1.009c-0.114,0.225-0.477,0.345-1.003,0.078c-0.37-0.188-0.578-0.437-0.574-0.685l0.001-0.091
							l-0.089-0.02c-0.305-0.07-0.441,0.058-0.501,0.178c-0.176,0.347,0.185,0.833,0.877,1.184c0.822,0.417,1.624,0.257,1.951-0.388
							C33.579,8.462,33.051,7.911,32.529,7.449z"/>
						<path fill="#00ACC8" d="M35.789,7.569c-0.181-0.148-0.363-0.092-0.462,0.029c-0.055,0.068-0.091,0.142-0.11,0.228
							l-0.019,0.085l0.942,0.77l-1.907,2.335c-0.129,0.159-0.112,0.325,0.05,0.457l0.039,0.032c0.163,0.134,0.326,0.118,0.458-0.043
							l1.907-2.334l0.76,0.62c0.181,0.148,0.363,0.092,0.462-0.029c0.055-0.068,0.091-0.142,0.111-0.228l0.019-0.085L35.789,7.569z"
							/>
						<path fill="#00ACC8" d="M39.341,15.56l-0.042-0.067l-0.076,0.018c-0.392,0.085-0.707-0.083-0.992-0.527
							c-0.3-0.47-0.343-1.214,0.525-1.769c0.85-0.545,1.488-0.213,1.803,0.279c0.278,0.433,0.297,0.761,0.062,1.032l-0.055,0.064
							l0.045,0.07c0.141,0.22,0.372,0.289,0.562,0.167c0.348-0.222,0.423-0.931-0.061-1.688c-0.483-0.754-1.493-1.349-2.751-0.544
							c-1.187,0.76-1.193,1.922-0.672,2.735c0.476,0.744,1.182,0.997,1.543,0.767C39.42,15.976,39.465,15.754,39.341,15.56z"/>
						<path fill="#00ACC8" d="M40.968,21.683c0.002-0.27-0.197-0.475-0.464-0.478c-0.267-0.002-0.47,0.199-0.473,0.469
							c-0.002,0.267,0.197,0.47,0.464,0.473C40.762,22.15,40.965,21.95,40.968,21.683z"/>
					</g>
					<g>
						<path fill="#00ACC8" d="M29.586,43.47c0.914-0.269,1.658-1.144,1.262-2.497c-0.393-1.342-1.492-1.672-2.406-1.404
							c-0.915,0.268-1.66,1.14-1.267,2.481C27.571,43.403,28.671,43.738,29.586,43.47z M28.624,40.193
							c0.577-0.169,1.28,0.07,1.548,0.984c0.269,0.918-0.193,1.5-0.77,1.669c-0.577,0.169-1.279-0.071-1.549-0.989
							C27.586,40.943,28.047,40.363,28.624,40.193z"/>
						<path fill="#00ACC8" d="M25.772,40.521c0-0.185-0.145-0.309-0.36-0.309c-0.115,0-0.207,0.027-0.28,0.081l-0.06,0.046
							l-0.001,0.813l-0.001,1.849l-1.688-2.46c-0.098-0.142-0.255-0.331-0.496-0.331l-0.071,0c-0.196,0-0.328,0.152-0.328,0.378
							l-0.002,2.833l0,0.457c0,0.185,0.144,0.309,0.36,0.309c0.115,0,0.207-0.027,0.28-0.081l0.06-0.045l0.002-2.619l1.691,2.462
							c0.122,0.194,0.264,0.285,0.449,0.285l0.11,0c0.205,0,0.333-0.147,0.334-0.383l0.002-2.653L25.772,40.521z"/>
						<path fill="#00ACC8" d="M18.752,39.423l-0.05,0.03c-0.069,0.043-0.115,0.116-0.142,0.228
							c-0.059,0.247,0.074,0.371,0.207,0.403l1.673,0.402l-0.257,1.071l-0.879-0.211c-0.198-0.047-0.334,0.036-0.381,0.235
							c-0.049,0.202,0.034,0.34,0.232,0.387l0.879,0.211l-0.223,0.931l-1.673-0.401c-0.133-0.032-0.308,0.019-0.367,0.265
							c-0.027,0.111-0.019,0.198,0.023,0.267l0.031,0.05l1.94,0.465l0.264,0.063c0.206,0.049,0.346-0.035,0.394-0.237l0.777-3.24
							c0.049-0.202-0.038-0.341-0.244-0.39L18.752,39.423z"/>
						<path fill="#00ACC8" d="M35.69,35.374l0.005,0.059c0.008,0.08,0.056,0.154,0.144,0.226c0.197,0.161,0.366,0.094,0.453-0.011
							l1.089-1.333l0.852,0.697l-0.571,0.7c-0.128,0.158-0.113,0.317,0.046,0.445c0.161,0.131,0.321,0.117,0.45-0.041l0.571-0.7
							l0.742,0.605l-1.088,1.333c-0.086,0.105-0.117,0.285,0.08,0.446c0.089,0.072,0.17,0.103,0.251,0.095l0.058-0.006l1.262-1.546
							l0.172-0.21c0.134-0.164,0.119-0.326-0.042-0.458l-2.581-2.107c-0.161-0.132-0.324-0.114-0.457,0.051L35.69,35.374z"/>
						<path fill="#00ACC8" d="M44.073,26.9c0.05-0.229-0.082-0.365-0.235-0.398c-0.086-0.019-0.168-0.017-0.254,0.005l-0.084,0.021
							l-0.26,1.188l-2.945-0.643c-0.2-0.044-0.341,0.047-0.385,0.251l-0.011,0.049c-0.045,0.206,0.041,0.345,0.245,0.389
							l2.945,0.643l-0.209,0.958c-0.05,0.228,0.082,0.365,0.235,0.398c0.085,0.019,0.168,0.017,0.253-0.004l0.085-0.022L44.073,26.9
							z"/>
						<path fill="#00ACC8" d="M33.719,41.61l-0.043,0.077c-0.055,0.097-0.166,0.173-0.212,0.201
							c-0.177,0.109-0.356,0.075-0.454-0.086l-0.009-0.014l-1.859-3.018l0.043-0.077c0.055-0.098,0.166-0.173,0.211-0.201
							c0.178-0.109,0.355-0.075,0.455,0.086l0.747,1.212l1.606-0.989l-0.855-1.389l0.043-0.078c0.055-0.098,0.166-0.173,0.211-0.201
							c0.177-0.11,0.356-0.076,0.455,0.085l1.868,3.032l-0.043,0.078c-0.055,0.097-0.166,0.173-0.211,0.2
							c-0.177,0.11-0.356,0.076-0.455-0.085l-0.009-0.015l-0.668-1.085l-1.606,0.989L33.719,41.61z"/>
						<path fill="#00ACC8" d="M41.772,33.479l0.006,0.089c0.007,0.111-0.045,0.235-0.068,0.283c-0.09,0.188-0.258,0.257-0.428,0.176
							l-0.015-0.007l-3.203-1.52l-0.006-0.088c-0.007-0.112,0.045-0.236,0.068-0.284c0.089-0.188,0.258-0.257,0.428-0.177
							l1.286,0.611l0.809-1.703l-1.474-0.7l-0.005-0.089c-0.007-0.112,0.045-0.235,0.067-0.284c0.089-0.188,0.258-0.256,0.428-0.176
							l3.217,1.528l0.006,0.089c0.007,0.112-0.045,0.236-0.068,0.283c-0.089,0.188-0.257,0.257-0.428,0.176l-0.015-0.007
							l-1.151-0.546l-0.809,1.703L41.772,33.479z"/>
						<path fill="#00ACC8" d="M4.706,30.177c0.247,0.92,1.106,1.685,2.467,1.318c1.351-0.362,1.706-1.453,1.458-2.373
							C8.384,28.202,7.53,27.437,6.18,27.8C4.819,28.166,4.459,29.258,4.706,30.177z M8.004,29.291
							c0.156,0.58-0.098,1.278-1.018,1.525c-0.924,0.248-1.495-0.226-1.651-0.807c-0.156-0.581,0.1-1.278,1.024-1.527
							C7.279,28.235,7.848,28.71,8.004,29.291z"/>
						<path fill="#00ACC8" d="M15.471,40.551c0.431,0.381,0.541,0.58,0.436,0.787c-0.133,0.263-0.497,0.31-0.886,0.113
							c-0.463-0.234-0.539-0.481-0.55-0.576L14.462,40.8l-0.073-0.021c-0.202-0.056-0.378,0.01-0.459,0.17
							c-0.157,0.311,0.168,0.737,0.808,1.062c0.755,0.383,1.522,0.229,1.823-0.366c0.323-0.637-0.137-1.151-0.573-1.528
							c-0.504-0.435-0.716-0.697-0.558-1.009c0.114-0.225,0.477-0.345,1.003-0.078c0.37,0.188,0.578,0.437,0.574,0.685l-0.001,0.091
							l0.089,0.02c0.305,0.07,0.441-0.058,0.501-0.178c0.176-0.347-0.185-0.833-0.877-1.184c-0.822-0.417-1.624-0.257-1.951,0.388
							C14.421,39.538,14.949,40.089,15.471,40.551z"/>
						<path fill="#00ACC8" d="M12.211,40.431c0.181,0.148,0.363,0.092,0.462-0.029c0.055-0.068,0.091-0.142,0.11-0.228l0.019-0.085
							l-0.942-0.77l1.907-2.335c0.129-0.159,0.112-0.325-0.05-0.457l-0.039-0.032c-0.163-0.134-0.326-0.118-0.458,0.043
							l-1.907,2.334l-0.76-0.62c-0.181-0.148-0.362-0.092-0.462,0.029c-0.055,0.068-0.091,0.142-0.111,0.228l-0.019,0.085
							L12.211,40.431z"/>
						<path fill="#00ACC8" d="M8.659,32.44l0.042,0.067l0.076-0.018c0.392-0.085,0.707,0.083,0.992,0.527
							c0.3,0.47,0.343,1.214-0.525,1.769c-0.85,0.545-1.488,0.213-1.803-0.279c-0.278-0.433-0.297-0.761-0.062-1.032l0.055-0.064
							l-0.045-0.07c-0.141-0.22-0.372-0.289-0.562-0.167c-0.348,0.222-0.423,0.931,0.061,1.688c0.483,0.754,1.493,1.349,2.751,0.544
							c1.187-0.76,1.193-1.922,0.672-2.735c-0.477-0.744-1.182-0.997-1.543-0.767C8.58,32.024,8.535,32.246,8.659,32.44z"/>
						<path fill="#00ACC8" d="M7.032,26.317c-0.002,0.27,0.197,0.475,0.465,0.478c0.267,0.002,0.47-0.199,0.472-0.469
							c0.002-0.267-0.197-0.47-0.464-0.472C7.238,25.85,7.035,26.05,7.032,26.317z"/>
					</g>
				</g>
			</g>
		</g>
	</g>
</g>
</svg>
