<?xml version="1.0" encoding="utf-8"?>
<!-- Generator: Adobe Illustrator 17.0.0, SVG Export Plug-In . SVG Version: 6.00 Build 0)  -->
<!DOCTYPE svg PUBLIC "-//W3C//DTD SVG 1.1//EN" "http://www.w3.org/Graphics/SVG/1.1/DTD/svg11.dtd">
<svg version="1.1" id="Layer_1" xmlns="http://www.w3.org/2000/svg" xmlns:xlink="http://www.w3.org/1999/xlink" x="0px" y="0px"
	 width="48px" height="48px" viewBox="0 0 48 48" style="enable-background:new 0 0 48 48;" xml:space="preserve">
<g>
	<path style="fill:#D7C300;" d="M13.7,37.7c-2.8,0-5.1,2.3-5.1,5.1c0,2.8,2.3,5.1,5.1,5.1c2.8,0,5.1-2.3,5.1-5.1
		C18.9,40,16.6,37.7,13.7,37.7 M13.7,41.1c0.9,0,1.7,0.8,1.7,1.7c0,0.9-0.8,1.7-1.7,1.7c-0.9,0-1.7-0.8-1.7-1.7
		C12,41.9,12.8,41.1,13.7,41.1"/>
	<path style="fill:#D7C300;" d="M41.1,37.7c-2.8,0-5.1,2.3-5.1,5.1c0,2.8,2.3,5.1,5.1,5.1c2.8,0,5.1-2.3,5.1-5.1
		C46.3,40,44,37.7,41.1,37.7 M41.1,41.1c0.9,0,1.7,0.8,1.7,1.7c0,0.9-0.8,1.7-1.7,1.7c-0.9,0-1.7-0.8-1.7-1.7
		C39.4,41.9,40.2,41.1,41.1,41.1"/>
	<path style="fill:#D7C300;" d="M37.7,22.3c0,0.9-0.8,1.7-1.7,1.7h-3.4c-0.9,0-1.7-0.8-1.7-1.7v-3.4c0-0.9,0.8-1.7,1.7-1.7H36
		c0.9,0,1.7,0.8,1.7,1.7V22.3z"/>
	<path style="fill:#D7C300;" d="M37.7,13.7c0,0.9-0.8,1.7-1.7,1.7h-3.4c-0.9,0-1.7-0.8-1.7-1.7v-3.4c0-0.9,0.8-1.7,1.7-1.7H36
		c0.9,0,1.7,0.8,1.7,1.7V13.7z"/>
	<path style="fill:#D7C300;" d="M29.1,5.1c0,0.9-0.8,1.7-1.7,1.7H24c-0.9,0-1.7-0.8-1.7-1.7V1.7C22.3,0.8,23.1,0,24,0l3.4,0
		c0.9,0,1.7,0.8,1.7,1.7V5.1z"/>
	<path style="fill:#D7C300;" d="M46.3,22.3c0,0.9-0.8,1.7-1.7,1.7h-3.4c-0.9,0-1.7-0.8-1.7-1.7v-3.4c0-0.9,0.8-1.7,1.7-1.7h3.4
		c0.9,0,1.7,0.8,1.7,1.7V22.3z"/>
	<path style="fill:#D7C300;" d="M46.3,27.4c0-0.9-0.8-1.7-1.7-1.7h-12c-0.9,0-1.7,0.8-1.7,1.7v3.4c0,0.9,0.8,1.7,1.7,1.7h12
		c0.9,0,1.7-0.8,1.7-1.7V27.4z"/>
	<path style="fill:#D7C300;" d="M29.1,10.3c0-0.9-0.8-1.7-1.7-1.7h-12c-0.9,0-1.7,0.8-1.7,1.7v3.4c0,0.9,0.8,1.7,1.7,1.7h12
		c0.9,0,1.7-0.8,1.7-1.7V10.3z"/>
	<path style="fill:#D7C300;" d="M29.1,30.9c0,0.9-0.8,1.7-1.7,1.7h-12c-0.9,0-1.7-0.8-1.7-1.7v-12c0-0.9,0.8-1.7,1.7-1.7h12
		c0.9,0,1.7,0.8,1.7,1.7V30.9z"/>
	<path style="fill:#D7C300;" d="M12,34.3V15.4V12H8.6H6.9H5.1H3.4c-0.9,0-1.7,0.8-1.7,1.7c0,0.9,0.8,1.7,1.7,1.7h1.7h1.7h1.7v18.9
		v3.4H12h34.3v-3.4H12z"/>
</g>
</svg>
