<?xml version="1.0" encoding="utf-8"?>
<!-- Generator: Adobe Illustrator 17.1.0, SVG Export Plug-In . SVG Version: 6.00 Build 0)  -->
<!DOCTYPE svg PUBLIC "-//W3C//DTD SVG 1.1//EN" "http://www.w3.org/Graphics/SVG/1.1/DTD/svg11.dtd">
<svg version="1.1" id="Layer_1" xmlns="http://www.w3.org/2000/svg" xmlns:xlink="http://www.w3.org/1999/xlink" x="0px" y="0px"
	 viewBox="0 0 48 48" enable-background="new 0 0 48 48" xml:space="preserve">
<g>
	<path fill="#F15E24" d="M14.683,12.789c-0.496,0-0.992,0.189-1.37,0.567c-0.758,0.758-0.757,1.985,0.001,2.742
		c0.379,0.379,0.875,0.569,1.371,0.569c0.495,0,0.991-0.189,1.37-0.569c0.756-0.756,0.757-1.984,0-2.741
		C15.677,12.979,15.18,12.789,14.683,12.789z"/>
	<path fill="#F15E24" d="M24,0C10.745,0,0,10.745,0,24s10.745,24,24,24s24-10.745,24-24S37.255,0,24,0z M37.768,27.198
		L27.189,37.777c-0.174,0.174-0.403,0.261-0.632,0.261c-0.23,0-0.458-0.087-0.632-0.261L11.388,23.241
		c-0.348-0.348-0.668-1.033-0.711-1.523l-0.7-7.883c-0.044-0.489,0.205-1.174,0.552-1.522l1.794-1.794
		c0.32-0.321,0.927-0.557,1.404-0.557c0.04,0,0.08,0.002,0.118,0.005l7.862,0.716c0.491,0.044,1.175,0.365,1.523,0.713
		l14.537,14.536C38.115,26.281,38.115,26.85,37.768,27.198z"/>
</g>
</svg>
