<?xml version="1.0" encoding="utf-8"?>
<!-- Generator: Adobe Illustrator 18.0.0, SVG Export Plug-In . SVG Version: 6.00 Build 0)  -->
<!DOCTYPE svg PUBLIC "-//W3C//DTD SVG 1.1//EN" "http://www.w3.org/Graphics/SVG/1.1/DTD/svg11.dtd">
<svg version="1.1" id="Layer_1" xmlns="http://www.w3.org/2000/svg" xmlns:xlink="http://www.w3.org/1999/xlink" x="0px" y="0px"
	 viewBox="0 0 50 50" enable-background="new 0 0 50 50" xml:space="preserve">
<path id="google-plus-circle-icon_1_" fill="#F63E28" d="M27,33.7c0,2.4-1.9,4.2-5.9,4.2c-3.1,0-5.3-2-5.3-4.3
	c0-2.3,2.6-4.3,5.7-4.3C24.9,29.3,27,31.5,27,33.7z M49,25c0,13.3-10.7,24-24,24S1,38.3,1,25S11.7,1,25,1S49,11.7,49,25z M29.6,33.4
	c0-2.2-0.8-3.6-3.3-5.4c-2.5-1.8-3.1-2.8-0.7-4.7c1.3-1,2.3-2.4,2.3-4.1c0-1.9-0.8-3.5-2.2-4.4h2l1.7-1.8c0,0-6.5,0-7.7,0
	c-4.8,0-7.2,2.9-7.2,6.1c0,3.2,2.2,5.8,6.6,5.8c-0.7,1.4-0.4,2.6,0.7,3.5c-7.4,0-9,3.3-9,5.8c0,3.3,3.7,5.2,8.2,5.2
	C27.2,39.3,29.6,36.1,29.6,33.4z M39.7,16.9h-3.6v-3.6h-1.8v3.6h-3.6v1.8h3.6v3.6h1.8v-3.6h3.6V16.9z M24.8,19.3
	c-0.4-2.7-2.1-5-4.2-5c-2.1-0.1-3.5,2-3.1,4.8s2.3,4.6,4.4,4.7C24,23.8,25.2,22,24.8,19.3z"/>
</svg>
