<?xml version="1.0" encoding="utf-8"?>
<!-- Generator: Adobe Illustrator 18.1.1, SVG Export Plug-In . SVG Version: 6.00 Build 0)  -->
<!DOCTYPE svg PUBLIC "-//W3C//DTD SVG 1.1//EN" "http://www.w3.org/Graphics/SVG/1.1/DTD/svg11.dtd">
<svg version="1.1" id="Layer_1" xmlns="http://www.w3.org/2000/svg" xmlns:xlink="http://www.w3.org/1999/xlink" x="0px" y="0px"
	 viewBox="0 0 48 48" style="enable-background:new 0 0 48 48;" xml:space="preserve">
<g>
	<path style="fill:#02ACC8;" d="M30.4,13.3c0-0.4-0.2-0.6-0.2-0.7c-0.3-0.3-0.7-0.3-0.9-0.3c-0.8,0-1.6,0.4-2.3,1
		c-1.2,1.2-1.7,2.9-1.5,3.3c0,0,0,0,0,0c0,0,0.2,0.1,0.5,0.1c1.1,0,2.5-0.6,3.4-1.5C30.1,14.5,30.4,13.8,30.4,13.3z"/>
	<path style="fill:#02ACC8;" d="M18.8,12.4c-0.2,0-0.6,0-0.9,0.3c-0.1,0.1-0.2,0.2-0.2,0.7c0,0.5,0.3,1.2,1,1.9
		c0.9,0.8,2.4,1.5,3.4,1.5c0.4,0,0.5-0.1,0.5-0.1c0.2-0.3-0.3-2.1-1.5-3.3C20.4,12.7,19.6,12.4,18.8,12.4z"/>
	<path style="fill:#02ACC8;" d="M24,0C10.7,0,0,10.7,0,24s10.7,24,24,24s24-10.7,24-24S37.3,0,24,0z M23,37.7h-9c-1.1,0-2-0.9-2-2
		v-7h11V37.7z M36,35.7c0,1.1-0.9,2-2,2h-9v-9h11V35.7z M36,26.7H25v-8.1c-0.4-0.1-0.7-0.3-0.9-0.5c0,0,0,0-0.1-0.1c0,0,0,0-0.1,0.1
		c-0.3,0.2-0.6,0.4-0.9,0.5v8.1H12v-7c0-1.1,0.9-2,2-2h4.6c-0.5-0.3-1-0.6-1.4-1c-1.9-1.7-2.2-4.2-0.7-5.6c0.6-0.6,1.4-0.8,2.3-0.8
		c1.2,0,2.6,0.5,3.7,1.5c0.6,0.6,1.2,1.3,1.5,2.1c0.4-0.8,0.9-1.5,1.5-2.1c1.1-1,2.4-1.5,3.7-1.5c0.9,0,1.7,0.3,2.3,0.8
		c1.4,1.3,1.1,3.8-0.7,5.6c-0.4,0.4-0.9,0.7-1.4,1H34c1.1,0,2,0.9,2,2V26.7z"/>
</g>
</svg>
