<?xml version="1.0" encoding="utf-8"?>
<!-- Generator: Adobe Illustrator 17.1.0, SVG Export Plug-In . SVG Version: 6.00 Build 0)  -->
<!DOCTYPE svg PUBLIC "-//W3C//DTD SVG 1.1//EN" "http://www.w3.org/Graphics/SVG/1.1/DTD/svg11.dtd">
<svg version="1.1" id="Layer_1" xmlns="http://www.w3.org/2000/svg" xmlns:xlink="http://www.w3.org/1999/xlink" x="0px" y="0px"
	 viewBox="0 0 48 48" enable-background="new 0 0 48 48" xml:space="preserve">
<path fill="#00ACC8" d="M37.274,18.669c1.945-1.937,4.025-3.434,6.015-5.239l0.045-0.264c-4.252-2.422-8.457-4.887-12.8-7.222
	c-2.26,1.761-4.386,3.655-6.693,5.416l-6.739-5.24l-12.98,7.221c-0.136,0.176-0.588,0.22-0.362,0.528l6.556,5.283v0.221
	l-8.502,3.655L1.5,23.292l0.09,0.088l10.9,6.164l1.854,0.925c3.166-1.235,6.287-2.729,9.498-4.007
	c3.211,0.968,6.378,2.246,9.634,3.258l12.664-7.22l0.361-0.353C43.515,20.826,40.214,19.99,37.274,18.669z M23.707,25.801
	c-3.891-2.069-7.825-4.269-11.578-6.427v-0.177c3.844-2.245,7.778-4.359,11.713-6.56l0.497,0.132l10.945,6.252l0.045,0.132
	C31.484,21.443,27.686,23.601,23.707,25.801z M36.415,29.412l-2.939,1.585l-8.685-2.95l-0.18,0.177l0.091,13.604
	c0,0.088,0.09,0.264,0.271,0.221l11.488-6.517l0.134-0.309l-0.044-5.635L36.415,29.412z M22.983,28.224
	c-2.94,1.277-5.924,2.422-8.865,3.741c-1.176-0.484-2.307-1.319-3.482-1.849l-0.135,0.088v4.844l0.09,0.264l12.255,6.738h0.271
	l0.047-0.176l-0.047-13.518L22.983,28.224z"/>
</svg>
