<?xml version="1.0" encoding="utf-8"?>
<!-- Generator: Adobe Illustrator 17.0.0, SVG Export Plug-In . SVG Version: 6.00 Build 0)  -->
<!DOCTYPE svg PUBLIC "-//W3C//DTD SVG 1.1//EN" "http://www.w3.org/Graphics/SVG/1.1/DTD/svg11.dtd">
<svg version="1.1" id="Layer_1" xmlns="http://www.w3.org/2000/svg" xmlns:xlink="http://www.w3.org/1999/xlink" x="0px" y="0px"
	 width="48px" height="48px" viewBox="0 0 48 48" style="enable-background:new 0 0 48 48;" xml:space="preserve">
<style type="text/css">
	.st0{fill:#00ACC8;}
</style>
<path class="st0" d="M28.7,25.5v2.9c0.5,0.2,1.1,0.5,1.8,0.8c0.7,0.3,1.4,0.6,2.1,0.9c0.7,0.3,1.4,0.6,2.2,0.9
	c0.7,0.3,1.4,0.6,2.1,0.9c0.7,0.3,1.3,0.5,1.8,0.7c0.5,0.2,1,0.4,1.3,0.5c0.7,0.2,1.3,0.6,1.7,1.1c0.4,0.5,0.8,1,1,1.5
	c0.3,0.6,0.5,1.3,0.6,1.9v3.1H4.8v-3.1c0.1-0.7,0.4-1.3,0.7-1.9c0.2-0.5,0.6-1,1-1.5c0.4-0.5,1-0.9,1.7-1.1c0.3-0.1,0.8-0.3,1.4-0.5
	c0.6-0.2,1.2-0.5,1.9-0.8c0.7-0.3,1.4-0.6,2.2-0.9c0.8-0.3,1.5-0.7,2.3-1c0.8-0.3,1.5-0.6,2.2-0.9c0.7-0.3,1.3-0.6,1.8-0.8v-2.8
	c0-0.1-0.1-0.3-0.2-0.6c-0.1-0.3-0.2-0.5-0.2-0.8c-0.1-0.3-0.2-0.7-0.3-1.1c-0.5-0.9-0.9-1.9-1.1-3c-0.3-1.1-0.4-2.3-0.4-3.6
	c0-1.7,0.2-3.1,0.5-4.2c0.4-1.2,0.8-2.1,1.4-2.8C20,8.5,20.8,8,21.6,7.6c0.8-0.3,1.7-0.5,2.6-0.5c0.9,0,1.8,0.2,2.6,0.5
	c0.8,0.3,1.5,0.8,2.2,1.6c0.6,0.7,1.1,1.7,1.5,2.8c0.4,1.2,0.5,2.6,0.5,4.3c0,1.2-0.1,2.4-0.4,3.5c-0.3,1.1-0.6,2.1-1.1,3
	c-0.1,0.4-0.3,0.8-0.4,1.2c-0.1,0.3-0.2,0.6-0.3,0.9C28.7,25.1,28.7,25.4,28.7,25.5z"/>
</svg>
