<?xml version="1.0" encoding="utf-8"?>
<!-- Generator: Adobe Illustrator 17.0.0, SVG Export Plug-In . SVG Version: 6.00 Build 0)  -->
<!DOCTYPE svg PUBLIC "-//W3C//DTD SVG 1.1//EN" "http://www.w3.org/Graphics/SVG/1.1/DTD/svg11.dtd">
<svg version="1.1" id="Layer_1" xmlns="http://www.w3.org/2000/svg" xmlns:xlink="http://www.w3.org/1999/xlink" x="0px" y="0px"
	 width="48px" height="48px" viewBox="0 0 48 48" style="enable-background:new 0 0 48 48;" xml:space="preserve">
<style type="text/css">
	.st0{fill:#CCCCCC;}
</style>
<path class="st0" d="M44,12.4V10H4v2.4H2.8v8H4c0,0.5,0,0.9,0,1.4c0,0.7,0.5,1.3,1.2,1.6c4.9,1.9,8.9,5.7,11,10.4
	c1,2.2,2.8,4.1,5.2,4.2c0.8,0,1.6,0.1,2.5,0.1c0.9,0,1.7,0,2.5-0.1c2.4-0.1,4.2-2,5.2-4.2c2.2-4.8,6.1-8.5,11-10.4
	c0.7-0.3,1.2-0.9,1.2-1.6c0-0.4,0-0.9,0-1.4h1.2v-8H44z M12,19.2H4v-5.6h8V19.2z M44,19.2h-8v-5.6h8V19.2z"/>
</svg>
