<?xml version="1.0" encoding="utf-8"?>
<!-- Generator: Adobe Illustrator 17.0.0, SVG Export Plug-In . SVG Version: 6.00 Build 0)  -->
<!DOCTYPE svg PUBLIC "-//W3C//DTD SVG 1.1//EN" "http://www.w3.org/Graphics/SVG/1.1/DTD/svg11.dtd">
<svg version="1.1" id="Layer_1" xmlns="http://www.w3.org/2000/svg" xmlns:xlink="http://www.w3.org/1999/xlink" x="0px" y="0px"
	 width="48px" height="48px" viewBox="0 0 48 48" style="enable-background:new 0 0 48 48;" xml:space="preserve">
<style type="text/css">
	.st0{fill:#CCCCCC;}
</style>
<g>
	<path class="st0" d="M21.5,23.2v3.6h11.2v-3.6c0-5.2,8.3-8.5,8.3-8.5c-4.7-9.1-13.9-8.5-13.9-8.5H12.5v8.5
		C21.3,14.7,21.5,23.2,21.5,23.2z"/>
	<path class="st0" d="M7.7,14.9h3.5V6.2H7.7C7.3,6.2,6.9,6.6,6.9,7v7.1C6.9,14.5,7.3,14.9,7.7,14.9z"/>
	<path class="st0" d="M8.2,29.6c-0.3,0.4,0.2,1.2,1,1.7c0.8,0.5,1.7,0.6,2,0.1l5.6-9H20c0-4.7-6.7-6.9-6.7-6.9v5.9L8.2,29.6z"/>
	<path class="st0" d="M38.6,41.8v-5.7c0-4.3-3.5-7.9-7.9-7.9h-8c-4.3,0-7.9,3.5-7.9,7.9v5.7H38.6z"/>
</g>
</svg>
