<?xml version="1.0" encoding="utf-8"?>
<!-- Generator: Adobe Illustrator 17.1.0, SVG Export Plug-In . SVG Version: 6.00 Build 0)  -->
<!DOCTYPE svg PUBLIC "-//W3C//DTD SVG 1.1//EN" "http://www.w3.org/Graphics/SVG/1.1/DTD/svg11.dtd">
<svg version="1.1" id="Layer_1" xmlns="http://www.w3.org/2000/svg" xmlns:xlink="http://www.w3.org/1999/xlink" x="0px" y="0px"
	 viewBox="0 0 576 792" enable-background="new 0 0 576 792" xml:space="preserve">
	<path stroke="black" stroke-width="20" d="M537.6,221.3v30h15v100.1h-15.1c-0.1,5.8-0.1,11.5-0.3,17.1c-0.2,8.9-6.3,16.5-14.7,19.7
		c-61.4,23.7-111.1,71-138,130.7c-12.4,27.4-35.5,50.8-65.6,52.1c-10.1,0.4-20.6,0.7-31.7,0.7c-11,0-21.6-0.2-31.7-0.7
		c-30.1-1.3-53.2-24.7-65.6-52.1c-27-59.7-76.6-107-138.1-130.7c-8.3-3.2-14.4-10.8-14.7-19.7c-0.1-5.6-0.2-11.3-0.3-17.1H21.9
		V251.3h15v-30H537.6 M437.4,336.5h100.1v-70.1H437.4V336.5 M36.9,336.5H137v-70.1H36.9V336.5 M539.6,219.3h-2H36.9h-2v2v28h-13h-2
		v2v100.1v2h2H35c0.1,5.5,0.1,10.4,0.3,15.1c0.2,9.4,6.5,17.9,15.9,21.5c30.3,11.7,57.6,29,81.3,51.4c23.6,22.4,42.3,48.7,55.7,78.2
		c14.5,32.2,39.7,52.1,67.3,53.3c10,0.4,20.7,0.7,31.7,0.7c11.1,0,21.7-0.2,31.7-0.7c27.6-1.2,52.8-21.1,67.3-53.3
		c13.3-29.5,32-55.8,55.7-78.2c23.7-22.4,51-39.7,81.3-51.4c9.4-3.6,15.7-12.1,15.9-21.5c0.1-4.7,0.2-9.7,0.3-15.1h13.2h2v-2V251.3
		v-2h-2h-13v-28V219.3L539.6,219.3z M439.4,268.4h96.1v66.1h-96.1V268.4L439.4,268.4z M38.9,268.4H135v66.1H38.9V268.4L38.9,268.4z"
		/>

</svg>
