<?xml version="1.0" encoding="utf-8"?>
<!-- Generator: Adobe Illustrator 17.1.0, SVG Export Plug-In . SVG Version: 6.00 Build 0)  -->
<!DOCTYPE svg PUBLIC "-//W3C//DTD SVG 1.1 Tiny//EN" "http://www.w3.org/Graphics/SVG/1.1/DTD/svg11-tiny.dtd">
<svg version="1.1" baseProfile="tiny" id="Layer_1" xmlns="http://www.w3.org/2000/svg" xmlns:xlink="http://www.w3.org/1999/xlink"
	 x="0px" y="0px" viewBox="0 0 48 48" xml:space="preserve">
<g>
	<path fill="#00ABC7" d="M26.183,5.433C15.929,5.433,7.615,13.746,7.615,24c0,0.025,0.001,0.068,0.003,0.105H3.25l6.947,6.933
		l6.96-6.933h-4.382c0-0.001,0-0.003,0-0.004h-0.001c-0.001-0.035-0.002-0.076-0.002-0.1c0-7.395,6.015-13.409,13.41-13.409
		S39.592,16.605,39.592,24s-6.015,13.41-13.41,13.41c-4.488,0-8.465-2.219-10.9-5.614l-2.174,2.165l-1.518,1.512
		c3.4,4.319,8.67,7.094,14.592,7.094c10.254,0,18.567-8.312,18.567-18.567C44.75,13.746,36.437,5.433,26.183,5.433z"/>
	<polygon fill="#00ABC7" points="24.999,14.675 24.999,24.788 25.014,24.788 33.5,30.092 34.702,28.167 27.27,23.521 27.27,14.675 	
		"/>
</g>
</svg>
