<?xml version="1.0" encoding="utf-8"?>
<!-- Generator: Adobe Illustrator 17.0.0, SVG Export Plug-In . SVG Version: 6.00 Build 0)  -->
<!DOCTYPE svg PUBLIC "-//W3C//DTD SVG 1.1//EN" "http://www.w3.org/Graphics/SVG/1.1/DTD/svg11.dtd">
<svg version="1.1" id="Layer_1" xmlns="http://www.w3.org/2000/svg" xmlns:xlink="http://www.w3.org/1999/xlink" x="0px" y="0px"
	 width="48px" height="48px" viewBox="0 0 48 48" style="enable-background:new 0 0 48 48;" xml:space="preserve">
<g>
	<path style="fill:#00ACC8;" d="M11.6,42.2C5.6,42.2,0,37.4,0,29c0-8.3,4-16,10.5-21.9c0.9-0.9,2.2-1.3,3.5-1.3
		c3.1,0,4.7,2.5,4.7,4.3c0,1-0.4,2.1-1.2,2.7c-3.4,2.7-6.2,6.7-7,10.1c0.4-0.1,1.6-0.4,2.5-0.4c4.9,0,8.8,3.8,8.8,9.3
		C21.7,37.5,17.1,42.2,11.6,42.2z M37.9,42.2c-6.1,0-11.6-4.8-11.6-13.2c0-8.3,4-16,10.5-21.9c0.9-0.9,2.2-1.3,3.5-1.3
		c3,0,4.7,2.6,4.7,4.3c0,1-0.4,2.1-1.2,2.7c-3.4,2.7-6.2,6.7-7,10.1c0.4-0.1,1.6-0.4,2.5-0.4c4.9,0,8.8,3.8,8.8,9.3
		C48,37.5,43.3,42.2,37.9,42.2z"/>
</g>
</svg>
