<?xml version="1.0" encoding="utf-8"?>
<!-- Generator: Adobe Illustrator 18.1.1, SVG Export Plug-In . SVG Version: 6.00 Build 0)  -->
<!DOCTYPE svg PUBLIC "-//W3C//DTD SVG 1.1//EN" "http://www.w3.org/Graphics/SVG/1.1/DTD/svg11.dtd">
<svg version="1.1" id="Layer_1" xmlns="http://www.w3.org/2000/svg" xmlns:xlink="http://www.w3.org/1999/xlink" x="0px" y="0px"
	 viewBox="0 0 48 48" style="enable-background:new 0 0 48 48;" xml:space="preserve">
<path style="fill:#00ACC8;" d="M0.6,22.7c0.5,0.7,6.7,5.3,9.5,5.4c2.9,0.1,4.2-0.1,5-0.5c0.8-0.3,1.7,0.7,1.2,1.2
	c-0.5,0.4-4.3,2.4-5.5,3.7c-1.1,1.4-2.2,7.2-2.5,8.3c-0.3,1.1,0.9,2.2,2.3,1.7c1.4-0.5,5-2.9,7.1-4.9c2.1-2,2.1-4.5,2.1-4.5
	s0.1-3.3,0.7-3.2c0.5,0,0.7,1.1,0.7,1.4c0.3,2.7,0.3,4.4,2.1,8.5c1.8,4.1,6.7,5.7,6.7,5.7s1.3,0.9,1.2-0.5c-0.1-1.4,0.8-2.9,0.1-8
	c-0.7-5.1-2.1-5.1-4.3-7.8c0,0-0.3-0.6-0.2-0.9c0.1-0.3,0.7-0.2,1.1,0.1c0.7,0.7,4.5,2.6,8,3.8c3.5,1.3,8.7,0,10.8-0.7
	c2.1-0.8,1.3-1.6,0.1-2.4c-1.2-0.7-4.7-4.4-9.7-5.8c-5-1.4-7.3-0.1-8.6,0.4c-1.2,0.5-1.4-1.2-1.4-1.2s1.6-0.8,3.3-1.2
	c1.7-0.4,4.6-1.7,6.5-4c1.9-2.4,1.9-8.2,2.2-10c0.3-1.8,0.1-2.9-2.2-2c-2.3,0.8-6.3,3.3-8.9,5.9c-2.6,2.6-3.3,6.4-3.3,7.1
	c0,0.7-0.8,1.1-0.8,1.1s-0.7-0.8-0.7-1.5c0-0.7,0.1-2.9-1.8-8.5c-1.9-5.6-6.4-7-6.4-7s0,0-0.3,1.1c-0.3,1.1-1.4,5.3-1.3,8.1
	c0.1,2.8,3,7.2,3,7.2s1,0.8,0.9,1.8c-0.1,1-1.7-0.1-1.7-0.1s-2.7-0.9-6.3-1.7C5.9,17.9,0,21.1,0,21.1S0.1,22,0.6,22.7z M21,21.1
	c1.9-0.7,4,0.3,4.7,2.2c0.7,1.9-0.2,4.1-2.1,4.8c-1.9,0.7-4-0.3-4.7-2.2C18.2,23.9,19.1,21.8,21,21.1z"/>
</svg>
