<?xml version="1.0" encoding="utf-8"?>
<!-- Generator: Adobe Illustrator 18.1.0, SVG Export Plug-In . SVG Version: 6.00 Build 0)  -->
<!DOCTYPE svg PUBLIC "-//W3C//DTD SVG 1.1//EN" "http://www.w3.org/Graphics/SVG/1.1/DTD/svg11.dtd">
<svg version="1.1" id="Layer_1" xmlns="http://www.w3.org/2000/svg" xmlns:xlink="http://www.w3.org/1999/xlink" x="0px" y="0px"
	 viewBox="0 0 48 48" style="enable-background:new 0 0 48 48;" xml:space="preserve">
<g>
	<path style="fill:#02ACC8;" d="M17.2,6.8C7.8,6.8,0,14.6,0,24s7.6,17.2,17.2,17.2c9.4,0,17.2-7.6,17.2-17.2
		C34.2,14.6,26.6,6.8,17.2,6.8z M17.2,38.6C9.1,38.6,2.5,32,2.5,24S9.1,9.4,17.1,9.4c8.1,0,14.6,6.6,14.6,14.6
		C31.7,32,25.2,38.6,17.2,38.6z"/>
	<path style="fill:#02ACC8;" d="M30.8,6.8c-9.4,0-17.2,7.6-17.2,17.2c0,9.4,7.6,17.2,17.2,17.2S48,33.4,48,24S40.4,6.8,30.8,6.8z
		 M30.8,38.6c-8.1,0-14.6-6.6-14.6-14.6S22.8,9.4,30.8,9.4c8.1,0,14.6,6.6,14.6,14.6C45.5,32,38.9,38.6,30.8,38.6z"/>
</g>
</svg>
