<?xml version="1.0" encoding="utf-8"?>
<!-- Generator: Adobe Illustrator 17.0.0, SVG Export Plug-In . SVG Version: 6.00 Build 0)  -->
<!DOCTYPE svg PUBLIC "-//W3C//DTD SVG 1.1//EN" "http://www.w3.org/Graphics/SVG/1.1/DTD/svg11.dtd">
<svg version="1.1" id="Layer_1" xmlns="http://www.w3.org/2000/svg" xmlns:xlink="http://www.w3.org/1999/xlink" x="0px" y="0px"
	 width="48px" height="48px" viewBox="0 0 48 48" style="enable-background:new 0 0 48 48;" xml:space="preserve">
<style type="text/css">
	.st0{fill:#00ACC8;}
</style>
<g>
	<circle class="st0" cx="21.9" cy="35.7" r="3.6"/>
	<circle class="st0" cx="36.4" cy="35.8" r="3.6"/>
	<path class="st0" d="M45.6,10.1c-0.9-0.3-1.9,0.2-2.1,1.1l-0.7,2.1H17.3l-1.1-3.3c-0.1-0.6-0.6-1.1-1.2-1.3c0,0-0.5-0.1-0.5-0.1H3
		c-0.9,0-1.7,0.8-1.7,1.7C1.3,11.2,2,12,3,12h10.3l1,3.2l2.9,15.8h23.9l3.5-12.3l2-6.4C46.9,11.3,46.5,10.4,45.6,10.1z"/>
</g>
</svg>
