<?xml version="1.0" encoding="utf-8"?>
<!-- Generator: Adobe Illustrator 17.0.0, SVG Export Plug-In . SVG Version: 6.00 Build 0)  -->
<!DOCTYPE svg PUBLIC "-//W3C//DTD SVG 1.1//EN" "http://www.w3.org/Graphics/SVG/1.1/DTD/svg11.dtd">
<svg version="1.1" id="Layer_1" xmlns="http://www.w3.org/2000/svg" xmlns:xlink="http://www.w3.org/1999/xlink" x="0px" y="0px"
	 width="48px" height="48px" viewBox="0 0 48 48" style="enable-background:new 0 0 48 48;" xml:space="preserve">
<path style="fill:#00ACC8;" d="M24,0C10.8,0,0,10.8,0,24c0,13.2,10.8,24,24,24c13.2,0,24-10.8,24-24C48,10.8,37.2,0,24,0z M24,44.5
	C12.7,44.5,3.5,35.3,3.5,24C3.5,12.7,12.7,3.5,24,3.5c11.3,0,20.5,9.2,20.5,20.5C44.5,35.3,35.3,44.5,24,44.5z M30.2,14.6
	c-2.9,0-5.3,1.8-6.3,4.3c-1.1-2.3-3.4-3.8-6.1-3.8c-3.7,0-6.7,3-6.7,6.7c0,2.1,1,4,2.5,5.2l10.2,10.2L35,26.2c1.2-1.2,2-2.9,2-4.8
	C37,17.7,34,14.6,30.2,14.6z"/>
</svg>
