<?xml version="1.0" encoding="utf-8"?>
<!-- Generator: Adobe Illustrator 18.0.0, SVG Export Plug-In . SVG Version: 6.00 Build 0)  -->
<!DOCTYPE svg PUBLIC "-//W3C//DTD SVG 1.1//EN" "http://www.w3.org/Graphics/SVG/1.1/DTD/svg11.dtd">
<svg version="1.1" id="Layer_1" xmlns="http://www.w3.org/2000/svg" xmlns:xlink="http://www.w3.org/1999/xlink" x="0px" y="0px"
	 viewBox="0 0 48 48" enable-background="new 0 0 48 48" xml:space="preserve">
<path fill="#00ACC8" d="M38.8,14.8C38.8,6.6,32.2,0,24,0C15.8,0,9.2,6.6,9.2,14.8c0,2.7,0.7,5.2,2,7.4h0L24,48l12.8-25.8h0
	C38,20,38.8,17.5,38.8,14.8z M24,22.2c-4.1,0-7.4-3.3-7.4-7.4c0-4.1,3.3-7.4,7.4-7.4c4.1,0,7.4,3.3,7.4,7.4
	C31.4,18.8,28.1,22.2,24,22.2z"/>
</svg>
