<?xml version="1.0" encoding="utf-8"?>
<!-- Generator: Adobe Illustrator 17.0.0, SVG Export Plug-In . SVG Version: 6.00 Build 0)  -->
<!DOCTYPE svg PUBLIC "-//W3C//DTD SVG 1.1//EN" "http://www.w3.org/Graphics/SVG/1.1/DTD/svg11.dtd">
<svg version="1.1" id="Layer_1" xmlns="http://www.w3.org/2000/svg" xmlns:xlink="http://www.w3.org/1999/xlink" x="0px" y="0px"
	 width="48px" height="48px" viewBox="0 0 48 48" style="enable-background:new 0 0 48 48;" xml:space="preserve">
<g>
	<path style="fill:#00ACC8;" d="M40,7.1L15.7,0c-0.3-0.1-0.6,0-0.8,0.1L7.7,5.6c-0.3,0.2-0.4,0.6-0.3,1v34.1L32.5,48V13.4L9.4,6.7
		l6.3-4.8l23.2,6.7v33.9c0,0.5,0.4,0.9,0.9,0.9c0.5,0,0.9-0.4,0.9-0.9V8C40.6,7.5,40.3,7.2,40,7.1z"/>
	<polygon style="opacity:0.5;fill:#00ACC8;" points="33.5,46.3 37.7,43.5 37.7,9.5 15.9,3 11.3,6.4 33.5,12.5 	"/>
</g>
</svg>
