<?xml version="1.0" encoding="utf-8"?>
<!-- Generator: Adobe Illustrator 17.1.0, SVG Export Plug-In . SVG Version: 6.00 Build 0)  -->
<!DOCTYPE svg PUBLIC "-//W3C//DTD SVG 1.1//EN" "http://www.w3.org/Graphics/SVG/1.1/DTD/svg11.dtd">
<svg version="1.1" id="Layer_1" xmlns="http://www.w3.org/2000/svg" xmlns:xlink="http://www.w3.org/1999/xlink" x="0px" y="0px"
	 viewBox="0 0 576 792" enable-background="new 0 0 576 792" xml:space="preserve">
<path d="M191.1,350c0,0-132.1-0.1-132.5,0c-16.6,1.3-29.8,15.2-29.8,32.2c0,15.9,11.7,29.1,26.9,31.7c1.3,0.5,13.5,0.8,13.5,0.8v81
	c0,33.3,25.8,60.5,58.5,62.9v0.3h311.4c34.8,0,63.2-28.4,63.2-63.2v-81c0,0,13.2-0.3,14.2-0.7c16-1.8,28.6-15.3,28.6-31.8
	c0-17.5-14-31.8-31.4-32.2c-0.1,0-0.3,0-0.4,0H375.4 M352.4,350H213.7 M480.8,495.7c0,23-18.7,41.7-41.7,41.7H132.4
	c-23,0-41.7-18.7-41.7-41.7v-81h104c1.2,15,13.6,26.9,28.9,26.9h128c15.3,0,27.7-11.9,28.9-26.9h100.5L480.8,495.7L480.8,495.7z
	 M513.3,392.9L513.3,392.9l-144.1,0.4v0.1c-5.6,0-10,4.3-10.5,9.7h-0.3v11.7h0.3c-1,3.1-3.8,5.4-7.2,5.4h-128
	c-3.4,0-6.2-2.3-7.2-5.4h0.3v-11.9h0c-0.5-5.4-5-9.7-10.5-9.7L61,392.9l0,0c-5.9,0-10.7-4.8-10.7-10.7c0-5.9,4.8-10.7,10.7-10.7
	c0,0,451.6,0,451.8,0c5.9,0,10.7,4.8,10.7,10.7C523.6,388,519,392.6,513.3,392.9z"/>
<path d="M339.3,350l-17,8.9c6.3-5.2,12.7-12.5,18.1-22.7c14.9-28.1,22.1-30.4,23.1-30.6c1.5,0.6,3.3,0.1,4.2-1.3
	c1.1-1.6,0.7-3.8-0.9-4.9c-0.6-0.4-2.3-1.3-5.1-0.6c-7.2,1.8-16.5,13.3-27.6,34.2c-8.5,15.9-19.3,23.7-27.2,27.3
	c1.3-8.9,1.4-27.5-1.8-66.7c-0.4-5.2-0.8-9.6-1.2-12.7c-0.6-5.3-0.9-8.3-4.6-8c-3.6,0.3-3.5,3.5-3.4,7.9c0.1,3.2,0.3,7.9,0.7,14.1
	c1.7,30-3,46.2-8.4,55.1l-7.5,8.1c-1.2,0.8-2.2,1.2-2.9,1.5c-5.5-11.4-30.5-66.7-47.5-104.3c-0.8-1.8-2.9-2.6-4.7-1.8
	c-1.8,0.8-2.6,2.9-1.8,4.7c17.7,39.3,47.6,105.5,49.1,107.4c0.1,0.1,0.3,0.4,0.5,0.6h-6.7l-36.4-11.9l-49.5-121.9
	c5-5.7,21.2-21.7,48.2-24.3c2.4-0.2,4.7-0.4,6.9-0.4c12.3,0,19.1,3.7,26.9,8c8.8,4.9,18.9,10.4,37.7,10.4
	c25.7,0,86.2,6.6,100.6,66.5C354.5,333.5,342.4,346.3,339.3,350z"/>
</svg>
