<?xml version="1.0" encoding="utf-8"?>
<!-- Generator: Adobe Illustrator 17.0.0, SVG Export Plug-In . SVG Version: 6.00 Build 0)  -->
<!DOCTYPE svg PUBLIC "-//W3C//DTD SVG 1.1//EN" "http://www.w3.org/Graphics/SVG/1.1/DTD/svg11.dtd">
<svg version="1.1" id="Layer_1" xmlns="http://www.w3.org/2000/svg" xmlns:xlink="http://www.w3.org/1999/xlink" x="0px" y="0px"
	 width="48px" height="48px" viewBox="0 0 48 48" style="enable-background:new 0 0 48 48;" xml:space="preserve">
<path style="fill:#FFFFFF;" d="M31.3,8.4c-4,2.3-7.4,7.4-9.1,10.4c-0.1,0-0.2-0.1-0.2,0c-0.7-3.8-2.5-9.8-7.6-11.8
	C6.7,4.2,0,5.4,0,5.4s3,7.7,8.7,12c4.3,3.2,8.3,4.3,10.8,4.6c-1.2,3.3-2.4,10.2,1,22.3c0.2,0.8,1,1.4,1.8,1.4c0.2,0,0.3,0,0.5-0.1
	c1-0.3,1.6-1.3,1.3-2.3c-3.8-13.7-1.3-19.9-0.6-21.2c3.5,0.9,9.8,1.6,15.5-1.8c6.8-4.1,9-15.4,9-15.4S41.2,2.7,31.3,8.4z"/>
</svg>
