<?xml version="1.0" encoding="utf-8"?>
<!-- Generator: Adobe Illustrator 18.1.1, SVG Export Plug-In . SVG Version: 6.00 Build 0)  -->
<!DOCTYPE svg PUBLIC "-//W3C//DTD SVG 1.1//EN" "http://www.w3.org/Graphics/SVG/1.1/DTD/svg11.dtd">
<svg version="1.1" id="Layer_1" xmlns="http://www.w3.org/2000/svg" xmlns:xlink="http://www.w3.org/1999/xlink" x="0px" y="0px"
	 viewBox="0 0 48 48" style="enable-background:new 0 0 48 48;" xml:space="preserve">
<path style="fill:#00ACC8;" d="M46,9.6c-0.5-1-1.1-1.9-1.9-2.6c-0.8-0.7-1.7-1-2.7-1.2c-2.5-0.7-5.1-0.4-7.5,0.4
	c-1.3,0.4-2.6,0.9-3.8,1.6c1.2-2.4,1-5.2,0.1-7.7C30-0.3,28,0.6,27.8,0.7c-2.6,1.1-4.7,3.3-5.9,5.8C21.7,7,21.5,7.5,21.4,8
	c-1.6-3.1-4.6-2.2-4.6-2.1c0.1,1,0.3,1.9,0.6,2.7c-1.8-0.8-3.9-1.1-5.9-1c-1.4,0-2.8,0.3-4,0.8c-1.2,0.4-2.4,1.1-3.2,2
	C3.6,11,3,11.7,2.5,12.6c-0.3,0.5-0.5,1-0.7,1.6c-0.2,0.6-0.4,1.2-0.5,1.9c-0.4,2.5-0.2,4.9,0.3,7.4c0.6,2.7,1.5,5.2,3,7.6
	c4.2,7,9.4,13.3,17,16.8c0.1,0,0.1-0.1,0.2-0.1c0.1-0.1,0.2-0.2,0.4-0.3c1.8-1.3,5.5-4.2,7.2-5.5c2-1.5,3.9-3.2,5.7-4.9
	c1.9-1.9,3.7-3.8,5.3-6c1.5-2.1,3-4.3,4-6.7s1.8-4.9,2.1-7.5C47,14.3,47,11.8,46,9.6z"/>
</svg>
