<?xml version="1.0" encoding="utf-8"?>
<!-- Generator: Adobe Illustrator 17.0.0, SVG Export Plug-In . SVG Version: 6.00 Build 0)  -->
<!DOCTYPE svg PUBLIC "-//W3C//DTD SVG 1.1//EN" "http://www.w3.org/Graphics/SVG/1.1/DTD/svg11.dtd">
<svg version="1.1" id="Layer_1" xmlns="http://www.w3.org/2000/svg" xmlns:xlink="http://www.w3.org/1999/xlink" x="0px" y="0px"
	 width="48px" height="48px" viewBox="0 0 48 48" style="enable-background:new 0 0 48 48;" xml:space="preserve">
<g>
	<rect x="1.4" y="2.5" style="fill:#F37029;" width="45.3" height="9.5"/>
	<g>
		<path style="fill:#A3A3A8;" d="M45.3,4v37.4H2.7V4H45.3 M48,1.3H0V44h48V1.3L48,1.3z"/>
	</g>
	<g>
		<path style="fill:#A3A3A8;" d="M13.3,17.4v5.3H8v-5.3H13.3 M15.9,14.7H5.3v10.7h10.6V14.7L15.9,14.7z"/>
	</g>
	<g>
		<path style="fill:#A3A3A8;" d="M26.6,17.4v5.3h-5.3v-5.3H26.6 M29.3,14.7H18.7v10.7h10.6V14.7L29.3,14.7z"/>
	</g>
	<g>
		<path style="fill:#A3A3A8;" d="M40,17.4v5.3h-5.3v-5.3H40 M42.6,14.7H32v10.7h10.6V14.7L42.6,14.7z"/>
	</g>
	<g>
		<path style="fill:#A3A3A8;" d="M13.3,30.7v5.3H8v-5.3H13.3 M15.9,28H5.3v10.7h10.6V28L15.9,28z"/>
	</g>
	<g>
		<path style="fill:#A3A3A8;" d="M26.6,30.7v5.3h-5.3v-5.3H26.6 M29.3,28H18.7v10.7h10.6V28L29.3,28z"/>
	</g>
	<g>
		<path style="fill:#A3A3A8;" d="M40,30.7v5.3h-5.3v-5.3H40 M42.6,28H32v10.7h10.6V28L42.6,28z"/>
	</g>
	<rect x="2.6" y="44" style="fill:#E6E6E6;" width="42.7" height="2.7"/>
</g>
</svg>
