<?xml version="1.0" encoding="utf-8"?>
<!-- Generator: Adobe Illustrator 17.0.0, SVG Export Plug-In . SVG Version: 6.00 Build 0)  -->
<!DOCTYPE svg PUBLIC "-//W3C//DTD SVG 1.1//EN" "http://www.w3.org/Graphics/SVG/1.1/DTD/svg11.dtd">
<svg version="1.1" id="Layer_1" xmlns="http://www.w3.org/2000/svg" xmlns:xlink="http://www.w3.org/1999/xlink" x="0px" y="0px"
	 width="48px" height="48px" viewBox="0 0 48 48" style="enable-background:new 0 0 48 48;" xml:space="preserve">
<g>
	<path style="fill:#94959B;" d="M22.4,24.7c-0.1,0.5,0.2,0.8,0.6,1l0-2C22.7,24,22.4,24.4,22.4,24.7z"/>
	<path style="fill:#94959B;" d="M25.3,17.2l0,2.6c0.1-0.1,0.3-0.2,0.4-0.3C26.6,18.6,26.4,17.5,25.3,17.2z"/>
	<path style="fill:#94959B;" d="M23,35.5c-0.7,0.5-0.3,1.2,0.3,1.6l0-1.8C23.2,35.4,23.1,35.4,23,35.5z"/>
	<path style="fill:#94959B;" d="M47.8,29.7l-10-5.7l10-5.7c0.2-0.1,0.2-0.3,0.1-0.5L41.4,6.4c0-0.1-0.1-0.1-0.2-0.2
		c-0.1,0-0.2,0-0.3,0l-10,5.7V0.5c0-0.2-0.2-0.4-0.4-0.4H17.4c-0.2,0-0.4,0.2-0.4,0.4V12l-10-5.7c-0.2-0.1-0.4,0-0.5,0.1L0,17.8
		C0,17.8,0,17.9,0,18c0,0.1,0.1,0.2,0.2,0.2l10,5.7l-10,5.7C0.1,29.8,0,29.9,0,30s0,0.2,0,0.3l6.6,11.4c0.1,0.1,0.2,0.2,0.3,0.2
		c0.1,0,0.1,0,0.2,0l10-5.7v11.5c0,0.2,0.2,0.4,0.4,0.4h13.1c0.2,0,0.4-0.2,0.4-0.4V36l10,5.7c0.1,0,0.1,0,0.2,0
		c0.1,0,0.2-0.1,0.3-0.2L48,30.2c0-0.1,0.1-0.2,0-0.3C48,29.9,47.9,29.8,47.8,29.7z M24,6.6c1,0,1.8,0.8,1.8,1.8S25,10.2,24,10.2
		c-1,0-1.8-0.8-1.8-1.8S23,6.6,24,6.6z M28.4,19.9c-0.8,1-2.1,1.6-3.2,2.3l-0.1,4.7c1.4,1.2,2.3,3,1.9,4.8c-0.2,0.8-0.5,1.5-1,2.1
		c-0.3,0.3-0.6,0.5-1,0.7l-0.1,4c0.3,0.4,0.5,0.8,0.5,1.4c0,0.2,0,0.4-0.1,0.6c0,0.2-0.1,0.3-0.2,0.5c-0.1-0.1-0.2-0.2-0.2-0.4
		l0,1.4c0,0.4-0.3,0.7-0.7,0.7c-0.4,0-0.7-0.3-0.7-0.7l-0.1-3c-0.2-0.1-0.4-0.3-0.7-0.4c-0.9-0.5-2.2-1-2.5-2
		c-0.4-1.3,1.2-2.6,2.2-3.2c0.3-0.2,0.6-0.3,0.8-0.5l-0.1-4c-0.6-0.3-1.2-0.6-1.7-0.9c-1.7-1.1-2.7-2.7-1.7-4.7
		c0.3-0.7,0.9-1.2,1.6-1.6c0.5-0.3,1-0.5,1.5-0.7l-0.1-3.4c-0.7,0.3-1.3,0.6-2,0.7c-2,0.3-2.6-1.9-1-2.9c0.8-0.5,1.8-0.7,2.9-0.7
		l0-1.9c0-0.2,0.1-0.4,0.2-0.5c0.1-0.1,0.3-0.2,0.5-0.2h1.2c0.2,0,0.4,0.1,0.5,0.2c0.1,0.1,0.2,0.3,0.2,0.5l0,2
		c0.5,0.1,1.1,0.2,1.6,0.3c0.6,0.2,1.2,0.6,1.5,1C29.3,17.1,29.4,18.8,28.4,19.9z"/>
</g>
</svg>
