<?xml version="1.0" encoding="utf-8"?>
<!-- Generator: Adobe Illustrator 17.0.0, SVG Export Plug-In . SVG Version: 6.00 Build 0)  -->
<!DOCTYPE svg PUBLIC "-//W3C//DTD SVG 1.1//EN" "http://www.w3.org/Graphics/SVG/1.1/DTD/svg11.dtd">
<svg version="1.1" id="Layer_1" xmlns="http://www.w3.org/2000/svg" xmlns:xlink="http://www.w3.org/1999/xlink" x="0px" y="0px"
	 width="48px" height="48px" viewBox="0 0 48 48" enable-background="new 0 0 48 48" xml:space="preserve">
<g>
	<path fill="#CCCCCC" d="M24,0C10.745,0,0,10.745,0,24s10.745,24,24,24c13.255,0,24-10.745,24-24S37.255,0,24,0z M38.85,21.918
		c-0.183,0.214-0.376,0.366-0.59,0.509l-6.76,4.461c-0.111,0.047-0.303,0.382-0.286,0.618c0,0.065,0.01,0.118,0.023,0.154
		l2.969,8.71c0.089,0.27,0.152,0.525,0.154,0.841c-0.003,0.243-0.034,0.571-0.291,0.93c-0.24,0.354-0.729,0.564-1.078,0.564
		c-0.016,0-0.033-0.001-0.049-0.001c-0.679-0.036-0.964-0.297-1.311-0.549l-7.002-5.703c-0.055-0.046-0.184-0.101-0.335-0.1
		c-0.156-0.001-0.294,0.058-0.349,0.108l-6.643,5.658c-0.344,0.26-0.633,0.534-1.328,0.572c-0.367,0.023-0.904-0.211-1.146-0.583
		c-0.249-0.362-0.279-0.684-0.282-0.932c0.001-0.295,0.057-0.536,0.131-0.786l2.641-8.655c0.012-0.038,0.02-0.089,0.02-0.151
		c0.019-0.251-0.194-0.628-0.316-0.68l-6.794-4.478c-0.214-0.143-0.406-0.294-0.589-0.508c-0.173-0.212-0.383-0.516-0.394-1.016
		c-0.006-0.311,0.124-0.66,0.314-0.885c0.188-0.23,0.398-0.355,0.58-0.437c0.368-0.154,0.671-0.176,0.996-0.18l8.431-0.005
		c0.078,0.005,0.258-0.048,0.408-0.165c0.154-0.113,0.253-0.273,0.27-0.35l2.441-8.771c0.078-0.276,0.168-0.527,0.352-0.801
		c0.167-0.247,0.539-0.654,1.206-0.669c0.669,0.016,1.039,0.423,1.206,0.669c0.184,0.272,0.273,0.521,0.353,0.798l2.442,8.775
		c0.018,0.077,0.116,0.236,0.268,0.35c0.15,0.118,0.331,0.17,0.409,0.165l8.43,0.005c0.244,0.001,0.477,0.019,0.733,0.087
		c0.249,0.074,0.556,0.188,0.845,0.532c0.189,0.225,0.318,0.572,0.312,0.883C39.232,21.402,39.021,21.706,38.85,21.918z"/>
</g>
</svg>
