<?xml version="1.0" encoding="utf-8"?>
<!-- Generator: Adobe Illustrator 18.0.0, SVG Export Plug-In . SVG Version: 6.00 Build 0)  -->
<!DOCTYPE svg PUBLIC "-//W3C//DTD SVG 1.1//EN" "http://www.w3.org/Graphics/SVG/1.1/DTD/svg11.dtd">
<svg version="1.1" id="Layer_1" xmlns="http://www.w3.org/2000/svg" xmlns:xlink="http://www.w3.org/1999/xlink" x="0px" y="0px"
	 viewBox="0 0 50 50" enable-background="new 0 0 50 50" xml:space="preserve">
<path id="instagram-circle-icon_1_" fill="#4D7AA0" d="M36.4,14.5v2.9c0,0.5-0.4,0.9-0.9,0.9h-2.9c-0.5,0-0.9-0.4-0.9-0.9v-2.9
	c0-0.5,0.4-0.9,0.9-0.9h2.9C36,13.7,36.4,14,36.4,14.5z M25.4,29.1c2.2,0,3.9-1.8,3.9-3.9c0-2.2-1.8-3.9-3.9-3.9s-3.9,1.8-3.9,3.9
	C21.4,27.3,23.2,29.1,25.4,29.1z M49,25c0,13.3-10.7,24-24,24S1,38.3,1,25S11.7,1,25,1S49,11.7,49,25z M38.8,21.1H31
	c0.8,1.1,1.3,2.5,1.3,4c0,3.8-3.1,6.9-6.9,6.9c-3.8,0-6.9-3.1-6.9-6.9c0-1.5,0.5-2.9,1.3-4h-7.9v12.1c0,2.9,2.4,5.3,5.3,5.3h16.3
	c2.9,0,5.3-2.4,5.3-5.3C38.8,33.2,38.8,21.1,38.8,21.1z M25.3,30.4c2.9,0,5.3-2.4,5.3-5.3c0-1.6-0.7-3-1.8-4
	c-0.4-0.3-0.8-0.6-1.3-0.8c-0.7-0.3-1.4-0.5-2.2-0.5c-0.8,0-1.5,0.2-2.2,0.5c-0.5,0.2-0.9,0.5-1.3,0.8c-1.1,1-1.8,2.4-1.8,4
	C20,28.1,22.4,30.4,25.3,30.4z M38.8,16.8c0-2.9-2.4-5.3-5.3-5.3H18.9h-1.1h-0.6c0,0-0.1,0-0.1,0L16,11.6c-0.3,0.1-0.5,0.1-0.8,0.2
	l-1.1,0.6c-1.4,1-2.3,2.6-2.3,4.4v3.5h8.6c1.3-1.3,3-2.1,4.9-2.1c1.9,0,3.7,0.8,4.9,2.1h8.6V16.8L38.8,16.8z"/>
</svg>
