<?xml version="1.0" encoding="utf-8"?>
<!-- Generator: Adobe Illustrator 17.0.0, SVG Export Plug-In . SVG Version: 6.00 Build 0)  -->
<!DOCTYPE svg PUBLIC "-//W3C//DTD SVG 1.1//EN" "http://www.w3.org/Graphics/SVG/1.1/DTD/svg11.dtd">
<svg version="1.1" id="Layer_1" xmlns="http://www.w3.org/2000/svg" xmlns:xlink="http://www.w3.org/1999/xlink" x="0px" y="0px"
	 width="48px" height="48px" viewBox="0 0 48 48" style="enable-background:new 0 0 48 48;" xml:space="preserve">
<style type="text/css">
	.st0{fill:#00ACC8;}
	.st1{opacity:0.5;fill:#00ACC8;}
</style>
<g>
	<path class="st0" d="M36.9,10.3L17.3,4.6c-0.2-0.1-0.4,0-0.6,0.1l-5.8,4.4c-0.3,0.2-0.3,0.5-0.3,0.8v27.5l20.3,5.9V15.4L12.2,10
		l5.1-3.9L36,11.6V39c0,0.4,0.3,0.7,0.7,0.7c0.4,0,0.7-0.3,0.7-0.7V11C37.4,10.7,37.2,10.4,36.9,10.3z"/>
	<polygon class="st1" points="31.7,42.1 35.1,39.7 35.1,12.2 17.4,7 13.7,9.8 31.7,14.7 	"/>
</g>
</svg>
