<?xml version="1.0" encoding="utf-8"?>
<!-- Generator: Adobe Illustrator 18.0.0, SVG Export Plug-In . SVG Version: 6.00 Build 0)  -->
<!DOCTYPE svg PUBLIC "-//W3C//DTD SVG 1.1//EN" "http://www.w3.org/Graphics/SVG/1.1/DTD/svg11.dtd">
<svg version="1.1" id="Layer_1" xmlns="http://www.w3.org/2000/svg" xmlns:xlink="http://www.w3.org/1999/xlink" x="0px" y="0px"
	 viewBox="0 0 50 50" enable-background="new 0 0 50 50" xml:space="preserve">
<polygon fill="#F63E28" points="39.7,16.9 36.2,16.9 36.2,13.3 34.4,13.3 34.4,16.9 30.8,16.9 30.8,18.7 34.4,18.7 34.4,22.2 
	36.2,22.2 36.2,18.7 39.7,18.7 "/>
<path fill="#F63E28" d="M26.4,28c-2.5-1.8-3.1-2.8-0.7-4.7c1.3-1,2.3-2.4,2.3-4.1c0-1.9-0.8-3.5-2.2-4.4h2l1.7-1.8c0,0-6.5,0-7.7,0
	c-4.8,0-7.2,2.9-7.2,6.1c0,3.2,2.2,5.8,6.6,5.8c-0.7,1.4-0.4,2.6,0.7,3.5c-7.4,0-9,3.3-9,5.8c0,3.3,3.7,5.2,8.2,5.2
	c6.1,0,8.6-3.3,8.6-5.9C29.6,31.2,28.8,29.8,26.4,28z M17.5,19c-0.4-2.7,1-4.8,3.1-4.8c2.1,0.1,3.9,2.3,4.2,5
	c0.4,2.7-0.8,4.5-2.9,4.4C19.8,23.6,17.8,21.7,17.5,19z M21.1,37.9c-3.1,0-5.3-2-5.3-4.3c0-2.3,2.6-4.3,5.7-4.3
	c3.4,0,5.5,2.1,5.5,4.4C27,36.1,25.1,37.9,21.1,37.9z"/>
</svg>
