<?xml version="1.0" encoding="utf-8"?>
<!-- Generator: Adobe Illustrator 18.0.0, SVG Export Plug-In . SVG Version: 6.00 Build 0)  -->
<!DOCTYPE svg PUBLIC "-//W3C//DTD SVG 1.1//EN" "http://www.w3.org/Graphics/SVG/1.1/DTD/svg11.dtd">
<svg version="1.1" id="Layer_1" xmlns="http://www.w3.org/2000/svg" xmlns:xlink="http://www.w3.org/1999/xlink" x="0px" y="0px"
	 viewBox="0 0 48 48" style="enable-background:new 0 0 48 48;" xml:space="preserve">
<path style="fill:#FFFFFF;" d="M35.4,20.3L23.8,31.9L13.2,21.3c-1.6-1.3-2.6-3.3-2.6-5.5c0-3.9,3.1-7,7-7c2.8,0,5.2,1.6,6.3,4
	c1-2.6,3.6-4.5,6.5-4.5c3.9,0,7,3.1,7,7C37.5,17.3,36.7,19,35.4,20.3 M24,0C10.7,0,0,10.7,0,24c0,10.8,7.1,19.9,16.9,22.9
	c2.3,0.7,4.7,1.1,7.1,1.1c0.5,0,0.9,0,1.4,0c0.1,0,0.3,0,0.4,0c0.3,0,0.7-0.1,1-0.1c0.1,0,0.3,0,0.4-0.1c0.3,0,0.7-0.1,1-0.2
	c0.1,0,0.2,0,0.4-0.1c0.4-0.1,0.8-0.2,1.2-0.3c0,0,0.1,0,0.1,0c0.9-0.2,1.8-0.5,2.7-0.8c0,0,0,0,0,0c0.4-0.2,0.8-0.3,1.3-0.5
	c0,0,0.1,0,0.1,0c0.4-0.2,0.8-0.4,1.2-0.6c0,0,0,0,0,0c0.7-0.4,1.4-0.8,2-1.2c-0.2-0.6-0.5-1-1.1-1.3c-1.8-0.8-4.2-1.3-6.1-1.5
	c-2-0.2-4.3,0-6.3-0.3c-1.2-0.2-2.4-0.4-3.5-1.3c-2.4-2-4.4-3.8-6.4-6.1c-0.2-0.2-0.2-0.3-0.2-0.3c-0.7-0.8-0.6-1.9,0.2-2.6
	c0,0,0,0,0,0c0.8-0.7,2.1-0.6,2.9,0.3l0.1,0.1l5.3,5.2h0.3h2.5c1,0,0.8,0,1.7,0c1,0,2,0,3,0c0.9,0,1.8,0,2.7,0c0.4,0,0.7,0,1.1,0
	c0.4,0,0.9,0,1.3,0c0.2,0,0.4-0.1,0.6-0.3c0.1-0.2,0-0.4-0.1-0.5c-0.3-0.3-2.1-0.8-2.6-0.9c-1.3-0.4-1.5-0.4-2.8-0.8
	c-1.1-0.4-1.9-1.7-1.2-2.8c0.9-1.6,3.5-0.7,4.9-0.5c1.6,0.3,1.9,0.6,3.5,0.8c0.5,0.1,1.1,0.1,1.6,0.1c2.6,0.1,4.8,1.3,6,3.6
	c0.1,0.2,0.2,0.6,0.4,1c0.7-1.1,1.3-2.4,1.8-3.6c0-0.1,0.1-0.1,0.1-0.2c0.1-0.2,0.2-0.5,0.2-0.7c0-0.1,0.1-0.3,0.1-0.4
	c0.1-0.2,0.1-0.4,0.2-0.6c0-0.2,0.1-0.3,0.1-0.5c0.1-0.2,0.1-0.4,0.1-0.6c0-0.2,0.1-0.4,0.1-0.5c0-0.2,0.1-0.4,0.1-0.6
	c0-0.2,0.1-0.4,0.1-0.6c0-0.2,0.1-0.4,0.1-0.5c0-0.2,0.1-0.4,0.1-0.6c0-0.2,0-0.3,0.1-0.5c0-0.2,0-0.5,0.1-0.8c0-0.1,0-0.3,0-0.4
	c0-0.4,0-0.8,0-1.2v0C48,10.7,37.3,0,24,0"/>
</svg>
