<?xml version="1.0" encoding="UTF-8" standalone="no"?>
<svg
   xmlns:dc="http://purl.org/dc/elements/1.1/"
   xmlns:cc="http://creativecommons.org/ns#"
   xmlns:rdf="http://www.w3.org/1999/02/22-rdf-syntax-ns#"
   xmlns:svg="http://www.w3.org/2000/svg"
   xmlns="http://www.w3.org/2000/svg"
   viewBox="0 0 55.958401 56.236134"
   height="56.236134"
   width="55.958401"
   xml:space="preserve"
   version="1.1"
   id="svg2"><metadata
     id="metadata8"><rdf:RDF><cc:Work
         rdf:about=""><dc:format>image/svg+xml</dc:format><dc:type
           rdf:resource="http://purl.org/dc/dcmitype/StillImage" /></cc:Work></rdf:RDF></metadata><defs
     id="defs6" /><g
     transform="matrix(1.3333333,0,0,-1.3333333,0,56.236133)"
     id="g10"><g
       transform="translate(21.5316,24.3441)"
       id="g12"><path
         id="path14"
         style="fill:#373535;fill-opacity:1;fill-rule:nonzero;stroke:none"
         d="m 0,0 0,-24.282 20.437,8.344 0,24.344 L 0,0 Z" /></g><g
       transform="translate(0,8.3439)"
       id="g16"><path
         id="path18"
         style="fill:#373535;fill-opacity:1;fill-rule:nonzero;stroke:none"
         d="m 0,0 20.437,-8.344 0,24.281 -8.291,3.411 0,-14.119 -5.437,2.291 0,14.065 L 0,24.343 0,0 Z" /></g><g
       transform="translate(12.7071,28.584)"
       id="g20"><path
         id="path22"
         style="fill:#373535;fill-opacity:1;fill-rule:nonzero;stroke:none"
         d="M 0,0 8.293,-3.428 29.105,5.072 20.707,8.546 0,0 Z" /></g><g
       transform="translate(21.2085,42.1767)"
       id="g24"><path
         id="path26"
         style="fill:#373535;fill-opacity:1;fill-rule:nonzero;stroke:none"
         d="M 0,0 -20.771,-8.52 -13.88,-11.369 6.829,-2.823 0,0 Z" /></g></g></svg>