<?xml version="1.0" encoding="utf-8"?>
<!-- Generator: Adobe Illustrator 17.0.0, SVG Export Plug-In . SVG Version: 6.00 Build 0)  -->
<!DOCTYPE svg PUBLIC "-//W3C//DTD SVG 1.1//EN" "http://www.w3.org/Graphics/SVG/1.1/DTD/svg11.dtd">
<svg version="1.1" id="Layer_1" xmlns="http://www.w3.org/2000/svg" xmlns:xlink="http://www.w3.org/1999/xlink" x="0px" y="0px"
	 width="48px" height="48px" viewBox="0 0 48 48" style="enable-background:new 0 0 48 48;" xml:space="preserve">
<g>
	<g>
		<g>
			<polygon style="fill:#00ACC8;" points="28,24.8 28,24.8 28,24.8 			"/>
			<path style="fill:#00ACC8;" d="M48,7C35.9,7,28.9,13.4,28,22.8c0.6-0.8,1.3-1.7,2-2.4c1.1-1.2,2.2-2.4,3.4-3.5
				c1.2-1.1,2.5-2.1,3.8-2.9c1.4-0.8,2.9-1.5,4.4-1.9c-1.5,0.5-2.9,1.3-4.1,2.3c-1.2,1-2.3,2.1-3.4,3.3c-1,1.2-2,2.4-2.8,3.7
				c-0.8,1.1-1.5,2.3-2.1,3.4h5.5C48.5,24.8,48,16.3,48,7z"/>
		</g>
		<g>
			<path style="fill:#00ACC8;" d="M13.8,17.7c-1-1.2-2.1-2.3-3.4-3.3c-1.2-1-2.6-1.8-4.1-2.3c1.6,0.3,3,1,4.4,1.9
				c1.4,0.8,2.6,1.9,3.8,2.9c1.2,1.1,2.3,2.3,3.4,3.5c0.7,0.8,1.3,1.6,2,2.4C19.1,13.4,12.1,7,0,7c0,9.3-0.5,17.8,13.2,17.8h5.5
				c-0.6-1.2-1.3-2.3-2.1-3.4C15.8,20.1,14.9,18.9,13.8,17.7z"/>
		</g>
		<g>
			<path style="fill:#00ACC8;" d="M43.5,41c0-7.2-0.8-12.7-10.3-12.7H29c0.5,0.7,1.1,1.4,1.6,2.1c0.7,0.8,1.5,1.6,2.3,2.4
				c1.6,1.5,3.5,2.8,5.6,3.5c-2.2-0.5-4.3-1.6-6.1-2.9c-0.9-0.7-1.8-1.4-2.7-2.1c-0.6-0.5-1.2-1.1-1.7-1.7
				C28.3,35.8,31.2,41,43.5,41z"/>
		</g>
		<g>
			<path style="fill:#00ACC8;" d="M18.3,31.3c-0.9,0.8-1.8,1.5-2.7,2.1c-1.9,1.3-3.9,2.4-6.1,2.9c2.1-0.7,4-2.1,5.6-3.5
				c0.8-0.7,1.6-1.5,2.3-2.4c0.6-0.7,1.1-1.4,1.6-2.1h-4.2C5.3,28.3,4.5,33.8,4.5,41c12.3,0,15.2-5.2,15.5-11.4
				C19.4,30.1,18.9,30.7,18.3,31.3z"/>
		</g>
		<path style="fill:#00ACC8;" d="M27.7,12.1c0.2-0.4,0-0.8-0.3-1c-0.4-0.2-0.8,0-1,0.3L24,16l-2.3-4.6c-0.2-0.4-0.6-0.5-1-0.3
			c-0.4,0.2-0.5,0.6-0.3,1c0,0,3.1,6,3.1,6c-0.4,1.3-0.6,2.7-0.8,4c-0.3,2-0.4,4-0.4,5.9c0,2,0.1,4,0.4,5.9c0.3,2,0.6,4,1.4,5.9
			c0.7-2,1.1-4,1.4-5.9c0.3-2,0.4-4,0.4-5.9c0-2-0.1-4-0.4-5.9c-0.2-1.3-0.4-2.7-0.8-4C24.6,18.1,27.7,12.1,27.7,12.1z"/>
	</g>
</g>
</svg>
