<?xml version="1.0" encoding="utf-8"?>
<!-- Generator: Adobe Illustrator 17.1.0, SVG Export Plug-In . SVG Version: 6.00 Build 0)  -->
<!DOCTYPE svg PUBLIC "-//W3C//DTD SVG 1.1//EN" "http://www.w3.org/Graphics/SVG/1.1/DTD/svg11.dtd">
<svg version="1.1" id="Layer_1" xmlns="http://www.w3.org/2000/svg" xmlns:xlink="http://www.w3.org/1999/xlink" x="0px" y="0px"
	 viewBox="0 0 100 100" enable-background="new 0 0 100 100" xml:space="preserve">
<g>
	<path d="M39,46.7V26.3c0-0.6-0.5-1.1-1.1-1.1c-0.6,0-1.1,0.5-1.1,1.1v20.4c-1.9,0.5-3.2,2.2-3.2,4.2s1.4,3.7,3.2,4.2v7.5
		c0,0.6,0.5,1.1,1.1,1.1c0.6,0,1.1-0.5,1.1-1.1v-7.5c1.9-0.5,3.2-2.2,3.2-4.2S40.8,47.2,39,46.7z M37.9,53c-1.2,0-2.1-1-2.1-2.1
		s1-2.1,2.1-2.1s2.1,1,2.1,2.1S39,53,37.9,53z"/>
	<path d="M52.4,37V26.3c0-0.6-0.5-1.1-1.1-1.1c-0.6,0-1.1,0.5-1.1,1.1V37c-1.9,0.5-3.2,2.2-3.2,4.2c0,2,1.4,3.7,3.2,4.2v17.2
		c0,0.6,0.5,1.1,1.1,1.1c0.6,0,1.1-0.5,1.1-1.1V45.4c1.9-0.5,3.2-2.2,3.2-4.2C55.6,39.2,54.3,37.5,52.4,37z M51.3,43.3
		c-1.2,0-2.1-1-2.1-2.1c0-1.2,1-2.1,2.1-2.1c0,0,0,0,0,0h0c1.2,0,2.1,1,2.1,2.1C53.4,42.4,52.5,43.3,51.3,43.3z"/>
	<path d="M65.8,28.4v-2.1c0-0.6-0.5-1.1-1.1-1.1s-1.1,0.5-1.1,1.1v2.1c-1.9,0.5-3.2,2.2-3.2,4.2s1.4,3.7,3.2,4.2v25.8
		c0,0.6,0.5,1.1,1.1,1.1s1.1-0.5,1.1-1.1V36.8c1.9-0.5,3.2-2.2,3.2-4.2S67.7,28.9,65.8,28.4z M64.7,34.7c-1.2,0-2.1-1-2.1-2.1
		s1-2.1,2.1-2.1c1.2,0,2.1,1,2.1,2.1S65.9,34.7,64.7,34.7z"/>
</g>
</svg>
