<?xml version="1.0" encoding="utf-8"?>
<!-- Generator: Adobe Illustrator 17.0.0, SVG Export Plug-In . SVG Version: 6.00 Build 0)  -->
<!DOCTYPE svg PUBLIC "-//W3C//DTD SVG 1.1//EN" "http://www.w3.org/Graphics/SVG/1.1/DTD/svg11.dtd">
<svg version="1.1" id="Layer_1" xmlns="http://www.w3.org/2000/svg" xmlns:xlink="http://www.w3.org/1999/xlink" x="0px" y="0px"
	 width="48px" height="48px" viewBox="0 0 48 48" style="enable-background:new 0 0 48 48;" xml:space="preserve">
<g>
	<path style="fill:#00ACC8;" d="M24,0C10.8,0,0,10.8,0,24c0,13.2,10.8,24,24,24c13.2,0,24-10.8,24-24C48,10.8,37.2,0,24,0z M24,44.5
		C12.7,44.5,3.5,35.3,3.5,24C3.5,12.7,12.7,3.5,24,3.5c11.3,0,20.5,9.2,20.5,20.5C44.5,35.3,35.3,44.5,24,44.5z"/>
	<g>
		<path style="fill:#00ACC8;" d="M24,33.5L13.1,18.7h21.9L24,33.5z"/>
	</g>
</g>
</svg>
