<svg xmlns="http://www.w3.org/2000/svg" xmlns:xlink="http://www.w3.org/1999/xlink" version="1.1" x="0px" y="0px" width="100px" height="100px" viewBox="0 0 100 100" enable-background="new 0 0 100 100" xml:space="preserve">
<g id="Captions">
</g>
<g id="Your_Icon">
	<path d="M67.853,45.122c0-6.678-4.952-12.09-11.063-12.09H41.376c-6.107,0-11.062,5.412-11.062,12.09v5.205   c0,0.232,0.02,0.456,0.031,0.685c-0.01,0.114-0.031,0.225-0.031,0.341v34.973c0,1.995,1.492,3.627,3.318,3.627h30.902   c1.824,0,3.317-1.632,3.317-3.627V51.352c0-0.116-0.021-0.227-0.031-0.341c0.012-0.229,0.031-0.453,0.031-0.685V45.122z"/>
	<g>
		<path d="M56.305,39.84c0,1.98-1.62,3.6-3.6,3.6h-7.242c-1.979,0-3.6-1.62-3.6-3.6V29.073c0-1.98,1.62-3.6,3.6-3.6h7.242    c1.979,0,3.6,1.62,3.6,3.6V39.84z"/>
	</g>
	<rect x="44.803" y="23.71" width="8.564" height="3.527"/>
	<rect x="47.069" y="16.411" width="4.031" height="10.827"/>
	<rect x="46.254" y="14.863" width="5.66" height="1.888"/>
	<path d="M66.708,14.236c-7.726,0.418-15.452,0.836-23.18,1.254c-0.764-1.753-1.526-3.562-2.292-5.425c9.256,0.5,18.51,1,27.764,1.5   C68.236,12.401,67.473,13.291,66.708,14.236z"/>
</g>
</svg>