<?xml version="1.0" encoding="utf-8"?>
<!-- Generator: Adobe Illustrator 17.1.0, SVG Export Plug-In . SVG Version: 6.00 Build 0)  -->
<!DOCTYPE svg PUBLIC "-//W3C//DTD SVG 1.1//EN" "http://www.w3.org/Graphics/SVG/1.1/DTD/svg11.dtd">
<svg version="1.1" id="Layer_1" xmlns="http://www.w3.org/2000/svg" xmlns:xlink="http://www.w3.org/1999/xlink" x="0px" y="0px"
	 viewBox="0 0 48 48" enable-background="new 0 0 48 48" xml:space="preserve">
<g>
	<path fill="#00ABC7" d="M40.659,10.704H7.342c-1.7,0-3.092,1.392-3.092,3.092v20.409c0,1.7,1.392,3.092,3.092,3.092h33.316
		c1.702,0,3.092-1.392,3.092-3.092V13.795C43.75,12.096,42.36,10.704,40.659,10.704z M7.342,13.159h33.316
		c0.346,0,0.639,0.293,0.639,0.637v2.25H6.704v-2.25C6.704,13.451,6.997,13.159,7.342,13.159z M40.659,34.842H7.342
		c-0.345,0-0.639-0.293-0.639-0.637V21.927h34.594v12.277C41.297,34.549,41.004,34.842,40.659,34.842z"/>
</g>
</svg>
