<?xml version="1.0" encoding="utf-8"?>
<!-- Generator: Adobe Illustrator 18.1.1, SVG Export Plug-In . SVG Version: 6.00 Build 0)  -->
<!DOCTYPE svg PUBLIC "-//W3C//DTD SVG 1.1//EN" "http://www.w3.org/Graphics/SVG/1.1/DTD/svg11.dtd">
<svg version="1.1" id="Layer_1" xmlns="http://www.w3.org/2000/svg" xmlns:xlink="http://www.w3.org/1999/xlink" x="0px" y="0px"
	 viewBox="0 0 48 48" style="enable-background:new 0 0 48 48;" xml:space="preserve">
<path style="fill:#00ACC8;" d="M30.9,17.8c0,0,0.1-0.4-1.8-0.7c0-0.3-0.6-1.1-1.4-1.9c-0.4-0.4-0.8-0.7-1.1-1
	c-0.3-0.4-0.6-0.9-0.7-1.3c-0.2-0.7-0.2-1.4-0.2-1.5c0.1-0.1,0.4-1.4-0.8-2c-0.1-0.1-0.4-0.2-0.7-0.2c-0.3,0-0.5,0.1-0.7,0.2
	c-1.2,0.6-0.9,1.9-0.8,2c0,0.1,0.1,0.7-0.2,1.5c-0.1,0.4-0.4,0.9-0.7,1.3c-0.3,0.3-0.8,0.7-1.1,1c-0.8,0.8-1.5,1.6-1.4,1.9
	c-1.7,0.2-1.8,0.6-1.8,0.6c-0.1,3.1,0.1,4.5,0.1,4.5s0-0.7,6.8-0.7c6.3,0,6.5,0.7,6.5,0.8C30.8,22.2,31,20.4,30.9,17.8z"/>
<path style="fill:#00ACC8;" d="M24,0C10.8,0,0,10.8,0,24c0,9.6,5.7,17.9,13.8,21.7C16.9,47.2,20.4,48,24,48s7.1-0.8,10.2-2.3
	C42.3,41.9,48,33.6,48,24C48,10.8,37.2,0,24,0z M34,41.8c-0.5-3.4-1.7-5.8-2.1-6.5c0.2-1.5,0.6-5,0-8.8v-0.3
	c-0.1-0.7-0.5-1.7-0.5-1.7s-0.3-0.4-0.4-0.6c-0.2-0.2-0.7-0.4-1.3-0.5c-5.2-0.5-9.5-0.2-11.1,0c-0.5,0.1-0.9,0.3-1.1,0.4
	c-0.2,0.2-0.3,0.4-0.5,0.7c-0.2,0.3-0.5,1.9-0.5,1.9s-0.8,3.9-0.1,8.9l0,0c-0.4,0.7-1.7,3.1-2.1,6.6C7.8,38.3,3.5,31.6,3.5,24
	C3.5,12.7,12.7,3.5,24,3.5S44.5,12.7,44.5,24C44.5,31.6,40.3,38.3,34,41.8z"/>
</svg>
