<?xml version="1.0" encoding="utf-8"?>
<!-- Generator: Adobe Illustrator 18.0.0, SVG Export Plug-In . SVG Version: 6.00 Build 0)  -->
<!DOCTYPE svg PUBLIC "-//W3C//DTD SVG 1.1//EN" "http://www.w3.org/Graphics/SVG/1.1/DTD/svg11.dtd">
<svg version="1.1" id="Layer_1" xmlns="http://www.w3.org/2000/svg" xmlns:xlink="http://www.w3.org/1999/xlink" x="0px" y="0px"
	 viewBox="0 0 50 50" enable-background="new 0 0 50 50" xml:space="preserve">
<path id="pinterest-circle-icon_1_" fill="#CB2027" d="M25,1C11.7,1,1,11.7,1,25s10.7,24,24,24s24-10.7,24-24S38.3,1,25,1z
	 M28.1,32.9c-1.9,0-3.6-1-4.2-2.2c0,0-1,4-1.2,4.8c-0.8,2.7-3,5.5-3.1,5.7c-0.1,0.2-0.4,0.1-0.4-0.1c0-0.3-0.6-3.8,0.1-6.6
	c0.3-1.4,2.2-9.5,2.2-9.5s-0.6-1.1-0.6-2.7c0-2.6,1.5-4.5,3.4-4.5c1.6,0,2.3,1.2,2.3,2.6c0,1.6-1,4-1.5,6.2
	c-0.4,1.8,0.9,3.3,2.7,3.3c3.3,0,5.5-4.2,5.5-9.2c0-3.8-2.6-6.7-7.2-6.7c-5.3,0-8.6,3.9-8.6,8.3c0,1.5,0.4,2.6,1.1,3.4
	c0.3,0.4,0.4,0.5,0.2,1c-0.1,0.3-0.3,1.1-0.4,1.4c-0.1,0.4-0.5,0.6-0.9,0.4c-2.4-1-3.6-3.6-3.6-6.6C14.1,17,18.3,11,26.5,11
	c6.6,0,11,4.8,11,10C37.5,27.8,33.7,32.9,28.1,32.9z"/>
</svg>
