<?xml version="1.0" encoding="utf-8"?>
<!-- Generator: Adobe Illustrator 18.0.0, SVG Export Plug-In . SVG Version: 6.00 Build 0)  -->
<!DOCTYPE svg PUBLIC "-//W3C//DTD SVG 1.1//EN" "http://www.w3.org/Graphics/SVG/1.1/DTD/svg11.dtd">
<svg version="1.1" id="Layer_1" xmlns="http://www.w3.org/2000/svg" xmlns:xlink="http://www.w3.org/1999/xlink" x="0px" y="0px"
	 viewBox="0 0 50 50" enable-background="new 0 0 50 50" xml:space="preserve">
<g id="Layer_2">
	<path id="twitter-4-icon_1_" fill="#2CA9E0" d="M37.1,20.9c0.4,7.8-5.5,16.6-15.8,16.6c-3.1,0-6.1-0.9-8.5-2.5
		c3,0.3,5.9-0.5,8.2-2.3c-2.4,0-4.5-1.7-5.2-3.9c0.9,0.2,1.7,0.1,2.5-0.1c-2.7-0.5-4.5-3-4.5-5.5c0.8,0.4,1.6,0.7,2.5,0.7
		c-2.5-1.7-3.2-4.9-1.7-7.4c2.7,3.4,6.8,5.6,11.5,5.8c-0.8-3.5,1.8-6.8,5.4-6.8c1.6,0,3,0.7,4.1,1.8c1.3-0.2,2.5-0.7,3.5-1.4
		c-0.4,1.3-1.3,2.4-2.4,3.1c1.1-0.1,2.2-0.4,3.2-0.9C39.1,19.1,38.2,20.1,37.1,20.9z"/>
</g>
</svg>
