<?xml version="1.0" encoding="utf-8"?>
<!-- Generator: Adobe Illustrator 17.0.0, SVG Export Plug-In . SVG Version: 6.00 Build 0)  -->
<!DOCTYPE svg PUBLIC "-//W3C//DTD SVG 1.1//EN" "http://www.w3.org/Graphics/SVG/1.1/DTD/svg11.dtd">
<svg version="1.1" id="Layer_1" xmlns="http://www.w3.org/2000/svg" xmlns:xlink="http://www.w3.org/1999/xlink" x="0px" y="0px"
	 width="48px" height="48px" viewBox="0 0 48 48" style="enable-background:new 0 0 48 48;" xml:space="preserve">
<style type="text/css">
	.st0{fill:#00ACC8;}
</style>
<g>
	<g>
		<path class="st0" d="M30.2,10.1L30.2,10.1c0.3,0,0.8,0,1.1,0.3c0.1,0.1,0.3,0.3,0.3,0.8c0,0.6-0.3,1.5-1.2,2.3
			c-1.1,1-2.8,1.8-4.1,1.8c-0.4,0-0.5-0.1-0.6-0.1c0,0,0,0,0,0c-0.2-0.5,0.3-2.6,1.8-3.9C28.3,10.5,29.3,10.1,30.2,10.1 M30.2,7.7
			c-1.5,0-3.1,0.6-4.4,1.8c-2.2,2.1-3.5,5.9-1.8,7.5c0.6,0.5,1.4,0.7,2.3,0.7c1.9,0,4.3-1,5.8-2.4c2.2-2.1,2.6-5,0.9-6.6
			C32.3,8,31.3,7.7,30.2,7.7L30.2,7.7z"/>
		<path class="st0" d="M17.8,10.1c0.9,0,1.9,0.4,2.7,1.2c1.5,1.4,2,3.5,1.8,3.9c0,0-0.2,0.1-0.6,0.1c-1.3,0-3-0.8-4.1-1.8
			c-0.9-0.8-1.2-1.7-1.2-2.3c0-0.5,0.2-0.7,0.3-0.8C17,10.1,17.5,10.1,17.8,10.1 M17.8,7.7c-1.1,0-2,0.3-2.8,1
			c-1.7,1.6-1.3,4.6,0.9,6.6c1.5,1.4,3.9,2.4,5.8,2.4c0.9,0,1.7-0.2,2.3-0.7c1.7-1.6,0.4-5.4-1.8-7.5C20.9,8.3,19.3,7.7,17.8,7.7
			L17.8,7.7z"/>
	</g>
	<g>
		<path class="st0" d="M38.3,27.2v-8.3c0-1.3-1.1-2.4-2.4-2.4H25.2v10.7H38.3z"/>
		<path class="st0" d="M25.2,29.6v10.7h10.7c1.3,0,2.4-1.1,2.4-2.4v-8.3H25.2z"/>
	</g>
	<g>
		<path class="st0" d="M22.8,27.2V16.5H12.1c-1.3,0-2.4,1.1-2.4,2.4v8.3H22.8z"/>
		<path class="st0" d="M9.7,29.6V38c0,1.3,1.1,2.4,2.4,2.4h10.7V29.6H9.7z"/>
	</g>
</g>
</svg>
