<?xml version="1.0" encoding="utf-8"?>
<!-- Generator: Adobe Illustrator 17.0.0, SVG Export Plug-In . SVG Version: 6.00 Build 0)  -->
<!DOCTYPE svg PUBLIC "-//W3C//DTD SVG 1.1//EN" "http://www.w3.org/Graphics/SVG/1.1/DTD/svg11.dtd">
<svg version="1.1" id="Layer_1" xmlns="http://www.w3.org/2000/svg" xmlns:xlink="http://www.w3.org/1999/xlink" x="0px" y="0px"
	 width="48px" height="48px" viewBox="0 0 48 48" style="enable-background:new 0 0 48 48;" xml:space="preserve">
<path style="fill:#F15D22;" d="M34.8,19.2l-13,13c-0.7,0.7-1.8,0.7-2.4,0l-6.1-6.1c-0.7-0.7-0.7-1.8,0-2.4l1-1
	c0.7-0.7,1.8-0.7,2.4,0l3.9,3.9l10.8-10.8c0.7-0.7,1.8-0.7,2.4,0l1,1C35.5,17.5,35.5,18.5,34.8,19.2 M24,0C10.7,0,0,10.7,0,24
	c0,13.3,10.7,24,24,24c13.3,0,24-10.7,24-24C48,10.7,37.3,0,24,0"/>
</svg>
