<?xml version="1.0" encoding="utf-8"?>
<!-- Generator: Adobe Illustrator 17.0.0, SVG Export Plug-In . SVG Version: 6.00 Build 0)  -->
<!DOCTYPE svg PUBLIC "-//W3C//DTD SVG 1.1//EN" "http://www.w3.org/Graphics/SVG/1.1/DTD/svg11.dtd">
<svg version="1.1" id="Layer_1" xmlns="http://www.w3.org/2000/svg" xmlns:xlink="http://www.w3.org/1999/xlink" x="0px" y="0px"
	 width="48px" height="48px" viewBox="0 0 48 48" style="enable-background:new 0 0 48 48;" xml:space="preserve">
<path style="fill:#00ACC8;" d="M24,0C10.8,0,0,10.8,0,24c0,13.2,10.8,24,24,24c13.2,0,24-10.8,24-24C48,10.8,37.2,0,24,0z M24,44.5
	C12.7,44.5,3.5,35.3,3.5,24C3.5,12.7,12.7,3.5,24,3.5c11.3,0,20.5,9.2,20.5,20.5C44.5,35.3,35.3,44.5,24,44.5z"/>
<g>
	<g>
		<g>
			<polygon style="fill:#00ACC8;" points="26,24.4 26,24.4 26,24.4 			"/>
			<path style="fill:#00ACC8;" d="M36.2,15.4c-6.1,0-9.7,3.2-10.1,8c0.3-0.4,0.6-0.8,1-1.2c0.5-0.6,1.1-1.2,1.7-1.8
				c0.6-0.6,1.3-1.1,2-1.5c0.7-0.4,1.5-0.8,2.2-0.9c-0.8,0.3-1.5,0.7-2.1,1.2c-0.6,0.5-1.2,1.1-1.7,1.7c-0.5,0.6-1,1.2-1.4,1.9
				c-0.4,0.6-0.7,1.2-1.1,1.7h2.8C36.4,24.4,36.2,20.1,36.2,15.4z"/>
		</g>
		<g>
			<path style="fill:#00ACC8;" d="M18.8,20.8c-0.5-0.6-1.1-1.2-1.7-1.7c-0.6-0.5-1.3-0.9-2.1-1.2c0.8,0.2,1.5,0.5,2.2,0.9
				c0.7,0.4,1.3,0.9,2,1.5c0.6,0.6,1.2,1.2,1.7,1.8c0.3,0.4,0.7,0.8,1,1.2c-0.4-4.8-4-8-10.1-8c0,4.7-0.2,9,6.7,9h2.8
				c-0.3-0.6-0.7-1.2-1.1-1.7C19.8,22,19.4,21.4,18.8,20.8z"/>
		</g>
		<g>
			<path style="fill:#00ACC8;" d="M33.9,32.6c0-3.7-0.4-6.4-5.2-6.4h-2.1c0.3,0.4,0.5,0.7,0.8,1.1c0.4,0.4,0.8,0.8,1.2,1.2
				c0.8,0.8,1.8,1.4,2.8,1.8c-1.1-0.2-2.2-0.8-3.1-1.5c-0.5-0.3-0.9-0.7-1.4-1.1c-0.3-0.3-0.6-0.6-0.9-0.9
				C26.2,30,27.6,32.6,33.9,32.6z"/>
		</g>
		<g>
			<path style="fill:#00ACC8;" d="M21.1,27.7c-0.4,0.4-0.9,0.8-1.4,1.1c-1,0.7-2,1.2-3.1,1.5c1.1-0.4,2-1,2.9-1.8
				c0.4-0.4,0.8-0.8,1.2-1.2c0.3-0.3,0.6-0.7,0.8-1.1h-2.1c-4.8,0-5.2,2.8-5.2,6.4c6.3,0,7.7-2.6,7.9-5.8
				C21.7,27.1,21.4,27.4,21.1,27.7z"/>
		</g>
		<path style="fill:#00ACC8;" d="M25.9,18c0.1-0.2,0-0.4-0.2-0.5c-0.2-0.1-0.4,0-0.5,0.2L24,20l-1.2-2.3c-0.1-0.2-0.3-0.3-0.5-0.2
			c-0.2,0.1-0.3,0.3-0.2,0.5c0,0,1.6,3,1.6,3c-0.2,0.7-0.3,1.4-0.4,2c-0.1,1-0.2,2-0.2,3c0,1,0.1,2,0.2,3c0.1,1,0.3,2,0.7,3
			c0.4-1,0.6-2,0.7-3c0.1-1,0.2-2,0.2-3c0-1-0.1-2-0.2-3c-0.1-0.7-0.2-1.4-0.4-2C24.3,21,25.9,18,25.9,18z"/>
	</g>
</g>
</svg>
