<?xml version="1.0" encoding="utf-8"?>
<!-- Generator: Adobe Illustrator 17.1.0, SVG Export Plug-In . SVG Version: 6.00 Build 0)  -->
<!DOCTYPE svg PUBLIC "-//W3C//DTD SVG 1.1//EN" "http://www.w3.org/Graphics/SVG/1.1/DTD/svg11.dtd">
<svg version="1.1" id="Layer_1" xmlns="http://www.w3.org/2000/svg" xmlns:xlink="http://www.w3.org/1999/xlink" x="0px" y="0px"
	 viewBox="0 0 48 48" enable-background="new 0 0 48 48" xml:space="preserve">
<g>
	<path fill="#00ABC7" d="M44.368,20.141l-6.422-1.183c-0.624-0.115-0.843-0.637-0.489-1.163l3.685-5.462
		c0.354-0.525,0.277-1.32-0.17-1.769L37.437,7.03c-0.448-0.448-1.243-0.525-1.769-0.17l-5.462,3.685
		c-0.525,0.354-1.049,0.133-1.163-0.488L27.86,3.632C27.745,3.01,27.132,2.5,26.499,2.5h-4.999c-0.633,0-1.245,0.51-1.36,1.132
		l-1.182,6.424c-0.115,0.622-0.639,0.843-1.164,0.488l-5.461-3.684c-0.525-0.354-1.32-0.278-1.769,0.17L7.03,10.565
		c-0.448,0.448-0.525,1.245-0.17,1.769l3.684,5.462c0.354,0.525,0.134,1.048-0.489,1.163l-6.422,1.183
		C3.009,20.255,2.5,20.868,2.5,21.502v4.998c0,0.633,0.509,1.245,1.132,1.361l6.424,1.182c0.622,0.115,0.842,0.639,0.488,1.163
		L6.86,35.668c-0.354,0.525-0.278,1.32,0.17,1.769l3.534,3.534c0.448,0.448,1.244,0.525,1.769,0.17l5.461-3.683
		c0.525-0.356,1.049-0.134,1.164,0.487l1.182,6.423c0.114,0.621,0.727,1.131,1.36,1.131h4.999c0.633,0,1.245-0.51,1.361-1.132
		l1.183-6.423c0.115-0.622,0.638-0.843,1.163-0.487l5.462,3.683c0.525,0.355,1.321,0.278,1.769-0.17l3.533-3.532
		c0.448-0.449,0.525-1.244,0.17-1.769l-3.685-5.463c-0.354-0.525-0.134-1.048,0.488-1.163l6.424-1.182
		c0.623-0.116,1.132-0.728,1.132-1.362v-4.998C45.5,20.868,44.991,20.255,44.368,20.141z M23.997,31.787
		c-4.291,0-7.769-3.479-7.769-7.769s3.479-7.769,7.769-7.769s7.769,3.479,7.769,7.769S28.287,31.787,23.997,31.787z"/>
</g>
</svg>
