<?xml version="1.0" encoding="utf-8"?>
<!-- Generator: Adobe Illustrator 17.0.0, SVG Export Plug-In . SVG Version: 6.00 Build 0)  -->
<!DOCTYPE svg PUBLIC "-//W3C//DTD SVG 1.1//EN" "http://www.w3.org/Graphics/SVG/1.1/DTD/svg11.dtd">
<svg version="1.1" id="Layer_1" xmlns="http://www.w3.org/2000/svg" xmlns:xlink="http://www.w3.org/1999/xlink" x="0px" y="0px"
	 width="48px" height="48px" viewBox="0 0 48 48" style="enable-background:new 0 0 48 48;" xml:space="preserve">
<g>
	<g>
		<g>
			<path style="fill:#FFFFFF;" d="M9.8,20c0,0-0.3,4.4,1.8,6.5c2.6,2.7,6.6,2.1,6.6,2.1s-0.8-3.9-2.6-5.7C12.5,19.9,9.8,20,9.8,20z"
				/>
		</g>
		<g>
			<path style="fill:#FFFFFF;" d="M18.2,28.7c0,0,0.2-4.6,3.1-5.7c2.9-1.1,5.4-0.6,5.4-0.6s-1.2,2.9-3.3,4.5
				C20.6,29,18.2,28.7,18.2,28.7z"/>
		</g>
	</g>
	<g>
		<g>
			<path style="fill:#FFFFFF;" d="M12.6,10.5c0,0-1.4,4.1,0.1,6.8c1.8,3.3,5.8,3.8,5.8,3.8s0.2-4-1-6.2
				C15.3,11.1,12.6,10.5,12.6,10.5z"/>
		</g>
		<g>
			<path style="fill:#FFFFFF;" d="M18.5,21c0,0,1.4-4.4,4.4-4.7c3.1-0.3,5.4,0.9,5.4,0.9s-1.9,2.5-4.4,3.5
				C20.8,21.9,18.5,21,18.5,21z"/>
		</g>
	</g>
	<g>
		<g>
			<path style="fill:#FFFFFF;" d="M17.8,2c0,0-2.4,3.6-1.7,6.6c0.9,3.6,4.7,5.1,4.7,5.1s1.3-3.8,0.6-6.3C20.3,3.2,17.8,2,17.8,2z"/>
		</g>
		<g>
			<path style="fill:#FFFFFF;" d="M20.8,13.7c0,0,2.5-3.9,5.5-3.4c3,0.5,5,2.2,5,2.2s-2.5,1.9-5.1,2.3
				C22.8,15.2,20.8,13.7,20.8,13.7z"/>
		</g>
	</g>
	<g>
		<path style="fill:#FFFFFF;" d="M29.2,0c0,0-3.3,0.7-4.6,2.7c-1.6,2.5-0.5,5.5-0.5,5.5s3.1-0.3,4.7-2.9C30,3.3,29.2,0,29.2,0z"/>
	</g>
	<g>
		<g>
			<path style="fill:#FFFFFF;" d="M20.9,37.6C16.4,27.3,18.4,15.9,25,7.8l-0.6-0.5c-6.8,8.3-8.8,20.1-4.3,30.7
				c2.1,4.8,3.5,7.1,7.4,10.1l0.9-0.4C24.5,44.7,22.9,42.4,20.9,37.6z"/>
		</g>
	</g>
	<g>
		<g>
			<path style="fill:#FFFFFF;" d="M35.4,34.9c0,0-1.2,3.2-3.4,4.1c-2.7,1.1-5.4-0.6-5.4-0.6s1.8-2.6,3.7-3.3
				C33.5,33.9,35.4,34.9,35.4,34.9z"/>
		</g>
		<g>
			<path style="fill:#FFFFFF;" d="M26.6,38.4c0,0,1.3-3.4-0.4-5.1c-1.7-1.7-3.7-2.1-3.7-2.1s-0.1,2.5,0.9,4.3
				C24.8,37.8,26.6,38.4,26.6,38.4z"/>
		</g>
	</g>
	<g>
		<g>
			<path style="fill:#FFFFFF;" d="M38.2,28.3c0,0-1.2,3.2-3.3,4.1c-2.7,1.1-5.4-0.5-5.4-0.5s1.8-2.6,3.7-3.3
				C36.3,27.4,38.2,28.3,38.2,28.3z"/>
		</g>
		<g>
			<path style="fill:#FFFFFF;" d="M29.5,31.9c0,0,1.3-3.4-0.5-5.1c-1.8-1.7-3.7-2.1-3.7-2.1s-0.1,2.5,1,4.3
				C27.6,31.4,29.5,31.9,29.5,31.9z"/>
		</g>
	</g>
	<g>
		<path style="fill:#FFFFFF;" d="M35.6,21.5c0,0,0.7,2.5-0.3,4.2c-1.2,2-3.6,2.3-3.6,2.3s-0.9-2.3,0.4-4.3
			C33,22.1,35.6,21.5,35.6,21.5z"/>
	</g>
	<g>
		<path style="fill:#FFFFFF;" d="M25.7,46.1c-0.2,0-0.4-0.2-0.4-0.4c-0.3-9.2,6.1-18.2,6.4-18.6c0.1-0.2,0.4-0.2,0.6-0.1
			c0.2,0.1,0.2,0.4,0.1,0.6c-0.1,0.1-6.5,9.1-6.2,18.1C26.1,45.9,26,46.1,25.7,46.1C25.7,46.1,25.7,46.1,25.7,46.1z"/>
	</g>
</g>
</svg>
