<?xml version="1.0" encoding="utf-8"?>
<!-- Generator: Adobe Illustrator 18.0.0, SVG Export Plug-In . SVG Version: 6.00 Build 0)  -->
<!DOCTYPE svg PUBLIC "-//W3C//DTD SVG 1.1//EN" "http://www.w3.org/Graphics/SVG/1.1/DTD/svg11.dtd">
<svg version="1.1" id="Layer_1" xmlns="http://www.w3.org/2000/svg" xmlns:xlink="http://www.w3.org/1999/xlink" x="0px" y="0px"
	 viewBox="0 0 48 48" enable-background="new 0 0 48 48" xml:space="preserve">
<g>
	<path fill="#00ACC8" d="M24,0C10.8,0,0,10.8,0,24c0,13.2,10.8,24,24,24c13.2,0,24-10.8,24-24C48,10.8,37.2,0,24,0z M24,44.5
		C12.7,44.5,3.5,35.3,3.5,24C3.5,12.7,12.7,3.5,24,3.5c11.3,0,20.5,9.2,20.5,20.5C44.5,35.3,35.3,44.5,24,44.5z"/>
	<g>
		<path fill="#00ACC8" d="M24,25.3L35.2,16c-0.1,0-0.1,0-0.2,0H13c-0.1,0-0.1,0-0.2,0L24,25.3z"/>
		<path fill="#00ACC8" d="M36,17c0-0.1,0-0.2-0.1-0.3L28,23.3l7.9,7.9c0-0.1,0-0.2,0-0.2V17z"/>
		<path fill="#00ACC8" d="M12.1,16.7c0,0.1-0.1,0.2-0.1,0.3v14c0,0.1,0,0.2,0.1,0.2l7.9-7.9L12.1,16.7z"/>
		<path fill="#00ACC8" d="M27.2,23.9l-2.9,2.4c-0.1,0.1-0.2,0.1-0.3,0.1c-0.1,0-0.2,0-0.3-0.1L20.8,24l-8,8c0.1,0,0.2,0,0.2,0h22
			c0.1,0,0.2,0,0.2,0L27.2,23.9z"/>
	</g>
</g>
</svg>
