<?xml version="1.0" encoding="utf-8"?>
<!-- Generator: Adobe Illustrator 17.1.0, SVG Export Plug-In . SVG Version: 6.00 Build 0)  -->
<!DOCTYPE svg PUBLIC "-//W3C//DTD SVG 1.1//EN" "http://www.w3.org/Graphics/SVG/1.1/DTD/svg11.dtd">
<svg version="1.1" id="Layer_1" xmlns="http://www.w3.org/2000/svg" xmlns:xlink="http://www.w3.org/1999/xlink" x="0px" y="0px"
	 viewBox="0 0 48 48" enable-background="new 0 0 48 48" xml:space="preserve">
<g>
	<path fill="#00ABC7" d="M33.142,33.778h-0.047c0.017,0.021,0.031,0.039,0.047,0.059V33.778z"/>
	<path fill="#00ABC7" d="M33.142,33.837c-0.016-0.02-0.03-0.038-0.047-0.059h-8.63c-1.557,0-2.819-1.262-2.819-2.819v-3.278
		c-0.516-0.142-1.055-0.267-1.616-0.368c1.148-1.228,2.017-3.15,2.911-5.427c0.519-1.319,0.429-2.443,0.429-4.045
		c0-1.182,0.224-3.081-0.07-4.124c-0.991-3.525-3.492-4.498-6.424-4.498c-2.933,0-5.438,0.977-6.427,4.509
		c-0.29,1.041-0.067,2.934-0.067,4.114c0,1.605-0.087,2.733,0.432,4.055c0.901,2.288,1.758,4.206,2.901,5.43
		c-4.453,0.82-7.462,3.142-9.493,4.047C0.021,33.246,0,35.297,0,35.297v3.484l33.144-0.005c0,0-0.001-0.008-0.001-0.012v-4.927
		H33.142z"/>
	<polygon fill="#00ABC7" points="48,28.358 35.961,17.954 35.961,25.759 24.466,25.759 24.466,30.959 35.961,30.959 35.961,38.764 	
		"/>
</g>
</svg>
