<?xml version="1.0" encoding="utf-8"?>
<!-- Generator: Adobe Illustrator 17.0.1, SVG Export Plug-In . SVG Version: 6.00 Build 0)  -->
<!DOCTYPE svg PUBLIC "-//W3C//DTD SVG 1.1//EN" "http://www.w3.org/Graphics/SVG/1.1/DTD/svg11.dtd">
<svg version="1.1" id="Layer_1" xmlns="http://www.w3.org/2000/svg" xmlns:xlink="http://www.w3.org/1999/xlink" x="0px" y="0px"
	 width="48px" height="48px" viewBox="0 0 48 48" enable-background="new 0 0 48 48" xml:space="preserve">
<path fill="#FFFFFF" d="M31.269,7.365c-3.966,2.288-7.368,7.383-9.15,10.403c-0.088,0.008-0.161-0.059-0.249-0.044
	c-0.674-3.812-2.508-9.846-7.603-11.753C6.672,3.127,0,4.374,0,4.374s3.035,7.712,8.658,11.95c4.304,3.248,8.3,4.259,10.844,4.56
	c-1.188,3.314-2.412,10.235,0.96,22.339c0.234,0.828,0.989,1.371,1.811,1.371c0.169,0,0.337-0.023,0.506-0.066
	c0.997-0.279,1.583-1.32,1.305-2.317c-3.827-13.703-1.305-19.876-0.594-21.232c3.483,0.857,9.773,1.649,15.514-1.811
	C45.764,15.085,48,3.794,48,3.794S41.174,1.668,31.269,7.365z"/>
</svg>
