<?xml version="1.0" encoding="utf-8"?>
<!-- Generator: Adobe Illustrator 17.1.0, SVG Export Plug-In . SVG Version: 6.00 Build 0)  -->
<!DOCTYPE svg PUBLIC "-//W3C//DTD SVG 1.1//EN" "http://www.w3.org/Graphics/SVG/1.1/DTD/svg11.dtd">
<svg version="1.1" id="Layer_1" xmlns="http://www.w3.org/2000/svg" xmlns:xlink="http://www.w3.org/1999/xlink" x="0px" y="0px"
	 viewBox="0 0 48 48" enable-background="new 0 0 48 48" xml:space="preserve">
<g>
	<g>
		<path fill="#00ACC8" d="M33.126,3.572L33.126,3.572c0.4,0,1.14,0.066,1.613,0.506c0.108,0.1,0.434,0.404,0.434,1.155
			c0,0.843-0.457,2.172-1.742,3.369c-1.573,1.465-4.166,2.57-6.032,2.57c-0.539,0-0.793-0.097-0.836-0.097
			c-0.003,0-0.005,0.001-0.005,0.001c-0.344-0.703,0.409-3.754,2.583-5.78C30.299,4.216,31.789,3.572,33.126,3.572 M33.126,0
			c-2.155,0-4.531,0.921-6.42,2.682c-3.25,3.03-5.147,8.616-2.618,10.972c0.814,0.758,1.986,1.09,3.311,1.09
			c2.792,0,6.261-1.473,8.467-3.528c3.249-3.029,3.837-7.395,1.308-9.752C36.115,0.478,34.677-0.001,33.126,0L33.126,0z"/>
		<path fill="#00ACC8" d="M14.874,3.572c1.337,0,2.827,0.644,3.985,1.723c2.19,2.041,2.938,5.121,2.635,5.731
			c-0.002,0.002-0.236,0.146-0.893,0.146c-1.867,0-4.458-1.105-6.03-2.57c-1.285-1.197-1.744-2.526-1.744-3.37
			c0-0.751,0.326-1.055,0.433-1.155C13.734,3.637,14.475,3.572,14.874,3.572 M14.874,0c-1.552,0-2.989,0.478-4.048,1.464
			c-2.528,2.356-1.94,6.723,1.31,9.752c2.204,2.055,5.671,3.528,8.464,3.528c1.325,0,2.497-0.332,3.311-1.09
			c2.529-2.356,0.633-7.942-2.617-10.972C19.404,0.921,17.029,0,14.874,0L14.874,0z"/>
	</g>
	<g>
		<path fill="#00ACC8" d="M45.004,28.746V16.494c0-1.926-1.575-3.501-3.501-3.501H25.75v15.753H45.004z"/>
		<path fill="#00ACC8" d="M25.75,32.247V48h15.753c1.926,0,3.501-1.575,3.501-3.501V32.247H25.75z"/>
	</g>
	<g>
		<path fill="#00ACC8" d="M22.25,28.746V12.993H6.497c-1.926,0-3.501,1.575-3.501,3.501v12.252H22.25z"/>
		<path fill="#00ACC8" d="M2.996,32.247v12.252C2.996,46.425,4.571,48,6.497,48H22.25V32.247H2.996z"/>
	</g>
</g>
</svg>
