<?xml version="1.0" encoding="utf-8"?>
<!-- Generator: Adobe Illustrator 17.0.0, SVG Export Plug-In . SVG Version: 6.00 Build 0)  -->
<!DOCTYPE svg PUBLIC "-//W3C//DTD SVG 1.1//EN" "http://www.w3.org/Graphics/SVG/1.1/DTD/svg11.dtd">
<svg version="1.1" id="Layer_1" xmlns="http://www.w3.org/2000/svg" xmlns:xlink="http://www.w3.org/1999/xlink" x="0px" y="0px"
	 width="48px" height="48px" viewBox="0 0 48 48" style="enable-background:new 0 0 48 48;" xml:space="preserve">
<style type="text/css">
	.st0{fill:#2CAAE1;}
</style>
<path class="st0" d="M24,0C10.8,0,0,10.8,0,24c0,13.2,10.7,24,24,24s24-10.7,24-24C48,10.8,37.2,0,24,0z M37,17.3c0,0.3,0,0.6,0,0.9
	c0,8.9-6.7,19.1-19.1,19.1c-3.8,0-7.3-1.1-10.3-3c0.5,0.1,1.1,0.1,1.6,0.1c3.1,0,6-1.1,8.3-2.9c-2.9,0-5.4-2-6.3-4.7
	c0.4,0.1,0.8,0.1,1.3,0.1c0.6,0,1.2-0.1,1.8-0.2C11.3,26.1,9,23.4,9,20.1c0,0,0-0.1,0-0.1c0.9,0.5,1.9,0.8,3,0.8
	c-1.8-1.2-3-3.3-3-5.6c0-1.2,0.3-2.4,0.9-3.4c3.3,4.1,8.3,6.7,13.8,7c-0.1-0.5-0.2-1-0.2-1.5c0-3.7,3-6.7,6.7-6.7
	c1.9,0,3.7,0.8,4.9,2.1c1.5-0.3,3-0.9,4.3-1.6c-0.5,1.6-1.6,2.9-2.9,3.7c1.4-0.2,2.6-0.5,3.9-1.1C39.5,15.2,38.3,16.4,37,17.3z"/>
</svg>
