<?xml version="1.0" encoding="utf-8"?>
<!-- Generator: Adobe Illustrator 17.0.0, SVG Export Plug-In . SVG Version: 6.00 Build 0)  -->
<!DOCTYPE svg PUBLIC "-//W3C//DTD SVG 1.1//EN" "http://www.w3.org/Graphics/SVG/1.1/DTD/svg11.dtd">
<svg version="1.1" id="Layer_1" xmlns="http://www.w3.org/2000/svg" xmlns:xlink="http://www.w3.org/1999/xlink" x="0px" y="0px"
	 width="48px" height="48px" viewBox="0 0 48 48" style="enable-background:new 0 0 48 48;" xml:space="preserve">
<style type="text/css">
	.st0{fill:#00ACC8;}
</style>
<g>
	<g>
		<g>
			<polygon class="st0" points="27.1,24.6 27.1,24.6 27.1,24.6 			"/>
			<path class="st0" d="M42.5,10.9c-9.3,0-14.7,4.9-15.4,12.2c0.5-0.6,1-1.3,1.5-1.9c0.8-0.9,1.7-1.9,2.6-2.7c0.9-0.8,1.9-1.6,3-2.3
				c1.1-0.7,2.2-1.2,3.4-1.4c-1.2,0.4-2.2,1-3.2,1.8c-0.9,0.8-1.8,1.6-2.6,2.5C31.1,20,30.3,21,29.6,22c-0.6,0.9-1.1,1.7-1.6,2.6
				h4.3C42.9,24.6,42.5,18.1,42.5,10.9z"/>
		</g>
		<g>
			<path class="st0" d="M16.2,19.1c-0.8-0.9-1.6-1.8-2.6-2.5c-0.9-0.7-2-1.4-3.2-1.8c1.2,0.3,2.3,0.8,3.4,1.4c1.1,0.7,2,1.4,3,2.3
				c0.9,0.8,1.8,1.7,2.6,2.7c0.5,0.6,1,1.2,1.5,1.9c-0.7-7.3-6.1-12.2-15.4-12.2c0,7.2-0.4,13.7,10.2,13.7H20
				c-0.5-0.9-1-1.8-1.6-2.6C17.7,21,16.9,20,16.2,19.1z"/>
		</g>
		<g>
			<path class="st0" d="M39,37.1c0-5.5-0.6-9.8-7.9-9.8h-3.2c0.4,0.5,0.8,1.1,1.3,1.6c0.6,0.6,1.2,1.3,1.8,1.8
				c1.3,1.1,2.7,2.2,4.3,2.7c-1.7-0.4-3.3-1.2-4.7-2.2c-0.7-0.5-1.4-1.1-2.1-1.7c-0.5-0.4-0.9-0.9-1.3-1.3
				C27.3,33.1,29.5,37.1,39,37.1z"/>
		</g>
		<g>
			<path class="st0" d="M19.6,29.6c-0.7,0.6-1.4,1.1-2.1,1.7c-1.4,1-3,1.9-4.7,2.2c1.6-0.6,3.1-1.6,4.3-2.7c0.6-0.6,1.2-1.2,1.8-1.8
				c0.4-0.5,0.9-1.1,1.3-1.6h-3.2c-7.3,0-7.9,4.2-7.9,9.8c9.5,0,11.7-4,12-8.8C20.5,28.7,20,29.2,19.6,29.6z"/>
		</g>
		<path class="st0" d="M26.8,14.8c0.1-0.3,0-0.6-0.2-0.8c-0.3-0.1-0.6,0-0.8,0.2L24,17.9l-1.8-3.5c-0.1-0.3-0.5-0.4-0.8-0.2
			c-0.3,0.1-0.4,0.5-0.2,0.8c0,0,2.4,4.6,2.4,4.6c-0.3,1-0.5,2.1-0.6,3.1c-0.2,1.5-0.3,3.1-0.3,4.6c0,1.5,0.1,3.1,0.3,4.6
			c0.2,1.5,0.5,3.1,1.1,4.6c0.6-1.5,0.8-3.1,1.1-4.6c0.2-1.5,0.3-3.1,0.3-4.6c0-1.5-0.1-3.1-0.3-4.6c-0.1-1-0.3-2.1-0.6-3.1
			C24.5,19.4,26.8,14.8,26.8,14.8z"/>
	</g>
</g>
</svg>
