<?xml version="1.0" encoding="utf-8"?>
<!-- Generator: Adobe Illustrator 17.0.0, SVG Export Plug-In . SVG Version: 6.00 Build 0)  -->
<!DOCTYPE svg PUBLIC "-//W3C//DTD SVG 1.1//EN" "http://www.w3.org/Graphics/SVG/1.1/DTD/svg11.dtd">
<svg version="1.1" id="Layer_1" xmlns="http://www.w3.org/2000/svg" xmlns:xlink="http://www.w3.org/1999/xlink" x="0px" y="0px"
	 width="48px" height="48px" viewBox="0 0 48 48" style="enable-background:new 0 0 48 48;" xml:space="preserve">
<g>
	<path style="fill:#00B5CC;" d="M25.8,26.8c0.2-0.1,0.3-0.2,0.4-0.4c0.1-0.1,0.2-0.3,0.2-0.5c0-0.2,0-0.4,0-0.6
		c-0.1-0.4-0.3-0.6-0.5-0.7c-0.3-0.1-0.7-0.2-1.3-0.2l0.7,2.6C25.5,27,25.7,26.9,25.8,26.8 M22.3,20.5c-0.1,0.1-0.2,0.2-0.3,0.3
		c-0.1,0.1-0.2,0.3-0.2,0.4c0,0.2,0,0.3,0,0.5c0.1,0.3,0.2,0.5,0.5,0.6c0.2,0.1,0.6,0.2,1,0.1l-0.6-2.2
		C22.5,20.3,22.4,20.4,22.3,20.5 M23.4,27c0.4,0.2,0.8,0.3,1.2,0.3l-0.8-2.8c0,0-0.1,0-0.2,0c-0.1,0-0.2,0-0.3,0
		c-0.4,0-0.7,0-1.1-0.1c-0.4,0-0.7-0.1-1-0.3c-0.3-0.1-0.6-0.3-0.8-0.6c-0.2-0.3-0.4-0.6-0.5-1.1c-0.1-0.5-0.1-0.9-0.1-1.3
		c0.1-0.4,0.2-0.8,0.5-1.1c0.2-0.3,0.5-0.6,0.8-0.8c0.3-0.2,0.7-0.4,1.1-0.5l-0.3-1l0.8-0.2l0.3,1c0.4-0.1,0.8-0.1,1.2,0
		c0.4,0,0.7,0.1,1.1,0.3c0.3,0.2,0.6,0.4,0.9,0.7c0.3,0.3,0.5,0.7,0.6,1.1L25,21.1c-0.1-0.4-0.3-0.6-0.6-0.8
		c-0.3-0.2-0.6-0.2-0.9-0.2l0.6,2.4c0.1,0,0.2,0,0.4,0c0.1,0,0.2,0,0.4,0c0.7,0,1.3,0.1,1.7,0.3c0.4,0.2,0.8,0.4,1,0.6
		c0.2,0.2,0.4,0.5,0.5,0.8c0.1,0.3,0.2,0.5,0.3,0.8c0.1,0.2,0.1,0.5,0.1,0.8c0,0.3-0.1,0.7-0.3,1c-0.2,0.4-0.5,0.7-0.8,1
		c-0.4,0.3-0.9,0.6-1.6,0.9l0.3,1.1L25.3,30L25,28.8c-1,0.2-1.9,0.1-2.6-0.3c-0.7-0.4-1.3-1.1-1.6-2.2l1.9-0.5
		C22.8,26.4,23,26.7,23.4,27"/>
	<path style="fill:#00B5CC;" d="M39,22.8c-1.6,0.4-3.2-0.5-3.6-2.1c-0.4-1.6,0.5-3.2,2.1-3.6c1.6-0.4,3.2,0.5,3.6,2.1
		C41.4,20.7,40.5,22.3,39,22.8 M26.3,32.2c-4.7,1.3-9.5-1.5-10.8-6.2c-1.3-4.7,1.5-9.5,6.2-10.8c4.7-1.3,9.5,1.5,10.8,6.2
		C33.8,26.1,31,31,26.3,32.2 M10.6,30.4C9,30.8,7.4,29.9,7,28.3c-0.4-1.6,0.5-3.2,2.1-3.6c1.6-0.4,3.2,0.5,3.6,2.1
		C13.1,28.3,12.1,29.9,10.6,30.4 M40.8,7L1.1,17.7c-0.8,0.2-1.2,1-1,1.8l5.3,19.9c0.2,0.8,1,1.2,1.8,1l39.7-10.6
		c0.8-0.2,1.2-1,1-1.8L42.6,8.1C42.4,7.3,41.6,6.8,40.8,7"/>
</g>
</svg>
