<?xml version="1.0" encoding="utf-8"?>
<!-- Generator: Adobe Illustrator 17.0.0, SVG Export Plug-In . SVG Version: 6.00 Build 0)  -->
<!DOCTYPE svg PUBLIC "-//W3C//DTD SVG 1.1//EN" "http://www.w3.org/Graphics/SVG/1.1/DTD/svg11.dtd">
<svg version="1.1" id="Layer_1" xmlns="http://www.w3.org/2000/svg" xmlns:xlink="http://www.w3.org/1999/xlink" x="0px" y="0px"
	 width="48px" height="48px" viewBox="0 0 48 48" style="enable-background:new 0 0 48 48;" xml:space="preserve">
<g>
	<g>
		<g>
			<g>
				<g>
					<polygon style="fill:#00ACC8;" points="26.6,24.6 26.6,24.6 26.6,24.6 					"/>
					<path style="fill:#00ACC8;" d="M39.5,13.1c-7.8,0-12.3,4.1-12.9,10.2c0.4-0.5,0.8-1.1,1.3-1.6c0.7-0.8,1.4-1.5,2.2-2.3
						c0.8-0.7,1.6-1.4,2.5-1.9c0.9-0.5,1.8-1,2.9-1.2c-1,0.3-1.9,0.9-2.6,1.5c-0.8,0.6-1.5,1.3-2.2,2.1c-0.7,0.8-1.3,1.6-1.8,2.4
						c-0.5,0.7-0.9,1.5-1.4,2.2H31C39.8,24.6,39.5,19.1,39.5,13.1z"/>
				</g>
				<g>
					<path style="fill:#00ACC8;" d="M17.4,19.9c-0.7-0.8-1.4-1.5-2.2-2.1c-0.8-0.6-1.7-1.2-2.7-1.5c1,0.2,2,0.7,2.9,1.2
						c0.9,0.5,1.7,1.2,2.5,1.9c0.8,0.7,1.5,1.5,2.2,2.3c0.4,0.5,0.9,1,1.3,1.6c-0.5-6.1-5.1-10.2-12.9-10.2c0,6-0.3,11.5,8.6,11.5
						h3.6c-0.4-0.7-0.9-1.5-1.4-2.2C18.7,21.5,18.1,20.7,17.4,19.9z"/>
				</g>
				<g>
					<path style="fill:#00ACC8;" d="M36.6,35c0-4.7-0.5-8.2-6.6-8.2h-2.7c0.3,0.5,0.7,0.9,1.1,1.3c0.5,0.5,1,1.1,1.5,1.5
						c1.1,1,2.2,1.8,3.6,2.3c-1.4-0.3-2.8-1-4-1.9c-0.6-0.4-1.2-0.9-1.7-1.4c-0.4-0.4-0.8-0.7-1.1-1.1C26.8,31.6,28.7,35,36.6,35z"
						/>
				</g>
				<g>
					<path style="fill:#00ACC8;" d="M20.3,28.7c-0.6,0.5-1.1,1-1.7,1.4c-1.2,0.8-2.5,1.6-4,1.9c1.4-0.5,2.6-1.3,3.6-2.3
						c0.5-0.5,1-1,1.5-1.5c0.4-0.4,0.7-0.9,1.1-1.3h-2.7c-6.1,0-6.6,3.5-6.6,8.2c8,0,9.8-3.3,10-7.4C21.1,28,20.7,28.4,20.3,28.7z"
						/>
				</g>
				<path style="fill:#00ACC8;" d="M26.4,16.3c0.1-0.2,0-0.5-0.2-0.6c-0.2-0.1-0.5,0-0.6,0.2l-1.5,3l-1.5-3
					c-0.1-0.2-0.4-0.3-0.6-0.2c-0.2,0.1-0.3,0.4-0.2,0.6c0,0,2,3.9,2,3.9c-0.2,0.9-0.4,1.7-0.5,2.6c-0.2,1.3-0.2,2.6-0.2,3.8
					c0,1.3,0.1,2.6,0.2,3.8c0.2,1.3,0.4,2.6,0.9,3.8c0.5-1.3,0.7-2.6,0.9-3.8c0.2-1.3,0.2-2.6,0.2-3.8c0-1.3-0.1-2.6-0.2-3.8
					c-0.1-0.9-0.3-1.7-0.5-2.6C24.4,20.2,26.4,16.3,26.4,16.3z"/>
			</g>
		</g>
		<path style="fill:#00ACC8;" d="M24,48C10.8,48,0,37.3,0,24S10.8,0,24,0c13.2,0,24,10.8,24,24S37.3,48,24,48z M24,1.8
			C11.8,1.8,1.8,11.8,1.8,24c0,12.2,10,22.2,22.2,22.2c12.2,0,22.2-10,22.2-22.2C46.2,11.8,36.3,1.8,24,1.8z"/>
	</g>
</g>
</svg>
