<?xml version="1.0" encoding="utf-8"?>
<!-- Generator: Adobe Illustrator 17.0.2, SVG Export Plug-In . SVG Version: 6.00 Build 0)  -->
<!DOCTYPE svg PUBLIC "-//W3C//DTD SVG 1.1//EN" "http://www.w3.org/Graphics/SVG/1.1/DTD/svg11.dtd">
<svg version="1.1" id="Layer_1" xmlns="http://www.w3.org/2000/svg" xmlns:xlink="http://www.w3.org/1999/xlink" x="0px" y="0px"
	 width="46.703px" height="46.703px" viewBox="0 0 46.703 46.703" enable-background="new 0 0 46.703 46.703" xml:space="preserve">
<circle fill="#8DD7F8" cx="23.352" cy="23.352" r="23.352"/>
<path fill="#FFFFFF" d="M25.109,28.191c-0.34-0.315-0.69-0.618-1.054-0.905c-0.044-0.067-0.109-0.117-0.186-0.145l-0.006-0.004
	c-0.007-0.044-0.019-0.089-0.043-0.134c-0.027-0.051-0.048-0.105-0.07-0.159c0.225-0.624,0.361-1.283,0.457-1.946
	c0.398,0.313,0.762,0.657,0.973,1.138c0.036,0.082,0.09,0.142,0.153,0.183C25.219,26.842,25.115,27.525,25.109,28.191 M19.79,27.456
	c0.205-0.596,0.324-1.224,0.487-1.834c0.686-0.233,1.356-0.494,1.995-0.85c0.059-0.018,0.118-0.037,0.177-0.055
	c-0.073,0.31-0.126,0.624-0.138,0.946c-0.08,0.296-0.151,0.593-0.22,0.892c-0.6,0.234-1.236,0.511-1.802,0.865
	c-0.033-0.007-0.066-0.012-0.1-0.012c-0.014,0-0.027,0.001-0.041,0.002C20.028,27.424,19.909,27.44,19.79,27.456 M27.077,24.819
	c-0.473-0.367-0.948-0.731-1.42-1.097c0.056-0.018,0.113-0.035,0.169-0.052c0.514-0.156,1.027-0.315,1.54-0.473
	c0.415,0.351,0.83,0.699,1.281,1.003c0.031,0.04,0.063,0.078,0.095,0.117C28.181,24.454,27.632,24.655,27.077,24.819 M19.332,23.588
	c-0.412-0.348-0.825-0.693-1.273-0.994c-0.057-0.072-0.115-0.142-0.173-0.213c0.833-0.063,1.622-0.375,2.421-0.616
	c0.346,0.424,0.742,0.809,1.16,1.169c-0.195,0.06-0.39,0.121-0.586,0.181C20.365,23.271,19.849,23.43,19.332,23.588 M24.714,21.932
	c0.057-0.586,0.143-1.163,0.491-1.661c0.052-0.074,0.074-0.151,0.076-0.225c0.543-0.209,1.122-0.453,1.656-0.756
	c-0.222,0.625-0.343,1.289-0.518,1.93c-0.407,0.16-0.805,0.339-1.193,0.553C25.056,21.826,24.885,21.879,24.714,21.932
	 M28.46,20.529c0.086-0.463,0.183-0.924,0.28-1.385c0.289-0.163,0.552-0.359,0.796-0.576c1.208,0.369,2.439,0.625,3.689,0.766
	c-0.084,0.005-0.169,0.008-0.253,0.008c-0.165,0-0.33-0.01-0.495-0.028c-0.013-0.001-0.025-0.002-0.038-0.002
	c-0.1,0-0.179,0.045-0.232,0.11c-0.193,0.017-0.385,0.049-0.577,0.087c-0.07,0.009-0.14,0.023-0.21,0.042l-0.006,0.002
	c-0.016,0.004-0.031,0.008-0.047,0.012c-0.764,0.186-1.511,0.497-2.241,0.745C28.905,20.386,28.682,20.458,28.46,20.529
	 M22.83,21.373c-0.103-0.091-0.207-0.181-0.309-0.273c-0.313-0.278-0.627-0.555-0.94-0.833c0.101-0.664,0.217-1.324,0.247-1.995
	c0.038-0.102,0.074-0.206,0.11-0.308c0.405,0.396,0.825,0.775,1.263,1.132C23.026,19.849,22.876,20.599,22.83,21.373 M18.123,5.091
	c-0.171,0-0.338,0.052-0.462,0.154c-0.129,0.037-0.26,0.086-0.39,0.141c-0.029-0.004-0.059-0.006-0.089-0.006
	c-0.07,0-0.143,0.01-0.22,0.035c-0.127,0.041-0.231,0.086-0.322,0.152c-0.019-0.003-0.038-0.005-0.057-0.005
	c-0.186,0-0.376,0.158-0.3,0.387c0.01,0.03,0.02,0.06,0.03,0.09c-0.061,0.194-0.041,0.386,0.079,0.598
	c0.112,0.197,0.219,0.396,0.324,0.596c0.221,0.652,0.444,1.304,0.671,1.954c-0.34-0.14-0.703-0.296-1.055-0.296
	c-0.1,0-0.2,0.013-0.297,0.042c-0.037-0.011-0.074-0.016-0.11-0.016c-0.136,0-0.255,0.078-0.294,0.231
	c-0.004,0.017-0.009,0.034-0.014,0.051c-0.291,0.327-0.406,0.887-0.354,1.344c-0.023,0.144-0.038,0.29-0.039,0.441
	c-0.001,0.139,0.114,0.246,0.24,0.279c0.162,0.042,0.325,0.078,0.489,0.112c0.156,0.048,0.322,0.079,0.48,0.101
	c0.26,0.057,0.519,0.122,0.771,0.215c0.349,0.13,0.685,0.256,1.036,0.356c0.124,0.343,0.251,0.684,0.378,1.026
	c-1.001-0.217-2.102-0.046-3.087-0.409c-0.051-0.019-0.1-0.027-0.146-0.027c-0.017,0-0.033,0.001-0.049,0.003
	c-0.023-0.004-0.046-0.006-0.07-0.006c-0.152,0-0.311,0.077-0.362,0.22c-0.173,0.486-0.279,0.962-0.305,1.468
	c-0.242,0.173-0.242,0.645,0.139,0.735c1.559,0.37,3.071,0.684,4.57,1.259c0.442,0.17,0.686,0.708,0.859,1.266
	c-0.135,0.371-0.257,0.747-0.349,1.129c-0.467-0.411-0.934-0.822-1.401-1.233c-0.551-0.485-1.385-1.233-2.203-1.233
	c-0.154,0-0.308,0.027-0.46,0.087c-0.023,0.009-0.044,0.022-0.064,0.034c-0.032-0.007-0.065-0.011-0.098-0.011
	c-0.251,0-0.502,0.209-0.388,0.51c0.589,1.556,1.821,2.622,3.048,3.683c-0.429,0.156-0.86,0.306-1.288,0.462
	c-0.027,0.01-0.051,0.023-0.072,0.037c-0.484-0.123-0.971-0.236-1.461-0.337c-0.519-1.602-0.745-3.284-1.546-4.787
	c-0.058-0.108-0.207-0.182-0.34-0.182c-0.043,0-0.085,0.008-0.121,0.025c-0.469,0.218-0.951,0.387-1.441,0.552
	c-0.048,0.016-0.087,0.039-0.121,0.065c-0.214,0.048-0.382,0.235-0.26,0.486c0.473,0.976,0.819,1.994,1.042,3.047
	c-0.026,0.089-0.048,0.181-0.066,0.276c-0.476-0.08-0.952-0.16-1.427-0.244c-0.172-0.677-0.396-1.708-0.897-2.296
	c-0.01-0.07-0.021-0.14-0.031-0.209c-0.035-0.244-0.237-0.361-0.43-0.361c-0.001,0-0.003,0-0.004,0
	c-0.017-0.021-0.042-0.036-0.072-0.036c-0.011,0-0.022,0.002-0.033,0.006c-0.006,0.002-0.009,0.006-0.014,0.009
	c-0.006,0.001-0.011,0-0.018,0.002c-0.502,0.151-1.105,0.118-1.539,0.447c-0.064,0.049-0.106,0.1-0.138,0.153
	c-0.009,0-0.019,0.002-0.029,0.005c-0.082,0.027-0.081,0.121-0.034,0.168c-0.02,0.189,0.077,0.394,0.151,0.605
	c0.011,0.031,0.031,0.05,0.055,0.059l0.298,0.89c-0.895-0.219-1.779-0.479-2.645-0.813c-0.095-0.036-0.187-0.053-0.274-0.053
	c-0.491,0-0.84,0.518-0.729,0.92c-0.054,0.097-0.084,0.212-0.092,0.328c-0.062,0.076-0.112,0.169-0.14,0.285
	c-0.057,0.238-0.065,0.418,0.043,0.642c0.147,0.307,0.357,0.469,0.705,0.479c0.771,0.023,1.535,0.095,2.295,0.196
	c0.039,0.015,0.08,0.027,0.127,0.03c0.178,0.013,0.331,0.054,0.461,0.114c-0.476,0.37-1.136,0.735-1.136,1.401
	c0,0.644,0.813,1.306,1.401,1.377c0.024,0.003,0.047,0.004,0.071,0.004c0.491,0,0.914-0.61,1.179-0.941
	c0.306-0.384,0.618-0.807,0.864-1.25c0.507,0.139,1.019,0.261,1.528,0.389c-0.787,0.747-1.213,1.861-2.086,2.551
	c-0.329,0.26-0.095,0.751,0.224,0.751c0.019,0,0.038-0.002,0.058-0.005c0.297,0.314,0.625,0.601,0.903,0.933
	c0.091,0.108,0.223,0.176,0.354,0.176c0.102,0,0.203-0.041,0.282-0.135c1.061-1.258,2.212-2.442,3.148-3.8
	c0.048,0.024,0.103,0.039,0.168,0.039c0.015,0,0.03-0.001,0.045-0.002c0.011-0.001,0.022-0.002,0.033-0.003
	c0.046,0.045,0.105,0.081,0.181,0.101c0.43,0.113,0.868,0.172,1.311,0.175c0.03,0.007,0.06,0.01,0.09,0.01c0.003,0,0.005,0,0.008,0
	c0.274,0.265,0.52,0.556,0.764,0.849c-0.636,0.196-1.273,0.393-1.909,0.59c-0.834,0.258-2.195,0.662-2.368,1.672
	c-0.019,0.109,0.008,0.216,0.065,0.303c-0.157,0.251,0.046,0.604,0.345,0.604c0.007,0,0.015,0,0.022-0.001
	c0.092-0.005,0.184-0.007,0.275-0.007c0.12,0,0.241,0.003,0.361,0.007c0.12,0.003,0.239,0.007,0.359,0.007
	c0.092,0,0.184-0.002,0.277-0.007c0.258-0.015,0.53-0.117,0.791-0.238c0.846-0.159,1.671-0.502,2.475-0.781
	c-0.111,0.597-0.239,1.191-0.361,1.786c-0.051,0.03-0.101,0.07-0.146,0.128c-0.185,0.238-0.396,0.446-0.621,0.638
	c-1.502-0.399-3.026-0.725-4.585-0.757c-0.088-0.14-0.234-0.236-0.414-0.236c-0.009,0-0.018,0-0.028,0.001
	c-0.261,0.014-0.506,0.256-0.475,0.529c0.034,0.306,0.005,0.513-0.095,0.823c-0.004,0.011-0.004,0.023-0.006,0.034
	c-0.079,0.097-0.127,0.21-0.13,0.328c-0.134,0.298,0.019,0.73,0.429,0.73c0.012,0,0.024,0,0.036-0.001
	c0.084-0.005,0.169-0.007,0.252-0.007c0.937,0,1.846,0.297,2.758,0.517c-0.309,0.376-0.608,0.761-0.9,1.151
	c-0.426-0.119-0.911-0.172-1.386-0.172c-0.252,0-0.501,0.015-0.736,0.044c-0.069-0.009-0.137-0.02-0.207-0.027
	c-0.023-0.002-0.046-0.004-0.069-0.004c-0.092,0-0.18,0.019-0.259,0.056c-0.092,0.006-0.179,0.05-0.228,0.14
	c-0.091,0.056-0.161,0.169-0.145,0.273c0.011,0.073,0.022,0.145,0.032,0.217c-0.172,0.871-0.258,1.679,0.918,1.806
	c0.188,0.02,0.48,0.075,0.76,0.086c-0.584,0.686-1.158,1.38-1.737,2.059c-0.723,0.848,0.27,1.354,0.899,1.815
	c-0.013,0.172,0.148,0.329,0.317,0.329c0.075,0,0.152-0.031,0.216-0.106c0.749-0.887,1.494-1.778,2.233-2.674
	c0.189,0.421,0.349,0.851,0.44,1.307c0.032,0.16,0.148,0.274,0.301,0.274c0.032,0,0.066-0.005,0.101-0.016
	c0.611-0.189,1.225-0.273,1.781-0.608c0.119-0.072,0.151-0.225,0.114-0.349c-0.172-0.573-0.425-1.117-0.539-1.707
	c-0.071-0.365-0.138-0.718-0.234-1.068c0.32-0.398,0.635-0.801,0.952-1.202c0.382,1.08,0.978,2.101,1.039,3.262
	c0.009,0.181,0.188,0.372,0.378,0.372c0.019,0,0.038-0.002,0.057-0.006c0.505-0.105,0.967-0.263,1.414-0.504
	c0.046,0.02,0.097,0.029,0.148,0.029c0.248,0,0.509-0.221,0.409-0.53c-0.494-1.522-1.014-2.975-1.302-4.554
	c-0.085-0.466,0.248-0.954,0.635-1.391c0.474-0.095,0.944-0.212,1.395-0.376c0.006,0.014,0.013,0.027,0.022,0.039
	c-0.229,0.963-0.459,1.926-0.694,2.888c-0.008,0.031-0.009,0.059-0.008,0.086c-0.006,0.017-0.015,0.033-0.021,0.05
	c-0.248,0.653-0.026,1.103,0.065,1.763c0.025,0.183,0.176,0.272,0.321,0.272c0.112,0,0.221-0.053,0.264-0.156
	c0.079,0.113,0.21,0.191,0.343,0.191c0.1,0,0.201-0.044,0.283-0.149c1.079-1.384,1.322-3.094,1.607-4.777l0.988,0.833l0.002,0.007
	C25,30.353,25.193,30.934,25.4,31.51c-1.1,1.276-2.42,2.345-3.288,3.81c-0.083,0.14-0.03,0.385,0.106,0.475
	c0.43,0.287,0.826,0.61,1.222,0.942c0.039,0.032,0.078,0.053,0.118,0.069c0.078,0.081,0.18,0.132,0.281,0.132
	c0.098,0,0.195-0.048,0.269-0.163c0.541-0.837,1.171-1.598,1.878-2.29c0.071,0.317,0.142,0.634,0.209,0.952
	c0.006,0.027,0.015,0.051,0.025,0.073c-0.006,0.04-0.005,0.083,0.006,0.128c0.045,0.181,0.094,0.363,0.144,0.544
	c-0.372,0.405-0.738,0.869-0.892,1.336c-0.054,0.045-0.109,0.09-0.163,0.135c-0.306,0.252-0.108,0.702,0.181,0.747
	c0.086,0.19,0.233,0.374,0.461,0.547c0.079,0.06,0.162,0.085,0.241,0.085c0.042,0,0.083-0.007,0.122-0.02
	c0.027,0.199,0.219,0.365,0.42,0.365c0.1,0,0.203-0.042,0.287-0.142l0.21-0.248c0.226,0.675,0.456,1.347,0.676,2.017
	c0.15,0.457,0.413,0.608,0.721,0.608c0.2,0,0.42-0.064,0.64-0.148c0.025,0.002,0.05,0.003,0.076,0.003
	c0.196,0,0.388-0.068,0.513-0.202c0.063-0.002,0.126-0.016,0.188-0.036c0.017,0.003,0.034,0.004,0.051,0.004
	c0.066,0,0.133-0.02,0.188-0.057c0.069,0,0.141-0.007,0.218-0.032c0.233-0.075,0.391-0.162,0.527-0.371
	c0.186-0.285,0.215-0.549,0.043-0.851c-0.381-0.67-0.718-1.359-1.026-2.06c-0.008-0.041-0.019-0.082-0.041-0.124
	c-0.012-0.023-0.022-0.046-0.032-0.069c0.219,0.049,0.435,0.109,0.648,0.187c0.045,0.017,0.091,0.025,0.134,0.025
	c0.131,0,0.247-0.074,0.29-0.217c0.03,0.002,0.059,0.003,0.089,0.003c0.177,0,0.35-0.039,0.517-0.14
	c0.551-0.335,0.694-1.373,0.448-1.912c-0.217-0.477-1.01-0.522-1.451-0.578c-0.406-0.051-0.838-0.091-1.264-0.091
	c-0.085,0-0.17,0.002-0.254,0.005c-0.145-0.505-0.307-1.005-0.462-1.506c0.283,0.076,0.576,0.116,0.872,0.141
	c0.591,0.106,1.169,0.25,1.704,0.54c0.051,0.028,0.113,0.041,0.176,0.041c0.152,0,0.313-0.078,0.364-0.221
	c0.011-0.03,0.019-0.059,0.029-0.089c0.04,0.013,0.081,0.026,0.121,0.04c0.052,0.019,0.102,0.028,0.15,0.028
	c0.335,0,0.547-0.427,0.341-0.656c0.114-0.417,0.189-0.846,0.328-1.256c0.081-0.238-0.018-0.521-0.297-0.564
	c-1.383-0.212-2.754-0.507-4.145-0.648c-0.281-0.09-0.56-0.186-0.84-0.292c0.013-0.062,0.013-0.129-0.008-0.202
	c-0.127-0.426-0.304-0.83-0.533-1.21c-0.01-0.032-0.025-0.061-0.043-0.089c0.092-0.407,0.227-0.802,0.364-1.195
	c0.078,0.05,0.158,0.099,0.243,0.15c0.276,0.164,0.535,0.344,0.785,0.534c0.334,0.313,0.676,0.617,1.031,0.908
	c0.153,0.153,0.304,0.309,0.452,0.47c0.078,0.085,0.164,0.119,0.248,0.119c0.02,0,0.039-0.002,0.058-0.005
	c0.184,0.133,0.371,0.264,0.563,0.388c0.069,0.044,0.135,0.063,0.196,0.063c0.041,0,0.08-0.008,0.116-0.023
	c0.049,0.02,0.101,0.029,0.154,0.029c0.126,0,0.253-0.055,0.334-0.147c0.095-0.013,0.189-0.034,0.282-0.071
	c0.153-0.061,0.254-0.205,0.265-0.357c0.028-0.107,0.017-0.225-0.052-0.325c-0.081-0.117-0.154-0.237-0.225-0.358
	c-0.022-0.196-0.119-0.376-0.271-0.513c-0.018-0.016-0.037-0.028-0.057-0.04c-0.036-0.058-0.071-0.116-0.11-0.172
	c-0.142-0.205-0.361-0.379-0.591-0.535c-0.603-0.617-1.245-1.193-1.907-1.749c0.373-0.141,0.749-0.275,1.125-0.409
	c0.457,0.116,0.917,0.223,1.379,0.319c0.517,1.602,0.741,3.285,1.54,4.789c0.057,0.108,0.207,0.182,0.34,0.182
	c0.043,0,0.085-0.008,0.121-0.025c0.469-0.217,0.952-0.386,1.441-0.55c0.048-0.016,0.087-0.039,0.121-0.065
	c0.215-0.047,0.382-0.234,0.261-0.485c-0.472-0.977-0.816-1.995-1.039-3.048c0.026-0.089,0.048-0.181,0.066-0.276
	c0.476,0.081,0.952,0.161,1.427,0.246c0.171,0.677,0.394,1.709,0.894,2.297c0.01,0.07,0.021,0.14,0.03,0.209
	c0.035,0.244,0.237,0.362,0.431,0.362c0.117,0,0.231-0.043,0.302-0.127c0.047,0.006,0.095,0.009,0.144,0.009
	c0.17,0,0.357-0.036,0.564-0.116c0.141-0.055,0.218-0.16,0.246-0.276c0.05,0.022,0.104,0.032,0.158,0.032
	c0.248,0,0.503-0.213,0.402-0.518l-0.436-1.309c0.895,0.22,1.779,0.481,2.644,0.816c0.095,0.037,0.187,0.053,0.275,0.053
	c0.49,0,0.84-0.517,0.729-0.919c0.054-0.097,0.085-0.212,0.093-0.328c0.062-0.076,0.112-0.169,0.14-0.285
	c0.057-0.238,0.065-0.418-0.042-0.642c-0.147-0.307-0.357-0.469-0.705-0.48c-0.771-0.024-1.535-0.097-2.295-0.199
	c-0.039-0.015-0.08-0.027-0.127-0.03c-0.178-0.013-0.331-0.054-0.46-0.115c0.477-0.369,1.137-0.733,1.138-1.399
	c0.001-0.644-0.811-1.307-1.4-1.379c-0.024-0.003-0.048-0.004-0.071-0.004c-0.49,0-0.914,0.609-1.179,0.94
	c-0.307,0.383-0.619,0.806-0.865,1.249c-0.507-0.14-1.018-0.262-1.528-0.391c0.788-0.746,1.216-1.859,2.089-2.548
	c0.329-0.259,0.096-0.751-0.223-0.751c-0.019,0-0.038,0.002-0.058,0.005c-0.297-0.314-0.624-0.602-0.902-0.934
	c-0.091-0.109-0.223-0.176-0.354-0.176c-0.102,0-0.203,0.041-0.282,0.135c-1.062,1.257-2.215,2.439-3.152,3.796
	c-0.048-0.024-0.104-0.04-0.168-0.04c-0.014,0-0.029,0.001-0.045,0.002c-0.011,0.001-0.022,0.002-0.033,0.003
	c-0.046-0.045-0.105-0.081-0.181-0.101c-0.43-0.114-0.868-0.174-1.311-0.177c-0.03-0.007-0.06-0.01-0.09-0.01
	c-0.003,0-0.005,0-0.008,0c-0.278-0.269-0.526-0.565-0.772-0.862c0.639-0.198,1.278-0.396,1.916-0.594
	c0.834-0.259,2.194-0.664,2.365-1.675c0.009-0.052,0.006-0.103-0.004-0.152c0.114-0.105,0.232-0.216,0.368-0.326
	c0.19-0.156,0.122-0.412-0.03-0.516c0.274,0.024,0.549,0.044,0.825,0.057c0.006,0,0.012,0,0.017,0c0.223,0,0.394-0.202,0.448-0.399
	c0.153-0.562,0.184-1.133,0.015-1.607c0.093-0.128,0.127-0.297,0.074-0.455c-0.07-0.208-0.27-0.342-0.48-0.342
	c-0.052,0-0.104,0.008-0.156,0.025c-0.011,0.004-0.023,0.008-0.034,0.012c-0.121-0.079-0.258-0.147-0.415-0.201
	c-0.714-0.244-1.636-0.396-2.465-0.396c-0.038,0-0.076,0-0.114,0.001c0.26-0.398,0.521-0.792,0.799-1.162
	c0.078-0.075,0.156-0.149,0.233-0.224c0.059,0.034,0.13,0.053,0.212,0.053c0.007,0,0.013,0,0.02,0
	c0.062,0.073,0.152,0.129,0.27,0.155c0.323,0.071,0.651,0.134,0.981,0.134c0.076,0,0.152-0.003,0.227-0.011
	c0.08,0.074,0.184,0.122,0.306,0.122c0.053,0,0.109-0.009,0.168-0.029c0.029-0.01,0.054-0.023,0.079-0.035
	c0.125,0.035,0.251,0.067,0.379,0.092c0.036,0.007,0.071,0.011,0.105,0.011c0.284,0,0.495-0.241,0.5-0.529
	c0.008-0.431,0.054-0.86,0.062-1.291c0.004-0.218-0.19-0.427-0.399-0.465c-0.33-0.06-0.642-0.175-0.959-0.274
	c0.714-0.824,1.408-1.669,2.109-2.491c0.723-0.848-0.27-1.354-0.899-1.816c0.013-0.172-0.148-0.329-0.317-0.329
	c-0.075,0-0.152,0.031-0.216,0.106c-0.749,0.887-1.494,1.778-2.233,2.674c-0.189-0.421-0.349-0.851-0.44-1.307
	c-0.032-0.16-0.148-0.274-0.301-0.274c-0.032,0-0.066,0.005-0.101,0.016c-0.611,0.189-1.225,0.273-1.781,0.608
	c-0.119,0.072-0.151,0.225-0.114,0.349c0.172,0.573,0.425,1.117,0.539,1.707c0.071,0.365,0.138,0.718,0.234,1.069
	c-0.32,0.398-0.635,0.8-0.952,1.202c-0.382-1.08-0.978-2.101-1.039-3.262c-0.009-0.181-0.188-0.372-0.378-0.372
	c-0.019,0-0.038,0.002-0.057,0.006c-0.505,0.105-0.967,0.263-1.414,0.504c-0.046-0.02-0.097-0.029-0.148-0.029
	c-0.248,0-0.509,0.221-0.409,0.53c0.494,1.522,1.013,2.975,1.302,4.554c0.085,0.466-0.248,0.953-0.635,1.391
	c-0.542,0.109-1.081,0.242-1.589,0.447c0.018-0.194,0.021-0.397,0.018-0.621c-0.004-0.32,0.014-0.635,0.047-0.948
	c0.093-0.448,0.175-0.898,0.238-1.352c0.051-0.21,0.106-0.42,0.166-0.63c0.039-0.136,0.006-0.244-0.062-0.32
	c0.018-0.227,0.032-0.454,0.038-0.683c0.004-0.136-0.049-0.23-0.129-0.287c-0.032-0.199-0.221-0.362-0.414-0.362
	c-0.1,0-0.202,0.044-0.284,0.149c-0.256,0.329-0.464,0.676-0.638,1.037c-0.038,0.053-0.073,0.108-0.113,0.16
	c-0.058,0.076-0.073,0.157-0.06,0.233c-0.076,0.188-0.145,0.38-0.207,0.574c-0.304,0.824-0.436,1.727-0.625,2.571
	c-0.011,0.049-0.023,0.097-0.034,0.146L22.646,16.8l-0.002-0.007c-0.172-0.587-0.366-1.167-0.572-1.744
	c1.1-1.276,2.42-2.344,3.288-3.81c0.083-0.14,0.03-0.385-0.106-0.475c-0.43-0.286-0.826-0.61-1.221-0.942
	c-0.039-0.032-0.078-0.054-0.118-0.069c-0.078-0.081-0.18-0.132-0.281-0.132c-0.098,0-0.195,0.048-0.269,0.163
	c-0.589,0.911-1.278,1.736-2.062,2.475c-0.09,0.024-0.18,0.054-0.27,0.088c-0.179-0.448-0.359-0.896-0.534-1.345
	c0.489-0.499,1.254-1.227,1.496-1.96c0.054-0.045,0.109-0.09,0.163-0.135c0.306-0.252,0.108-0.702-0.181-0.747
	c-0.086-0.19-0.233-0.374-0.461-0.547c-0.079-0.06-0.162-0.085-0.242-0.085c-0.042,0-0.083,0.007-0.122,0.02
	c-0.027-0.199-0.219-0.365-0.42-0.365c-0.1,0-0.203,0.042-0.287,0.142l-0.828,0.98c-0.167-0.506-0.338-1.011-0.509-1.514
	c-0.088-0.361-0.169-0.724-0.236-1.091C18.796,5.286,18.453,5.091,18.123,5.091"/>
</svg>
