<?xml version="1.0" encoding="utf-8"?>
<!-- Generator: Adobe Illustrator 17.0.2, SVG Export Plug-In . SVG Version: 6.00 Build 0)  -->
<!DOCTYPE svg PUBLIC "-//W3C//DTD SVG 1.1//EN" "http://www.w3.org/Graphics/SVG/1.1/DTD/svg11.dtd">
<svg version="1.1" id="Layer_1" xmlns="http://www.w3.org/2000/svg" xmlns:xlink="http://www.w3.org/1999/xlink" x="0px" y="0px"
	 width="46.703px" height="45.043px" viewBox="0 0 46.703 45.043" enable-background="new 0 0 46.703 45.043" xml:space="preserve">
<path fill="#8DD7F6" d="M25.488,28.49c-0.419-0.388-0.851-0.762-1.3-1.116c-0.054-0.083-0.135-0.144-0.229-0.179l-0.007-0.005
	c-0.009-0.055-0.024-0.11-0.053-0.165c-0.033-0.063-0.059-0.13-0.086-0.196c0.278-0.77,0.445-1.582,0.564-2.4
	c0.491,0.386,0.939,0.81,1.2,1.404c0.045,0.102,0.111,0.175,0.188,0.225C25.624,26.826,25.496,27.668,25.488,28.49 M18.928,27.583
	c0.253-0.735,0.4-1.51,0.6-2.262c0.846-0.287,1.673-0.609,2.46-1.049c0.073-0.023,0.145-0.045,0.218-0.068
	c-0.09,0.382-0.155,0.769-0.17,1.167c-0.099,0.365-0.186,0.732-0.271,1.1c-0.74,0.289-1.524,0.63-2.223,1.067
	c-0.04-0.009-0.081-0.015-0.123-0.015c-0.017,0-0.034,0.001-0.051,0.003C19.221,27.544,19.075,27.563,18.928,27.583 M27.915,24.331
	c-0.584-0.452-1.169-0.902-1.751-1.353c0.069-0.022,0.139-0.043,0.208-0.065c0.634-0.193,1.266-0.389,1.9-0.583
	c0.511,0.433,1.024,0.862,1.58,1.237c0.038,0.049,0.078,0.096,0.117,0.144C29.277,23.881,28.599,24.129,27.915,24.331
	 M18.363,22.813c-0.508-0.429-1.018-0.854-1.57-1.226c-0.07-0.089-0.142-0.176-0.213-0.263c1.028-0.077,2.001-0.462,2.986-0.76
	c0.427,0.522,0.915,0.997,1.431,1.442c-0.241,0.075-0.481,0.149-0.723,0.223C19.637,22.422,19,22.618,18.363,22.813 M25.001,20.77
	c0.071-0.722,0.176-1.434,0.605-2.049c0.064-0.091,0.091-0.186,0.094-0.278c0.669-0.258,1.384-0.559,2.043-0.932
	c-0.273,0.771-0.424,1.59-0.639,2.381c-0.501,0.197-0.993,0.418-1.471,0.682C25.423,20.64,25.212,20.705,25.001,20.77 M29.621,19.04
	c0.106-0.571,0.225-1.14,0.345-1.708c0.356-0.201,0.68-0.442,0.982-0.71c1.49,0.455,3.008,0.771,4.55,0.944
	c-0.104,0.007-0.208,0.01-0.312,0.01c-0.204,0-0.407-0.012-0.61-0.034c-0.016-0.002-0.031-0.003-0.046-0.003
	c-0.124,0-0.221,0.055-0.286,0.136c-0.239,0.021-0.475,0.06-0.711,0.108c-0.086,0.012-0.172,0.029-0.259,0.052l-0.008,0.002
	c-0.019,0.005-0.039,0.009-0.058,0.015c-0.943,0.229-1.864,0.613-2.764,0.919C30.169,18.864,29.895,18.953,29.621,19.04
	 M22.678,20.082c-0.127-0.112-0.255-0.224-0.381-0.336c-0.386-0.343-0.773-0.685-1.16-1.027c0.125-0.819,0.268-1.633,0.305-2.461
	c0.047-0.126,0.091-0.254,0.136-0.38c0.5,0.489,1.017,0.955,1.558,1.397C22.919,18.202,22.734,19.127,22.678,20.082 M16.872,0
	c-0.211,0-0.417,0.065-0.569,0.19c-0.159,0.046-0.32,0.106-0.481,0.174c-0.036-0.005-0.073-0.007-0.11-0.007
	c-0.086,0-0.176,0.013-0.271,0.043c-0.157,0.05-0.285,0.107-0.398,0.188c-0.023-0.004-0.046-0.006-0.07-0.006
	c-0.229,0-0.464,0.194-0.37,0.477c0.012,0.037,0.025,0.074,0.037,0.111c-0.075,0.239-0.051,0.477,0.098,0.737
	c0.138,0.243,0.27,0.488,0.399,0.734c0.273,0.804,0.548,1.608,0.827,2.41c-0.419-0.172-0.868-0.365-1.302-0.365
	c-0.124,0-0.246,0.016-0.367,0.052c-0.046-0.014-0.092-0.02-0.136-0.02c-0.168,0-0.315,0.096-0.362,0.285
	c-0.005,0.021-0.012,0.042-0.017,0.063c-0.358,0.404-0.501,1.094-0.437,1.657c-0.028,0.177-0.047,0.358-0.048,0.544
	c-0.001,0.171,0.14,0.303,0.295,0.344c0.2,0.052,0.401,0.096,0.603,0.138c0.192,0.059,0.398,0.097,0.592,0.124
	c0.321,0.07,0.64,0.15,0.95,0.265c0.431,0.16,0.845,0.316,1.277,0.439c0.152,0.423,0.309,0.844,0.467,1.265
	c-1.235-0.267-2.593-0.056-3.807-0.505c-0.063-0.023-0.123-0.033-0.181-0.033c-0.021,0-0.041,0.001-0.061,0.004
	c-0.028-0.005-0.057-0.007-0.087-0.007c-0.187,0-0.384,0.095-0.447,0.271c-0.213,0.599-0.344,1.186-0.376,1.811
	c-0.298,0.213-0.298,0.795,0.171,0.907c1.922,0.457,3.787,0.843,5.637,1.553c0.546,0.209,0.846,0.873,1.059,1.561
	c-0.167,0.457-0.317,0.922-0.431,1.392c-0.576-0.507-1.151-1.014-1.727-1.521c-0.68-0.598-1.708-1.521-2.717-1.521
	c-0.191,0-0.38,0.033-0.567,0.107c-0.028,0.011-0.054,0.027-0.079,0.042c-0.04-0.009-0.08-0.014-0.121-0.014
	c-0.309,0-0.619,0.257-0.478,0.629c0.727,1.919,2.246,3.234,3.759,4.543c-0.529,0.192-1.06,0.378-1.589,0.569
	c-0.034,0.012-0.063,0.028-0.089,0.046c-0.597-0.152-1.198-0.292-1.802-0.416c-0.64-1.975-0.919-4.05-1.907-5.904
	c-0.071-0.133-0.255-0.224-0.419-0.224c-0.053,0-0.105,0.01-0.15,0.03c-0.578,0.269-1.173,0.478-1.777,0.681
	c-0.059,0.02-0.107,0.048-0.149,0.08c-0.265,0.059-0.471,0.289-0.321,0.599c0.583,1.204,1.01,2.459,1.286,3.758
	c-0.032,0.11-0.059,0.224-0.081,0.341c-0.587-0.099-1.174-0.198-1.76-0.301c-0.212-0.834-0.489-2.107-1.106-2.832
	c-0.013-0.086-0.025-0.172-0.038-0.258c-0.044-0.301-0.293-0.446-0.531-0.446c-0.002,0-0.004,0-0.005,0
	c-0.021-0.026-0.051-0.044-0.088-0.044c-0.013,0-0.027,0.002-0.041,0.007c-0.008,0.003-0.011,0.008-0.018,0.011
	c-0.007,0.001-0.014,0-0.022,0.002c-0.619,0.186-1.363,0.146-1.898,0.552c-0.079,0.06-0.13,0.124-0.17,0.189
	c-0.011,0.001-0.023,0.002-0.035,0.006c-0.101,0.034-0.099,0.149-0.042,0.207c-0.025,0.233,0.095,0.486,0.187,0.746
	c0.013,0.038,0.039,0.061,0.068,0.072l0.367,1.097c-1.104-0.27-2.195-0.591-3.262-1.002c-0.117-0.045-0.23-0.065-0.338-0.065
	c-0.605,0-1.036,0.638-0.899,1.135c-0.067,0.12-0.104,0.262-0.114,0.405c-0.077,0.094-0.138,0.209-0.172,0.352
	c-0.071,0.293-0.08,0.516,0.053,0.792c0.182,0.379,0.44,0.578,0.87,0.591c0.951,0.028,1.893,0.117,2.83,0.242
	c0.048,0.018,0.099,0.033,0.156,0.037c0.22,0.016,0.409,0.066,0.568,0.141c-0.587,0.456-1.401,0.906-1.402,1.727
	c-0.001,0.794,1.003,1.611,1.728,1.698c0.029,0.003,0.058,0.005,0.087,0.005c0.605,0,1.128-0.752,1.454-1.161
	c0.378-0.473,0.762-0.995,1.065-1.541c0.625,0.172,1.257,0.322,1.885,0.48c-0.97,0.921-1.497,2.295-2.573,3.146
	c-0.405,0.32-0.117,0.926,0.276,0.926c0.024,0,0.047-0.002,0.072-0.007c0.367,0.387,0.771,0.741,1.114,1.151
	c0.112,0.134,0.275,0.217,0.437,0.217c0.126,0,0.25-0.05,0.348-0.167c1.308-1.552,2.728-3.011,3.882-4.686
	c0.059,0.03,0.127,0.049,0.207,0.049c0.018,0,0.037-0.001,0.056-0.003c0.014-0.001,0.027-0.003,0.041-0.004
	c0.057,0.055,0.13,0.1,0.223,0.124c0.531,0.14,1.07,0.213,1.617,0.216c0.037,0.009,0.074,0.012,0.111,0.012c0.003,0,0.007,0,0.01,0
	c0.339,0.327,0.642,0.686,0.942,1.047c-0.785,0.242-1.57,0.484-2.354,0.727c-1.028,0.318-2.707,0.816-2.92,2.062
	c-0.023,0.134,0.01,0.266,0.08,0.374c-0.194,0.309,0.056,0.745,0.425,0.745c0.009,0,0.018,0,0.027-0.001
	c0.113-0.007,0.226-0.009,0.339-0.009c0.149,0,0.297,0.004,0.445,0.008c0.148,0.004,0.295,0.008,0.443,0.008
	c0.114,0,0.227-0.002,0.342-0.009c0.319-0.019,0.654-0.145,0.976-0.293c1.044-0.196,2.061-0.62,3.053-0.963
	c-0.136,0.736-0.295,1.468-0.445,2.202c-0.063,0.037-0.125,0.087-0.18,0.157c-0.229,0.293-0.489,0.55-0.766,0.787
	c-1.852-0.492-3.733-0.894-5.654-0.934c-0.109-0.173-0.288-0.292-0.51-0.292c-0.011,0-0.023,0-0.034,0.001
	c-0.322,0.017-0.624,0.316-0.586,0.652c0.042,0.378,0.006,0.633-0.117,1.015c-0.005,0.014-0.004,0.028-0.008,0.043
	c-0.097,0.12-0.157,0.259-0.16,0.404c-0.165,0.367,0.024,0.901,0.529,0.901c0.015,0,0.029,0,0.044-0.001
	c0.104-0.006,0.208-0.009,0.311-0.009c1.155,0,2.277,0.366,3.402,0.638c-0.381,0.464-0.75,0.938-1.11,1.42
	c-0.525-0.146-1.124-0.213-1.709-0.213c-0.311,0-0.618,0.019-0.908,0.054c-0.085-0.011-0.17-0.025-0.255-0.034
	c-0.029-0.003-0.057-0.004-0.086-0.004c-0.113,0-0.222,0.024-0.319,0.069c-0.113,0.007-0.221,0.061-0.281,0.173
	c-0.112,0.069-0.199,0.209-0.179,0.337c0.014,0.09,0.027,0.178,0.039,0.267c-0.212,1.074-0.319,2.07,1.132,2.228
	c0.232,0.025,0.592,0.093,0.937,0.106c-0.721,0.846-1.429,1.702-2.142,2.54c-0.891,1.046,0.333,1.67,1.109,2.239
	c-0.016,0.213,0.183,0.406,0.391,0.406c0.093,0,0.188-0.039,0.266-0.131c0.924-1.094,1.843-2.193,2.754-3.298
	c0.233,0.519,0.431,1.049,0.543,1.612c0.039,0.197,0.183,0.338,0.371,0.338c0.04,0,0.081-0.006,0.124-0.02
	c0.753-0.233,1.511-0.337,2.196-0.75c0.147-0.088,0.186-0.278,0.14-0.431c-0.212-0.706-0.524-1.378-0.665-2.105
	c-0.088-0.45-0.17-0.885-0.289-1.318c0.395-0.491,0.783-0.987,1.174-1.482c0.472,1.332,1.207,2.591,1.281,4.023
	c0.012,0.224,0.231,0.459,0.466,0.459c0.023,0,0.047-0.002,0.07-0.007c0.623-0.13,1.193-0.324,1.744-0.622
	c0.057,0.024,0.119,0.036,0.182,0.036c0.306,0,0.627-0.273,0.504-0.654c-0.61-1.877-1.25-3.669-1.605-5.616
	c-0.105-0.574,0.306-1.176,0.783-1.716c0.584-0.117,1.165-0.262,1.721-0.464c0.008,0.017,0.016,0.033,0.027,0.048
	c-0.282,1.188-0.566,2.375-0.855,3.562c-0.009,0.038-0.011,0.073-0.01,0.106c-0.008,0.021-0.018,0.041-0.026,0.061
	c-0.306,0.806-0.032,1.36,0.08,2.174c0.031,0.226,0.218,0.335,0.396,0.335c0.138,0,0.272-0.066,0.325-0.193
	c0.098,0.14,0.259,0.235,0.423,0.235c0.123,0,0.248-0.054,0.349-0.184c1.331-1.707,1.63-3.816,1.982-5.892l1.219,1.027l0.002,0.009
	c0.212,0.724,0.451,1.44,0.706,2.15c-1.356,1.574-2.984,2.892-4.055,4.699c-0.102,0.172-0.037,0.474,0.131,0.586
	c0.531,0.353,1.019,0.752,1.507,1.161c0.048,0.04,0.097,0.066,0.146,0.085c0.096,0.099,0.222,0.163,0.347,0.163
	c0.121,0,0.241-0.059,0.332-0.201c0.667-1.033,1.445-1.971,2.316-2.824c0.088,0.391,0.175,0.782,0.258,1.174
	c0.007,0.034,0.018,0.063,0.031,0.09c-0.008,0.049-0.006,0.102,0.008,0.158c0.056,0.224,0.116,0.447,0.177,0.671
	c-0.459,0.499-0.91,1.072-1.101,1.647c-0.067,0.055-0.134,0.111-0.201,0.167c-0.377,0.311-0.133,0.865,0.224,0.921
	c0.106,0.235,0.288,0.462,0.568,0.675c0.097,0.074,0.2,0.105,0.298,0.105c0.052,0,0.102-0.009,0.151-0.024
	c0.033,0.246,0.271,0.451,0.518,0.451c0.124,0,0.25-0.051,0.354-0.175l0.259-0.306c0.278,0.832,0.562,1.662,0.834,2.488
	c0.185,0.564,0.509,0.75,0.889,0.75c0.247,0,0.518-0.079,0.79-0.183c0.031,0.003,0.062,0.004,0.093,0.004
	c0.242,0,0.478-0.084,0.633-0.249c0.078-0.003,0.156-0.02,0.232-0.044c0.021,0.003,0.042,0.005,0.063,0.005
	c0.082,0,0.164-0.025,0.232-0.071c0.086,0,0.174-0.009,0.268-0.039c0.287-0.092,0.482-0.2,0.649-0.457
	c0.229-0.352,0.265-0.677,0.053-1.049c-0.47-0.826-0.885-1.676-1.266-2.54c-0.009-0.051-0.024-0.101-0.05-0.153
	c-0.015-0.029-0.027-0.057-0.04-0.086c0.27,0.06,0.537,0.134,0.8,0.231c0.056,0.02,0.112,0.031,0.166,0.031
	c0.162,0,0.305-0.091,0.358-0.268c0.037,0.003,0.073,0.004,0.109,0.004c0.218,0,0.432-0.048,0.637-0.173
	c0.679-0.413,0.855-1.693,0.553-2.358c-0.268-0.588-1.246-0.644-1.79-0.713c-0.501-0.063-1.034-0.113-1.559-0.113
	c-0.105,0-0.209,0.002-0.313,0.006c-0.179-0.623-0.379-1.239-0.57-1.857c0.349,0.094,0.71,0.143,1.076,0.174
	c0.728,0.131,1.442,0.309,2.102,0.666c0.063,0.034,0.139,0.051,0.217,0.051c0.187,0,0.386-0.096,0.448-0.272
	c0.013-0.037,0.023-0.073,0.036-0.11c0.05,0.016,0.1,0.032,0.15,0.05c0.064,0.024,0.126,0.035,0.185,0.035
	c0.413,0,0.675-0.527,0.42-0.809c0.14-0.514,0.233-1.043,0.404-1.549c0.1-0.294-0.023-0.643-0.366-0.696
	c-1.706-0.262-3.397-0.626-5.113-0.799c-0.346-0.111-0.691-0.23-1.036-0.36c0.016-0.076,0.017-0.159-0.01-0.25
	c-0.157-0.526-0.375-1.024-0.657-1.492c-0.013-0.04-0.031-0.076-0.053-0.109c0.114-0.503,0.28-0.989,0.448-1.474
	c0.096,0.061,0.195,0.122,0.3,0.185c0.34,0.202,0.66,0.424,0.968,0.659c0.412,0.386,0.834,0.761,1.271,1.12
	c0.189,0.188,0.375,0.381,0.557,0.579c0.096,0.104,0.203,0.147,0.306,0.147c0.024,0,0.048-0.002,0.071-0.007
	c0.227,0.164,0.458,0.325,0.695,0.479c0.085,0.055,0.166,0.078,0.242,0.078c0.05,0,0.098-0.01,0.143-0.029
	c0.06,0.025,0.125,0.036,0.189,0.036c0.156,0,0.312-0.067,0.411-0.181c0.117-0.016,0.233-0.042,0.348-0.088
	c0.188-0.075,0.313-0.252,0.327-0.441c0.035-0.132,0.021-0.278-0.064-0.4c-0.1-0.144-0.189-0.292-0.277-0.442
	c-0.027-0.242-0.146-0.464-0.334-0.633c-0.022-0.02-0.046-0.035-0.071-0.049c-0.044-0.071-0.088-0.143-0.136-0.212
	c-0.176-0.253-0.445-0.467-0.728-0.66c-0.744-0.761-1.536-1.472-2.352-2.157c0.46-0.174,0.923-0.34,1.387-0.504
	c0.564,0.142,1.131,0.275,1.701,0.393c0.637,1.976,0.914,4.051,1.9,5.907c0.071,0.133,0.255,0.224,0.419,0.224
	c0.053,0,0.105-0.01,0.149-0.03c0.579-0.268,1.174-0.476,1.778-0.679c0.059-0.02,0.107-0.048,0.149-0.08
	c0.265-0.059,0.471-0.289,0.322-0.599c-0.582-1.205-1.007-2.46-1.281-3.759c0.032-0.11,0.059-0.224,0.082-0.34
	c0.587,0.1,1.174,0.199,1.76,0.303c0.211,0.835,0.486,2.107,1.103,2.833c0.012,0.086,0.025,0.172,0.038,0.258
	c0.043,0.301,0.293,0.446,0.531,0.446c0.144,0,0.284-0.053,0.372-0.157c0.058,0.007,0.117,0.011,0.178,0.011
	c0.21,0,0.441-0.044,0.695-0.144c0.174-0.068,0.269-0.197,0.303-0.34c0.061,0.027,0.128,0.04,0.195,0.04
	c0.306,0,0.621-0.263,0.495-0.639l-0.538-1.614c1.104,0.271,2.194,0.594,3.261,1.006c0.117,0.045,0.231,0.066,0.339,0.066
	c0.605,0,1.036-0.637,0.9-1.134c0.067-0.12,0.104-0.262,0.114-0.405c0.077-0.094,0.138-0.209,0.173-0.351
	c0.071-0.293,0.08-0.516-0.052-0.792c-0.181-0.379-0.44-0.579-0.869-0.592c-0.951-0.03-1.893-0.119-2.83-0.245
	c-0.048-0.019-0.099-0.033-0.157-0.037c-0.22-0.016-0.409-0.067-0.568-0.141c0.588-0.455,1.402-0.905,1.404-1.726
	c0.002-0.794-1.001-1.612-1.726-1.701c-0.029-0.004-0.059-0.005-0.088-0.005c-0.605,0-1.128,0.751-1.454,1.159
	c-0.378,0.473-0.763,0.994-1.067,1.54c-0.625-0.172-1.256-0.323-1.884-0.483c0.971-0.92,1.499-2.293,2.577-3.143
	c0.406-0.32,0.118-0.927-0.275-0.927c-0.023,0-0.047,0.002-0.071,0.007c-0.367-0.388-0.77-0.742-1.112-1.152
	c-0.112-0.134-0.276-0.217-0.437-0.217c-0.126,0-0.25,0.05-0.348,0.166c-1.31,1.55-2.732,3.008-3.888,4.681
	c-0.059-0.03-0.128-0.049-0.208-0.049c-0.018,0-0.036,0.001-0.055,0.003c-0.014,0.001-0.027,0.003-0.041,0.004
	c-0.057-0.055-0.13-0.1-0.223-0.125c-0.531-0.14-1.07-0.214-1.617-0.218c-0.037-0.009-0.074-0.012-0.111-0.012
	c-0.003,0-0.007,0-0.01,0c-0.343-0.332-0.649-0.696-0.953-1.063c0.788-0.244,1.576-0.488,2.363-0.733
	c1.028-0.32,2.706-0.819,2.917-2.065c0.011-0.064,0.007-0.126-0.005-0.187c0.14-0.13,0.287-0.266,0.454-0.403
	c0.235-0.192,0.15-0.509-0.038-0.636c0.338,0.029,0.677,0.054,1.017,0.07c0.007,0,0.014,0.001,0.021,0.001
	c0.275,0,0.486-0.25,0.552-0.492c0.188-0.693,0.227-1.398,0.018-1.981c0.115-0.157,0.157-0.366,0.091-0.561
	c-0.086-0.257-0.333-0.422-0.592-0.422c-0.064,0-0.129,0.01-0.192,0.031c-0.014,0.005-0.028,0.01-0.042,0.015
	c-0.149-0.097-0.318-0.182-0.512-0.248c-0.88-0.3-2.017-0.488-3.04-0.488c-0.047,0-0.094,0-0.14,0.001
	c0.321-0.491,0.642-0.977,0.985-1.433c0.096-0.092,0.192-0.184,0.288-0.276c0.072,0.042,0.16,0.065,0.261,0.065
	c0.008,0,0.016,0,0.025,0c0.077,0.09,0.187,0.159,0.333,0.191c0.398,0.088,0.803,0.165,1.21,0.165c0.093,0,0.187-0.004,0.281-0.013
	c0.099,0.092,0.227,0.15,0.377,0.15c0.065,0,0.135-0.011,0.208-0.035c0.036-0.012,0.067-0.028,0.098-0.044
	c0.154,0.043,0.31,0.082,0.468,0.114c0.044,0.009,0.087,0.013,0.129,0.013c0.351,0,0.611-0.297,0.617-0.653
	c0.01-0.532,0.067-1.061,0.077-1.593c0.005-0.269-0.234-0.526-0.492-0.573c-0.407-0.074-0.791-0.216-1.183-0.338
	c0.881-1.017,1.736-2.058,2.601-3.073c0.891-1.046-0.333-1.67-1.109-2.239c0.016-0.213-0.183-0.406-0.391-0.406
	c-0.093,0-0.188,0.038-0.266,0.131c-0.924,1.094-1.843,2.193-2.754,3.298c-0.233-0.519-0.431-1.049-0.543-1.612
	c-0.039-0.197-0.183-0.338-0.371-0.338c-0.04,0-0.081,0.006-0.124,0.019c-0.754,0.233-1.511,0.337-2.196,0.75
	c-0.147,0.088-0.186,0.278-0.14,0.431c0.212,0.706,0.524,1.378,0.665,2.105c0.087,0.45,0.17,0.885,0.289,1.318
	c-0.395,0.49-0.783,0.987-1.174,1.482c-0.472-1.332-1.207-2.591-1.281-4.023c-0.012-0.224-0.231-0.459-0.466-0.459
	c-0.023,0-0.047,0.002-0.07,0.007c-0.623,0.13-1.193,0.324-1.744,0.622c-0.057-0.024-0.119-0.036-0.182-0.036
	c-0.306,0-0.628,0.273-0.504,0.654c0.61,1.877,1.25,3.669,1.605,5.616c0.105,0.574-0.306,1.176-0.783,1.716
	c-0.668,0.134-1.333,0.299-1.959,0.551c0.022-0.239,0.026-0.49,0.023-0.766c-0.005-0.395,0.018-0.784,0.058-1.169
	c0.115-0.553,0.216-1.108,0.294-1.667c0.063-0.259,0.13-0.518,0.205-0.777c0.048-0.168,0.008-0.301-0.077-0.395
	c0.022-0.279,0.039-0.56,0.047-0.842c0.005-0.167-0.061-0.283-0.159-0.354c-0.04-0.245-0.272-0.447-0.511-0.447
	c-0.123,0-0.249,0.054-0.35,0.184c-0.316,0.405-0.572,0.834-0.786,1.279c-0.047,0.066-0.091,0.133-0.14,0.197
	c-0.072,0.094-0.09,0.194-0.075,0.287c-0.094,0.232-0.179,0.468-0.255,0.708c-0.375,1.017-0.538,2.13-0.77,3.17
	c-0.014,0.06-0.028,0.12-0.042,0.18l-1.134-0.955l-0.002-0.009c-0.212-0.724-0.451-1.44-0.706-2.151
	c1.356-1.574,2.984-2.891,4.055-4.699c0.102-0.172,0.037-0.474-0.131-0.586c-0.531-0.353-1.019-0.752-1.506-1.161
	c-0.048-0.04-0.097-0.066-0.146-0.085c-0.096-0.099-0.222-0.163-0.347-0.163c-0.121,0-0.241,0.059-0.332,0.201
	c-0.726,1.124-1.577,2.141-2.543,3.052c-0.11,0.03-0.222,0.066-0.333,0.108C20.237,8.395,20.016,7.843,19.8,7.29
	c0.603-0.615,1.547-1.513,1.846-2.417c0.067-0.056,0.134-0.111,0.201-0.167c0.377-0.311,0.133-0.866-0.224-0.921
	c-0.106-0.235-0.288-0.462-0.568-0.675c-0.098-0.074-0.2-0.105-0.298-0.105c-0.052,0-0.102,0.009-0.151,0.024
	c-0.033-0.246-0.271-0.451-0.518-0.451c-0.124,0-0.25,0.051-0.354,0.175l-1.021,1.209c-0.206-0.624-0.417-1.247-0.627-1.867
	c-0.109-0.445-0.208-0.892-0.29-1.345C17.702,0.24,17.279,0,16.872,0"/>
</svg>
