<svg id="two-tubs" data-name="Layer 1" xmlns="http://www.w3.org/2000/svg" viewBox="0 0 111.69 75.59"><defs><style>.cls-1{fill:#787878;}.cls-2{fill:#4c4c4c;}.cls-3{fill:#717171;}</style></defs><title>2-tubs</title><path class="cls-1" d="M32.8,58.07l3.36-2.76c1.26-1,1.75-1.59,1.75-2.42a1.24,1.24,0,0,0-1.36-1.31c-0.78,0-1.31.43-2.06,1.36l-1.56-1.26a4.22,4.22,0,0,1,3.77-2.09c2.09,0,3.48,1.23,3.48,3.12v0c0,1.69-.87,2.53-2.66,3.91l-1.65,1.27h4.4v1.92H32.8V58.07Z" transform="translate(-0.62 0)"/><path class="cls-1" d="M49,51.77H45.91v-2h8.37v2H51.21v8.05H49V51.77Z" transform="translate(-0.62 0)"/><path class="cls-1" d="M55.7,57.1v-5h2.19v4.32A1.32,1.32,0,0,0,59.22,58a1.35,1.35,0,0,0,1.37-1.57V52.09h2.19v7.74H60.59v-1.1A2.74,2.74,0,0,1,58.33,60C56.67,60,55.7,58.88,55.7,57.1Z" transform="translate(-0.62 0)"/><path class="cls-1" d="M66.95,58.82v1H64.75V49.29h2.19V53.2a2.84,2.84,0,0,1,2.41-1.26c1.8,0,3.52,1.42,3.52,4v0c0,2.58-1.69,4-3.52,4A3,3,0,0,1,66.95,58.82ZM70.69,56v0a1.9,1.9,0,1,0-3.77,0v0A1.9,1.9,0,1,0,70.69,56Z" transform="translate(-0.62 0)"/><path class="cls-1" d="M73.89,58.81l0.94-1.44a4.37,4.37,0,0,0,2.44.92c0.64,0,.92-0.23.92-0.58v0c0-.48-0.75-0.64-1.6-0.9-1.08-.32-2.31-0.82-2.31-2.32v0c0-1.57,1.27-2.45,2.83-2.45a5.36,5.36,0,0,1,2.89.89l-0.84,1.52a4.59,4.59,0,0,0-2.09-.72,0.66,0.66,0,0,0-.81.53v0c0,0.43.74,0.63,1.57,0.92,1.08,0.36,2.34.88,2.34,2.29v0c0,1.72-1.28,2.5-3,2.5A5.42,5.42,0,0,1,73.89,58.81Z" transform="translate(-0.62 0)"/><path class="cls-1" d="M5.54,67.69a3.4,3.4,0,0,0-1.66-.79v2.72c1.67,0.37,2.38,1,2.38,2.13a2.2,2.2,0,0,1-2.34,2.08v1.08H3.21v-1.1a4.51,4.51,0,0,1-2.6-1.13L1.11,72a3.75,3.75,0,0,0,2.13,1.06V70.31c-1.63-.38-2.34-1-2.34-2.13h0a2.17,2.17,0,0,1,2.31-2V65.49h0.7v0.66A4,4,0,0,1,6,67Zm-2.3,1.77v-2.6a1.36,1.36,0,0,0-1.5,1.24C1.75,68.74,2,69.14,3.25,69.46Zm0.64,1V73.1a1.39,1.39,0,0,0,1.53-1.29h0C5.41,71.16,5.09,70.77,3.88,70.45Z" transform="translate(-0.62 0)"/><path class="cls-1" d="M8.63,73.18a3.78,3.78,0,0,1-1-3v0c0-2.34,1.19-4.18,3.2-4.18a3.4,3.4,0,0,1,2.28.88l-0.51.67a2.69,2.69,0,0,0-1.82-.76c-1.49,0-2.27,1.56-2.27,3.3V70.2A2.52,2.52,0,0,1,10.76,69a2.46,2.46,0,0,1,2.66,2.37v0A2.6,2.6,0,0,1,10.66,74,2.8,2.8,0,0,1,8.63,73.18Zm3.89-1.75v0a1.71,1.71,0,0,0-1.88-1.65,1.81,1.81,0,0,0-1.93,1.68v0a1.8,1.8,0,0,0,1.95,1.73A1.74,1.74,0,0,0,12.53,71.43Z" transform="translate(-0.62 0)"/><path class="cls-1" d="M14.7,72.74l0.57-.63a3.23,3.23,0,0,0,2.19,1.06,1.72,1.72,0,0,0,1.86-1.71v0a1.71,1.71,0,0,0-1.91-1.62,3.32,3.32,0,0,0-1.62.44l-0.58-.38,0.22-3.75h4.43v0.8H16.18L16,69.4a3.47,3.47,0,0,1,1.52-.34,2.41,2.41,0,0,1,2.66,2.35v0A2.53,2.53,0,0,1,17.45,74,3.93,3.93,0,0,1,14.7,72.74Z" transform="translate(-0.62 0)"/><path class="cls-1" d="M21.68,72.67h1v1.16h-1V72.67Z" transform="translate(-0.62 0)"/><path class="cls-1" d="M29.08,70V69.8A2.48,2.48,0,0,1,26.91,71a2.45,2.45,0,0,1-2.68-2.39v0A2.62,2.62,0,0,1,27,66a2.72,2.72,0,0,1,2,.79,3.91,3.91,0,0,1,1,3v0c0,2.44-1.3,4.17-3.2,4.17A3.57,3.57,0,0,1,24.4,73l0.51-.67a2.79,2.79,0,0,0,1.89.83C28.28,73.17,29.08,71.62,29.08,70Zm-0.17-1.42v0a1.81,1.81,0,0,0-2-1.75,1.77,1.77,0,0,0-1.85,1.8v0A1.72,1.72,0,0,0,27,70.28,1.81,1.81,0,0,0,28.92,68.54Z" transform="translate(-0.62 0)"/><path class="cls-1" d="M31.23,72.74l0.57-.63A3.23,3.23,0,0,0,34,73.17a1.72,1.72,0,0,0,1.86-1.71v0a1.71,1.71,0,0,0-1.91-1.62,3.32,3.32,0,0,0-1.62.44l-0.58-.38L32,66.13h4.43v0.8H32.71L32.55,69.4a3.47,3.47,0,0,1,1.52-.34,2.41,2.41,0,0,1,2.66,2.35v0A2.53,2.53,0,0,1,34,74,3.93,3.93,0,0,1,31.23,72.74Z" transform="translate(-0.62 0)"/><path class="cls-1" d="M41.62,68.14h0.85v1.14A2.56,2.56,0,0,1,44.65,68,2.77,2.77,0,0,1,47.37,71v0a2.79,2.79,0,0,1-2.72,3,2.57,2.57,0,0,1-2.18-1.21v2.85H41.62V68.14ZM46.5,71v0a2,2,0,0,0-2-2.2A2.12,2.12,0,0,0,42.44,71v0a2.12,2.12,0,0,0,2.06,2.2A2,2,0,0,0,46.5,71Z" transform="translate(-0.62 0)"/><path class="cls-1" d="M48.58,71v0a2.81,2.81,0,0,1,2.73-3A2.71,2.71,0,0,1,54,71a2.26,2.26,0,0,1,0,.28H49.43a2,2,0,0,0,2,1.92,2.35,2.35,0,0,0,1.79-.8l0.53,0.47A2.93,2.93,0,0,1,51.41,74,2.83,2.83,0,0,1,48.58,71Zm4.52-.33a1.87,1.87,0,0,0-1.82-1.94,2,2,0,0,0-1.85,1.94H53.1Z" transform="translate(-0.62 0)"/><path class="cls-1" d="M55.44,68.14h0.85v1.49A2.44,2.44,0,0,1,58.61,68V69H58.54c-1.24,0-2.25.89-2.25,2.61v2.27H55.44V68.14Z" transform="translate(-0.62 0)"/><path class="cls-1" d="M62.72,73.1l0.43-.6a3.32,3.32,0,0,0,2,.73,1,1,0,0,0,1.18-.9v0c0-.57-0.67-0.79-1.42-1S63,70.74,63,69.69v0A1.72,1.72,0,0,1,64.93,68a3.89,3.89,0,0,1,2,.63l-0.38.64a3.22,3.22,0,0,0-1.68-.55,0.94,0.94,0,0,0-1.1.82v0c0,0.54.7,0.75,1.46,1s1.83,0.6,1.83,1.63v0a1.79,1.79,0,0,1-2,1.71A3.91,3.91,0,0,1,62.72,73.1Z" transform="translate(-0.62 0)"/><path class="cls-1" d="M68.67,65.8h0.85v3.33A2.15,2.15,0,0,1,71.47,68a2.08,2.08,0,0,1,2.18,2.28v3.53H72.8V70.51a1.52,1.52,0,0,0-1.57-1.72,1.67,1.67,0,0,0-1.71,1.78v3.26H68.67v-8Z" transform="translate(-0.62 0)"/><path class="cls-1" d="M75.47,66h1V66.9h-1V66Zm0.05,2.18h0.85v5.69H75.52V68.14Z" transform="translate(-0.62 0)"/><path class="cls-1" d="M78.34,68.14h0.85v1.14A2.56,2.56,0,0,1,81.37,68,2.77,2.77,0,0,1,84.08,71v0a2.79,2.79,0,0,1-2.72,3,2.57,2.57,0,0,1-2.18-1.21v2.85H78.34V68.14ZM83.21,71v0a2,2,0,0,0-2-2.2A2.12,2.12,0,0,0,79.15,71v0a2.12,2.12,0,0,0,2.06,2.2A2,2,0,0,0,83.21,71Z" transform="translate(-0.62 0)"/><path class="cls-1" d="M85.64,68.14h0.85v1A2.08,2.08,0,0,1,88.33,68a1.93,1.93,0,0,1,1.83,1.13,2.27,2.27,0,0,1,2-1.13,2,2,0,0,1,2.11,2.29v3.52H93.42V70.51a1.46,1.46,0,0,0-1.47-1.72,1.59,1.59,0,0,0-1.57,1.76v3.28H89.54V70.48a1.46,1.46,0,0,0-1.46-1.69,1.65,1.65,0,0,0-1.58,1.79v3.25H85.64V68.14Z" transform="translate(-0.62 0)"/><path class="cls-1" d="M95.72,71v0a2.81,2.81,0,0,1,2.73-3,2.71,2.71,0,0,1,2.65,3,2.26,2.26,0,0,1,0,.28H96.58a2,2,0,0,0,2,1.92,2.35,2.35,0,0,0,1.79-.8l0.53,0.47A2.93,2.93,0,0,1,98.56,74,2.83,2.83,0,0,1,95.72,71Zm4.52-.33a1.87,1.87,0,0,0-1.82-1.94,2,2,0,0,0-1.85,1.94h3.66Z" transform="translate(-0.62 0)"/><path class="cls-1" d="M102.58,68.14h0.85v1A2.15,2.15,0,0,1,105.38,68a2.08,2.08,0,0,1,2.18,2.28v3.53h-0.85V70.51a1.52,1.52,0,0,0-1.57-1.72,1.67,1.67,0,0,0-1.71,1.78v3.26h-0.85V68.14Z" transform="translate(-0.62 0)"/><path class="cls-1" d="M109.66,72.32V68.89h-0.79V68.14h0.79V66.43h0.85v1.72h1.8v0.75h-1.8v3.32a0.84,0.84,0,0,0,1,.95,1.79,1.79,0,0,0,.83-0.2v0.73a2.14,2.14,0,0,1-1,.24A1.45,1.45,0,0,1,109.66,72.32Z" transform="translate(-0.62 0)"/><path class="cls-2" d="M53.84,9.22l-1.1-7.47a1.06,1.06,0,0,0-1-.85H13.14a1.06,1.06,0,0,0-1,.85L11,9.22l-0.89-.13,1.1-7.47A2,2,0,0,1,13.14,0H51.72a2,2,0,0,1,1.91,1.62l1.1,7.47Z" transform="translate(-0.62 0)"/><path class="cls-3" d="M50.43,34.07h-36a4.25,4.25,0,0,1-4.31-4.18V8.3H54.74V29.88A4.25,4.25,0,0,1,50.43,34.07ZM11,9.2V29.88a3.35,3.35,0,0,0,3.41,3.28h36a3.35,3.35,0,0,0,3.41-3.28V9.2H11Z" transform="translate(-0.62 0)"/><path class="cls-2" d="M103.84,9.22l-1.1-7.47a1.06,1.06,0,0,0-1-.85H63.14a1.06,1.06,0,0,0-1,.85L61,9.22l-0.89-.13,1.1-7.47A2,2,0,0,1,63.14,0h38.57a2,2,0,0,1,1.91,1.62l1.1,7.47Z" transform="translate(-0.62 0)"/><path class="cls-3" d="M100.43,34.07h-36a4.25,4.25,0,0,1-4.31-4.18V8.3h44.62V29.88A4.25,4.25,0,0,1,100.43,34.07ZM61,9.2V29.88a3.35,3.35,0,0,0,3.41,3.28h36a3.35,3.35,0,0,0,3.41-3.28V9.2H61Z" transform="translate(-0.62 0)"/></svg>